  0
SECTION
  2
HEADER
  9
$ACADVER
  1
AC1009
  9
$FILLMODE
 70
0
  9
$EXTMIN
 10
-0.0381
 20
-0.0381
 30
0.0000
  9
$EXTMAX
 10
213.0381
 20
169.2970
 30
0.0000
  0
ENDSEC
  0
SECTION
  2
TABLES
  0
TABLE
  2
LTYPE
 70
1
  0
LTYPE
  2
CONTINUOUS
 70
64
  3
Solid line
 72
65
 73
0
 40
0
  0
ENDTAB
  0
TABLE
  2
LAYER
 70
255
  0
LAYER
  2
20
 70
64
 62
30
  6
CONTINUOUS
  0
ENDTAB
  0
ENDSEC
  0
SECTION
  2
BLOCKS
  0
BLOCK
  8
0
  2
RECT
 70
64
 10
0.0000
 20
0.0000
 30
0.0000
  3
RECT
  0
SOLID
  8
0
 10
-0.5000
 20
-0.5000
 30
0.0000
 11
0.5000
 21
-0.5000
 31
0.0000
 12
-0.5000
 22
0.5000
 32
0.0000
 13
0.5000
 23
0.5000
 33
0.0000
  0
ENDBLK
  8
0
  0
BLOCK
  8
0
  2
PIE
 70
64
 10
0.0000
 20
0.0000
 30
0.0000
  3
PIE
  0
CIRCLE
  8
0
 10
0.0000
 20
0.0000
 30
0.0000
 40
0.5000
  0
ENDBLK
  8
0
  0
BLOCK
  8
0
  2
OCTAGONP
 70
64
 10
0.0000
 20
0.0000
 30
0.0000
  3
OCTAGONP
  0
POLYLINE
  8
0
 66
1
 10
0.0000
 20
0.0000
 30
0.0000
 40
0.0000
 41
0.0000
 70
1
  0
VERTEX
  8
0
 10
-0.5000
 20
-0.2071
 30
0.0000
  0
VERTEX
  8
0
 10
-0.5000
 20
0.2071
 30
0.0000
  0
VERTEX
  8
0
 10
-0.2071
 20
0.5000
 30
0.0000
  0
VERTEX
  8
0
 10
0.2071
 20
0.5000
 30
0.0000
  0
VERTEX
  8
0
 10
0.5000
 20
0.2071
 30
0.0000
  0
VERTEX
  8
0
 10
0.5000
 20
-0.2071
 30
0.0000
  0
VERTEX
  8
0
 10
0.2071
 20
-0.5000
 30
0.0000
  0
VERTEX
  8
0
 10
-0.2071
 20
-0.5000
 30
0.0000
  0
SEQEND
  8
0
  0
ENDBLK
  8
0
  0
BLOCK
  8
0
  2
SQUAREP
 70
64
 10
0.0000
 20
0.0000
 30
0.0000
  3
SQUAREP
  0
SOLID
  8
0
 10
-0.5000
 20
-0.5000
 30
0.0000
 11
0.5000
 21
-0.5000
 31
0.0000
 12
-0.5000
 22
0.5000
 32
0.0000
 13
0.5000
 23
0.5000
 33
0.0000
  0
ENDBLK
  8
0
  0
BLOCK
  8
0
  2
ROUNDP
 70
64
 10
0.0000
 20
0.0000
 30
0.0000
  3
ROUNDP
  0
CIRCLE
  8
0
 10
0.0000
 20
0.0000
 30
0.0000
 40
0.5000
  0
ENDBLK
  8
0
  0
BLOCK
  8
0
  2
ANNULUSP
 70
64
 10
0.0000
 20
0.0000
 30
0.0000
  3
ANNULUSP
  0
CIRCLE
  8
0
 10
0.0000
 20
0.0000
 30
0.0000
 40
0.5000
  0
ENDBLK
  8
0
  0
BLOCK
  8
0
  2
THERMALP
 70
64
 10
0.0000
 20
0.0000
 30
0.0000
  3
THERMALP
  0
LINE
  8
0
 10
-0.2379
 20
0.4500
 30
0.0000
 11
0.2379
 21
0.4500
 31
0.0000
  0
LINE
  8
0
 10
0.4500
 20
0.2379
 30
0.0000
 11
0.4500
 21
-0.2379
 31
0.0000
  0
LINE
  8
0
 10
0.2379
 20
-0.4500
 30
0.0000
 11
-0.2379
 21
-0.4500
 31
0.0000
  0
LINE
  8
0
 10
-0.4500
 20
-0.2379
 30
0.0000
 11
-0.4500
 21
0.2379
 31
0.0000
  0
ENDBLK
  8
0
  0
BLOCK
  8
0
  2
OCTAGONV
 70
64
 10
0.0000
 20
0.0000
 30
0.0000
  3
OCTAGONV
  0
POLYLINE
  8
0
 66
1
 10
0.0000
 20
0.0000
 30
0.0000
 40
0.0000
 41
0.0000
 70
1
  0
VERTEX
  8
0
 10
-0.5000
 20
-0.2071
 30
0.0000
  0
VERTEX
  8
0
 10
-0.5000
 20
0.2071
 30
0.0000
  0
VERTEX
  8
0
 10
-0.2071
 20
0.5000
 30
0.0000
  0
VERTEX
  8
0
 10
0.2071
 20
0.5000
 30
0.0000
  0
VERTEX
  8
0
 10
0.5000
 20
0.2071
 30
0.0000
  0
VERTEX
  8
0
 10
0.5000
 20
-0.2071
 30
0.0000
  0
VERTEX
  8
0
 10
0.2071
 20
-0.5000
 30
0.0000
  0
VERTEX
  8
0
 10
-0.2071
 20
-0.5000
 30
0.0000
  0
SEQEND
  8
0
  0
ENDBLK
  8
0
  0
BLOCK
  8
0
  2
SQUAREV
 70
64
 10
0.0000
 20
0.0000
 30
0.0000
  3
SQUAREV
  0
SOLID
  8
0
 10
-0.5000
 20
-0.5000
 30
0.0000
 11
0.5000
 21
-0.5000
 31
0.0000
 12
-0.5000
 22
0.5000
 32
0.0000
 13
0.5000
 23
0.5000
 33
0.0000
  0
ENDBLK
  8
0
  0
BLOCK
  8
0
  2
ROUNDV
 70
64
 10
0.0000
 20
0.0000
 30
0.0000
  3
ROUNDV
  0
CIRCLE
  8
0
 10
0.0000
 20
0.0000
 30
0.0000
 40
0.5000
  0
ENDBLK
  8
0
  0
BLOCK
  8
0
  2
ANNULUSV
 70
64
 10
0.0000
 20
0.0000
 30
0.0000
  3
ANNULUSV
  0
CIRCLE
  8
0
 10
0.0000
 20
0.0000
 30
0.0000
 40
0.5000
  0
ENDBLK
  8
0
  0
BLOCK
  8
0
  2
THERMALV
 70
64
 10
0.0000
 20
0.0000
 30
0.0000
  3
THERMALV
  0
LINE
  8
0
 10
-0.2379
 20
0.4500
 30
0.0000
 11
0.2379
 21
0.4500
 31
0.0000
  0
LINE
  8
0
 10
0.4500
 20
0.2379
 30
0.0000
 11
0.4500
 21
-0.2379
 31
0.0000
  0
LINE
  8
0
 10
0.2379
 20
-0.4500
 30
0.0000
 11
-0.2379
 21
-0.4500
 31
0.0000
  0
LINE
  8
0
 10
-0.4500
 20
-0.2379
 30
0.0000
 11
-0.4500
 21
0.2379
 31
0.0000
  0
ENDBLK
  8
0
  0
ENDSEC
  0
SECTION
  2
ENTITIES
  0
LINE
  8
20
 10
107.0000
 20
1.0000
 30
0.0000
 11
107.0000
 21
85.0000
 31
0.0000
  0
ARC
  8
20
 10
108.0000
 20
85.0000
 30
0.0000
 40
1.0000
 50
90.0000
 51
180.0000
  0
LINE
  8
20
 10
108.0000
 20
86.0000
 30
0.0000
 11
212.0000
 21
86.0000
 31
0.0000
  0
ARC
  8
20
 10
212.0000
 20
85.0000
 30
0.0000
 40
1.0000
 50
0.0000
 51
90.0000
  0
LINE
  8
20
 10
213.0000
 20
85.0000
 30
0.0000
 11
213.0000
 21
1.0000
 31
0.0000
  0
ARC
  8
20
 10
212.0000
 20
1.0000
 30
0.0000
 40
1.0000
 50
270.0000
 51
0.0000
  0
LINE
  8
20
 10
212.0000
 20
0.0000
 30
0.0000
 11
108.0000
 21
0.0000
 31
0.0000
  0
ARC
  8
20
 10
108.0000
 20
1.0000
 30
0.0000
 40
1.0000
 50
180.0000
 51
270.0000
  0
LINE
  8
20
 10
117.5000
 20
82.5000
 30
0.0000
 11
117.5000
 21
84.5000
 31
0.0000
  0
ARC
  8
20
 10
117.0000
 20
84.5000
 30
0.0000
 40
0.5000
 50
0.0000
 51
90.0000
  0
LINE
  8
20
 10
117.0000
 20
85.0000
 30
0.0000
 11
112.0000
 21
85.0000
 31
0.0000
  0
ARC
  8
20
 10
112.0000
 20
84.5000
 30
0.0000
 40
0.5000
 50
90.0000
 51
180.0000
  0
LINE
  8
20
 10
111.5000
 20
84.5000
 30
0.0000
 11
111.5000
 21
82.5000
 31
0.0000
  0
ARC
  8
20
 10
112.1250
 20
82.3750
 30
0.0000
 40
0.6374
 50
168.6901
 51
258.6901
  0
LINE
  8
20
 10
112.0000
 20
81.7500
 30
0.0000
 11
117.0000
 21
81.7500
 31
0.0000
  0
ARC
  8
20
 10
116.8750
 20
82.3750
 30
0.0000
 40
0.6374
 50
281.3099
 51
11.3099
  0
LINE
  8
20
 10
208.0000
 20
85.0000
 30
0.0000
 11
203.0000
 21
85.0000
 31
0.0000
  0
ARC
  8
20
 10
203.0000
 20
84.5000
 30
0.0000
 40
0.5000
 50
90.0000
 51
180.0000
  0
LINE
  8
20
 10
202.5000
 20
84.5000
 30
0.0000
 11
202.5000
 21
82.5000
 31
0.0000
  0
ARC
  8
20
 10
203.1250
 20
82.3750
 30
0.0000
 40
0.6374
 50
168.6901
 51
258.6901
  0
LINE
  8
20
 10
203.0000
 20
81.7500
 30
0.0000
 11
208.0000
 21
81.7500
 31
0.0000
  0
ARC
  8
20
 10
207.8750
 20
82.3750
 30
0.0000
 40
0.6374
 50
281.3099
 51
11.3099
  0
LINE
  8
20
 10
208.5000
 20
82.5000
 30
0.0000
 11
208.5000
 21
84.5000
 31
0.0000
  0
ARC
  8
20
 10
208.0000
 20
84.5000
 30
0.0000
 40
0.5000
 50
0.0000
 51
90.0000
  0
LINE
  8
20
 10
208.7500
 20
81.0000
 30
0.0000
 11
208.7500
 21
76.0000
 31
0.0000
  0
ARC
  8
20
 10
209.3750
 20
76.1250
 30
0.0000
 40
0.6374
 50
191.3099
 51
281.3099
  0
LINE
  8
20
 10
209.5000
 20
75.5000
 30
0.0000
 11
211.5000
 21
75.5000
 31
0.0000
  0
ARC
  8
20
 10
211.5000
 20
76.0000
 30
0.0000
 40
0.5000
 50
270.0000
 51
0.0000
  0
LINE
  8
20
 10
212.0000
 20
76.0000
 30
0.0000
 11
212.0000
 21
81.0000
 31
0.0000
  0
ARC
  8
20
 10
211.5000
 20
81.0000
 30
0.0000
 40
0.5000
 50
0.0000
 51
90.0000
  0
LINE
  8
20
 10
211.5000
 20
81.5000
 30
0.0000
 11
209.5000
 21
81.5000
 31
0.0000
  0
ARC
  8
20
 10
209.3750
 20
80.8750
 30
0.0000
 40
0.6374
 50
78.6901
 51
168.6901
  0
LINE
  8
20
 10
211.5000
 20
10.5000
 30
0.0000
 11
209.5000
 21
10.5000
 31
0.0000
  0
ARC
  8
20
 10
209.3750
 20
9.8750
 30
0.0000
 40
0.6374
 50
78.6901
 51
168.6901
  0
LINE
  8
20
 10
208.7500
 20
10.0000
 30
0.0000
 11
208.7500
 21
5.0000
 31
0.0000
  0
ARC
  8
20
 10
209.3750
 20
5.1250
 30
0.0000
 40
0.6374
 50
191.3099
 51
281.3099
  0
LINE
  8
20
 10
209.5000
 20
4.5000
 30
0.0000
 11
211.5000
 21
4.5000
 31
0.0000
  0
ARC
  8
20
 10
211.5000
 20
5.0000
 30
0.0000
 40
0.5000
 50
270.0000
 51
0.0000
  0
LINE
  8
20
 10
212.0000
 20
5.0000
 30
0.0000
 11
212.0000
 21
10.0000
 31
0.0000
  0
ARC
  8
20
 10
211.5000
 20
10.0000
 30
0.0000
 40
0.5000
 50
0.0000
 51
90.0000
  0
LINE
  8
20
 10
208.0000
 20
4.2500
 30
0.0000
 11
203.0000
 21
4.2500
 31
0.0000
  0
ARC
  8
20
 10
203.1250
 20
3.6250
 30
0.0000
 40
0.6374
 50
101.3099
 51
191.3099
  0
LINE
  8
20
 10
202.5000
 20
3.5000
 30
0.0000
 11
202.5000
 21
1.5000
 31
0.0000
  0
ARC
  8
20
 10
203.0000
 20
1.5000
 30
0.0000
 40
0.5000
 50
180.0000
 51
270.0000
  0
LINE
  8
20
 10
203.0000
 20
1.0000
 30
0.0000
 11
208.0000
 21
1.0000
 31
0.0000
  0
ARC
  8
20
 10
208.0000
 20
1.5000
 30
0.0000
 40
0.5000
 50
270.0000
 51
0.0000
  0
LINE
  8
20
 10
208.5000
 20
1.5000
 30
0.0000
 11
208.5000
 21
3.5000
 31
0.0000
  0
ARC
  8
20
 10
207.8750
 20
3.6250
 30
0.0000
 40
0.6374
 50
348.6901
 51
78.6901
  0
LINE
  8
20
 10
108.0000
 20
81.0000
 30
0.0000
 11
108.0000
 21
76.0000
 31
0.0000
  0
ARC
  8
20
 10
108.5000
 20
76.0000
 30
0.0000
 40
0.5000
 50
180.0000
 51
270.0000
  0
LINE
  8
20
 10
108.5000
 20
75.5000
 30
0.0000
 11
110.5000
 21
75.5000
 31
0.0000
  0
ARC
  8
20
 10
110.6250
 20
76.1250
 30
0.0000
 40
0.6374
 50
258.6901
 51
348.6901
  0
LINE
  8
20
 10
111.2500
 20
76.0000
 30
0.0000
 11
111.2500
 21
81.0000
 31
0.0000
  0
ARC
  8
20
 10
110.6250
 20
80.8750
 30
0.0000
 40
0.6374
 50
11.3099
 51
101.3099
  0
LINE
  8
20
 10
110.5000
 20
81.5000
 30
0.0000
 11
108.5000
 21
81.5000
 31
0.0000
  0
ARC
  8
20
 10
108.5000
 20
81.0000
 30
0.0000
 40
0.5000
 50
90.0000
 51
180.0000
  0
LINE
  8
20
 10
117.5000
 20
1.5000
 30
0.0000
 11
117.5000
 21
3.5000
 31
0.0000
  0
ARC
  8
20
 10
116.8750
 20
3.6250
 30
0.0000
 40
0.6374
 50
348.6901
 51
78.6901
  0
LINE
  8
20
 10
117.0000
 20
4.2500
 30
0.0000
 11
112.0000
 21
4.2500
 31
0.0000
  0
ARC
  8
20
 10
112.1250
 20
3.6250
 30
0.0000
 40
0.6374
 50
101.3099
 51
191.3099
  0
LINE
  8
20
 10
111.5000
 20
3.5000
 30
0.0000
 11
111.5000
 21
1.5000
 31
0.0000
  0
ARC
  8
20
 10
112.0000
 20
1.5000
 30
0.0000
 40
0.5000
 50
180.0000
 51
270.0000
  0
LINE
  8
20
 10
112.0000
 20
1.0000
 30
0.0000
 11
117.0000
 21
1.0000
 31
0.0000
  0
ARC
  8
20
 10
117.0000
 20
1.5000
 30
0.0000
 40
0.5000
 50
270.0000
 51
0.0000
  0
LINE
  8
20
 10
111.2500
 20
5.0000
 30
0.0000
 11
111.2500
 21
10.0000
 31
0.0000
  0
ARC
  8
20
 10
110.6250
 20
9.8750
 30
0.0000
 40
0.6374
 50
11.3099
 51
101.3099
  0
LINE
  8
20
 10
110.5000
 20
10.5000
 30
0.0000
 11
108.5000
 21
10.5000
 31
0.0000
  0
ARC
  8
20
 10
108.5000
 20
10.0000
 30
0.0000
 40
0.5000
 50
90.0000
 51
180.0000
  0
LINE
  8
20
 10
108.0000
 20
10.0000
 30
0.0000
 11
108.0000
 21
5.0000
 31
0.0000
  0
ARC
  8
20
 10
108.5000
 20
5.0000
 30
0.0000
 40
0.5000
 50
180.0000
 51
270.0000
  0
LINE
  8
20
 10
108.5000
 20
4.5000
 30
0.0000
 11
110.5000
 21
4.5000
 31
0.0000
  0
ARC
  8
20
 10
110.6250
 20
5.1250
 30
0.0000
 40
0.6374
 50
258.6901
 51
348.6901
  0
LINE
  8
20
 10
108.0000
 20
47.0000
 30
0.0000
 11
108.0000
 21
42.0000
 31
0.0000
  0
ARC
  8
20
 10
108.5000
 20
42.0000
 30
0.0000
 40
0.5000
 50
180.0000
 51
270.0000
  0
LINE
  8
20
 10
108.5000
 20
41.5000
 30
0.0000
 11
110.5000
 21
41.5000
 31
0.0000
  0
ARC
  8
20
 10
110.6250
 20
42.1250
 30
0.0000
 40
0.6374
 50
258.6901
 51
348.6901
  0
LINE
  8
20
 10
111.2500
 20
42.0000
 30
0.0000
 11
111.2500
 21
47.0000
 31
0.0000
  0
ARC
  8
20
 10
110.6250
 20
46.8750
 30
0.0000
 40
0.6374
 50
11.3099
 51
101.3099
  0
LINE
  8
20
 10
110.5000
 20
47.5000
 30
0.0000
 11
108.5000
 21
47.5000
 31
0.0000
  0
ARC
  8
20
 10
108.5000
 20
47.0000
 30
0.0000
 40
0.5000
 50
90.0000
 51
180.0000
  0
LINE
  8
20
 10
162.5000
 20
1.5000
 30
0.0000
 11
162.5000
 21
3.5000
 31
0.0000
  0
ARC
  8
20
 10
161.8750
 20
3.6250
 30
0.0000
 40
0.6374
 50
348.6901
 51
78.6901
  0
LINE
  8
20
 10
162.0000
 20
4.2500
 30
0.0000
 11
157.0000
 21
4.2500
 31
0.0000
  0
ARC
  8
20
 10
157.1250
 20
3.6250
 30
0.0000
 40
0.6374
 50
101.3099
 51
191.3099
  0
LINE
  8
20
 10
156.5000
 20
3.5000
 30
0.0000
 11
156.5000
 21
1.5000
 31
0.0000
  0
ARC
  8
20
 10
157.0000
 20
1.5000
 30
0.0000
 40
0.5000
 50
180.0000
 51
270.0000
  0
LINE
  8
20
 10
157.0000
 20
1.0000
 30
0.0000
 11
162.0000
 21
1.0000
 31
0.0000
  0
ARC
  8
20
 10
162.0000
 20
1.5000
 30
0.0000
 40
0.5000
 50
270.0000
 51
0.0000
  0
LINE
  8
20
 10
157.0000
 20
81.7500
 30
0.0000
 11
162.0000
 21
81.7500
 31
0.0000
  0
ARC
  8
20
 10
161.8750
 20
82.3750
 30
0.0000
 40
0.6374
 50
281.3099
 51
11.3099
  0
LINE
  8
20
 10
162.5000
 20
82.5000
 30
0.0000
 11
162.5000
 21
84.5000
 31
0.0000
  0
ARC
  8
20
 10
162.0000
 20
84.5000
 30
0.0000
 40
0.5000
 50
0.0000
 51
90.0000
  0
LINE
  8
20
 10
162.0000
 20
85.0000
 30
0.0000
 11
157.0000
 21
85.0000
 31
0.0000
  0
ARC
  8
20
 10
157.0000
 20
84.5000
 30
0.0000
 40
0.5000
 50
90.0000
 51
180.0000
  0
LINE
  8
20
 10
156.5000
 20
84.5000
 30
0.0000
 11
156.5000
 21
82.5000
 31
0.0000
  0
ARC
  8
20
 10
157.1250
 20
82.3750
 30
0.0000
 40
0.6374
 50
168.6901
 51
258.6901
  0
LINE
  8
20
 10
212.0000
 20
42.0000
 30
0.0000
 11
212.0000
 21
47.0000
 31
0.0000
  0
ARC
  8
20
 10
211.5000
 20
47.0000
 30
0.0000
 40
0.5000
 50
0.0000
 51
90.0000
  0
LINE
  8
20
 10
211.5000
 20
47.5000
 30
0.0000
 11
209.5000
 21
47.5000
 31
0.0000
  0
ARC
  8
20
 10
209.3750
 20
46.8750
 30
0.0000
 40
0.6374
 50
78.6901
 51
168.6901
  0
LINE
  8
20
 10
208.7500
 20
47.0000
 30
0.0000
 11
208.7500
 21
42.0000
 31
0.0000
  0
ARC
  8
20
 10
209.3750
 20
42.1250
 30
0.0000
 40
0.6374
 50
191.3099
 51
281.3099
  0
LINE
  8
20
 10
209.5000
 20
41.5000
 30
0.0000
 11
211.5000
 21
41.5000
 31
0.0000
  0
ARC
  8
20
 10
211.5000
 20
42.0000
 30
0.0000
 40
0.5000
 50
270.0000
 51
0.0000
  0
LINE
  8
20
 10
2.7500
 20
157.5000
 30
0.0000
 11
0.7500
 21
157.5000
 31
0.0000
  0
ARC
  8
20
 10
0.7500
 20
157.7500
 30
0.0000
 40
0.2500
 50
180.0000
 51
270.0000
  0
LINE
  8
20
 10
0.5000
 20
157.7500
 30
0.0000
 11
0.5000
 21
166.2500
 31
0.0000
  0
ARC
  8
20
 10
0.7500
 20
166.2500
 30
0.0000
 40
0.2500
 50
90.0000
 51
180.0000
  0
LINE
  8
20
 10
0.7500
 20
166.5000
 30
0.0000
 11
4.0000
 21
166.5000
 31
0.0000
  0
LINE
  8
20
 10
2.7500
 20
140.5000
 30
0.0000
 11
0.7500
 21
140.5000
 31
0.0000
  0
ARC
  8
20
 10
0.7500
 20
140.2500
 30
0.0000
 40
0.2500
 50
90.0000
 51
180.0000
  0
LINE
  8
20
 10
0.5000
 20
140.2500
 30
0.0000
 11
0.5000
 21
131.7500
 31
0.0000
  0
ARC
  8
20
 10
0.7500
 20
131.7500
 30
0.0000
 40
0.2500
 50
180.0000
 51
270.0000
  0
LINE
  8
20
 10
4.2500
 20
129.5000
 30
0.0000
 11
4.2500
 21
131.2500
 31
0.0000
  0
ARC
  8
20
 10
4.0000
 20
131.2500
 30
0.0000
 40
0.2500
 50
0.0000
 51
90.0000
  0
LINE
  8
20
 10
4.0000
 20
131.5000
 30
0.0000
 11
0.7500
 21
131.5000
 31
0.0000
  0
LINE
  8
20
 10
49.2500
 20
129.5000
 30
0.0000
 11
49.2500
 21
131.2500
 31
0.0000
  0
ARC
  8
20
 10
49.0000
 20
131.2500
 30
0.0000
 40
0.2500
 50
0.0000
 51
90.0000
  0
LINE
  8
20
 10
49.0000
 20
131.5000
 30
0.0000
 11
9.5000
 21
131.5000
 31
0.0000
  0
ARC
  8
20
 10
9.5000
 20
131.2500
 30
0.0000
 40
0.2500
 50
90.0000
 51
180.0000
  0
LINE
  8
20
 10
9.2500
 20
131.2500
 30
0.0000
 11
9.2500
 21
129.5000
 31
0.0000
  0
LINE
  8
20
 10
95.2500
 20
129.5000
 30
0.0000
 11
95.2500
 21
131.2500
 31
0.0000
  0
ARC
  8
20
 10
95.0000
 20
131.2500
 30
0.0000
 40
0.2500
 50
0.0000
 51
90.0000
  0
LINE
  8
20
 10
95.0000
 20
131.5000
 30
0.0000
 11
54.5000
 21
131.5000
 31
0.0000
  0
ARC
  8
20
 10
54.5000
 20
131.2500
 30
0.0000
 40
0.2500
 50
90.0000
 51
180.0000
  0
LINE
  8
20
 10
54.2500
 20
131.2500
 30
0.0000
 11
54.2500
 21
129.5000
 31
0.0000
  0
LINE
  8
20
 10
100.5000
 20
131.5000
 30
0.0000
 11
103.7500
 21
131.5000
 31
0.0000
  0
ARC
  8
20
 10
103.7500
 20
131.7500
 30
0.0000
 40
0.2500
 50
270.0000
 51
0.0000
  0
LINE
  8
20
 10
101.5000
 20
140.7500
 30
0.0000
 11
101.5000
 21
157.2500
 31
0.0000
  0
ARC
  8
20
 10
101.7500
 20
157.2500
 30
0.0000
 40
0.2500
 50
90.0000
 51
180.0000
  0
LINE
  8
20
 10
101.7500
 20
157.5000
 30
0.0000
 11
103.7500
 21
157.5000
 31
0.0000
  0
ARC
  8
20
 10
103.7500
 20
157.7500
 30
0.0000
 40
0.2500
 50
270.0000
 51
0.0000
  0
LINE
  8
20
 10
104.0000
 20
157.7500
 30
0.0000
 11
104.0000
 21
166.2500
 31
0.0000
  0
ARC
  8
20
 10
103.7500
 20
166.2500
 30
0.0000
 40
0.2500
 50
0.0000
 51
90.0000
  0
LINE
  8
20
 10
100.2500
 20
168.5000
 30
0.0000
 11
100.2500
 21
166.7500
 31
0.0000
  0
ARC
  8
20
 10
100.5000
 20
166.7500
 30
0.0000
 40
0.2500
 50
180.0000
 51
270.0000
  0
LINE
  8
20
 10
100.5000
 20
166.5000
 30
0.0000
 11
103.7500
 21
166.5000
 31
0.0000
  0
ARC
  8
20
 10
101.7500
 20
140.7500
 30
0.0000
 40
0.2500
 50
180.0000
 51
270.0000
  0
LINE
  8
20
 10
101.7500
 20
140.5000
 30
0.0000
 11
103.7500
 21
140.5000
 31
0.0000
  0
ARC
  8
20
 10
103.7500
 20
140.2500
 30
0.0000
 40
0.2500
 50
0.0000
 51
90.0000
  0
LINE
  8
20
 10
104.0000
 20
140.2500
 30
0.0000
 11
104.0000
 21
131.7500
 31
0.0000
  0
ARC
  8
20
 10
100.5000
 20
131.2500
 30
0.0000
 40
0.2500
 50
90.0000
 51
180.0000
  0
LINE
  8
20
 10
100.2500
 20
131.2500
 30
0.0000
 11
100.2500
 21
129.5000
 31
0.0000
  0
LINE
  8
20
 10
54.2500
 20
168.5000
 30
0.0000
 11
54.2500
 21
166.7500
 31
0.0000
  0
ARC
  8
20
 10
54.5000
 20
166.7500
 30
0.0000
 40
0.2500
 50
180.0000
 51
270.0000
  0
LINE
  8
20
 10
54.5000
 20
166.5000
 30
0.0000
 11
95.0000
 21
166.5000
 31
0.0000
  0
ARC
  8
20
 10
95.0000
 20
166.7500
 30
0.0000
 40
0.2500
 50
270.0000
 51
0.0000
  0
LINE
  8
20
 10
95.2500
 20
166.7500
 30
0.0000
 11
95.2500
 21
168.5000
 31
0.0000
  0
LINE
  8
20
 10
9.2500
 20
168.5000
 30
0.0000
 11
9.2500
 21
166.7500
 31
0.0000
  0
ARC
  8
20
 10
9.5000
 20
166.7500
 30
0.0000
 40
0.2500
 50
180.0000
 51
270.0000
  0
LINE
  8
20
 10
9.5000
 20
166.5000
 30
0.0000
 11
49.0000
 21
166.5000
 31
0.0000
  0
ARC
  8
20
 10
49.0000
 20
166.7500
 30
0.0000
 40
0.2500
 50
270.0000
 51
0.0000
  0
LINE
  8
20
 10
49.2500
 20
166.7500
 30
0.0000
 11
49.2500
 21
168.5000
 31
0.0000
  0
ARC
  8
20
 10
4.0000
 20
166.7500
 30
0.0000
 40
0.2500
 50
270.0000
 51
0.0000
  0
LINE
  8
20
 10
4.2500
 20
166.7500
 30
0.0000
 11
4.2500
 21
168.5000
 31
0.0000
  0
ARC
  8
20
 10
5.1250
 20
168.3750
 30
0.0000
 40
0.8839
 50
81.8699
 51
171.8699
  0
LINE
  8
20
 10
5.2500
 20
169.2500
 30
0.0000
 11
8.2500
 21
169.2500
 31
0.0000
  0
ARC
  8
20
 10
8.3750
 20
168.3750
 30
0.0000
 40
0.8839
 50
8.1301
 51
98.1301
  0
ARC
  8
20
 10
50.1250
 20
168.3750
 30
0.0000
 40
0.8839
 50
81.8699
 51
171.8699
  0
LINE
  8
20
 10
50.2500
 20
169.2500
 30
0.0000
 11
53.2500
 21
169.2500
 31
0.0000
  0
ARC
  8
20
 10
53.3750
 20
168.3750
 30
0.0000
 40
0.8839
 50
8.1301
 51
98.1301
  0
ARC
  8
20
 10
96.1250
 20
168.3750
 30
0.0000
 40
0.8839
 50
81.8699
 51
171.8699
  0
LINE
  8
20
 10
96.2500
 20
169.2500
 30
0.0000
 11
99.2500
 21
169.2500
 31
0.0000
  0
ARC
  8
20
 10
99.3750
 20
168.3750
 30
0.0000
 40
0.8839
 50
8.1301
 51
98.1301
  0
ARC
  8
20
 10
99.3750
 20
129.6250
 30
0.0000
 40
0.8839
 50
261.8699
 51
351.8699
  0
LINE
  8
20
 10
99.2500
 20
128.7500
 30
0.0000
 11
96.2500
 21
128.7500
 31
0.0000
  0
ARC
  8
20
 10
96.1250
 20
129.6250
 30
0.0000
 40
0.8839
 50
188.1301
 51
278.1301
  0
ARC
  8
20
 10
53.3750
 20
129.6250
 30
0.0000
 40
0.8839
 50
261.8699
 51
351.8699
  0
LINE
  8
20
 10
53.2500
 20
128.7500
 30
0.0000
 11
50.2500
 21
128.7500
 31
0.0000
  0
ARC
  8
20
 10
50.1250
 20
129.6250
 30
0.0000
 40
0.8839
 50
188.1301
 51
278.1301
  0
ARC
  8
20
 10
8.3750
 20
129.6250
 30
0.0000
 40
0.8839
 50
261.8699
 51
351.8699
  0
LINE
  8
20
 10
8.2500
 20
128.7500
 30
0.0000
 11
5.2500
 21
128.7500
 31
0.0000
  0
ARC
  8
20
 10
5.1250
 20
129.6250
 30
0.0000
 40
0.8839
 50
188.1301
 51
278.1301
  0
LINE
  8
20
 10
4.7500
 20
155.7500
 30
0.0000
 11
4.7500
 21
143.2500
 31
0.0000
  0
ARC
  8
20
 10
5.0000
 20
143.2500
 30
0.0000
 40
0.2500
 50
180.0000
 51
270.0000
  0
LINE
  8
20
 10
5.0000
 20
143.0000
 30
0.0000
 11
37.5000
 21
143.0000
 31
0.0000
  0
ARC
  8
20
 10
37.5000
 20
143.2500
 30
0.0000
 40
0.2500
 50
270.0000
 51
0.0000
  0
LINE
  8
20
 10
37.7500
 20
143.2500
 30
0.0000
 11
37.7500
 21
155.7500
 31
0.0000
  0
ARC
  8
20
 10
37.5000
 20
155.7500
 30
0.0000
 40
0.2500
 50
0.0000
 51
90.0000
  0
LINE
  8
20
 10
37.5000
 20
156.0000
 30
0.0000
 11
5.0000
 21
156.0000
 31
0.0000
  0
ARC
  8
20
 10
5.0000
 20
155.7500
 30
0.0000
 40
0.2500
 50
90.0000
 51
180.0000
  0
LINE
  8
20
 10
48.0000
 20
148.0000
 30
0.0000
 11
61.5000
 21
148.0000
 31
0.0000
  0
ARC
  8
20
 10
61.5000
 20
147.7500
 30
0.0000
 40
0.2500
 50
0.0000
 51
90.0000
  0
LINE
  8
20
 10
61.7500
 20
147.7500
 30
0.0000
 11
61.7500
 21
144.2500
 31
0.0000
  0
ARC
  8
20
 10
61.5000
 20
144.2500
 30
0.0000
 40
0.2500
 50
270.0000
 51
0.0000
  0
LINE
  8
20
 10
61.5000
 20
144.0000
 30
0.0000
 11
48.0000
 21
144.0000
 31
0.0000
  0
ARC
  8
20
 10
48.0000
 20
144.2500
 30
0.0000
 40
0.2500
 50
180.0000
 51
270.0000
  0
LINE
  8
20
 10
47.7500
 20
144.2500
 30
0.0000
 11
47.7500
 21
147.7500
 31
0.0000
  0
ARC
  8
20
 10
48.0000
 20
147.7500
 30
0.0000
 40
0.2500
 50
90.0000
 51
180.0000
  0
LINE
  8
20
 10
3.0000
 20
98.7500
 30
0.0000
 11
3.0000
 21
115.2500
 31
0.0000
  0
ARC
  8
20
 10
2.7500
 20
115.2500
 30
0.0000
 40
0.2500
 50
0.0000
 51
90.0000
  0
LINE
  8
20
 10
2.7500
 20
115.5000
 30
0.0000
 11
0.7500
 21
115.5000
 31
0.0000
  0
ARC
  8
20
 10
0.7500
 20
115.7500
 30
0.0000
 40
0.2500
 50
180.0000
 51
270.0000
  0
LINE
  8
20
 10
0.5000
 20
115.7500
 30
0.0000
 11
0.5000
 21
124.2500
 31
0.0000
  0
ARC
  8
20
 10
0.7500
 20
124.2500
 30
0.0000
 40
0.2500
 50
90.0000
 51
180.0000
  0
LINE
  8
20
 10
0.7500
 20
124.5000
 30
0.0000
 11
4.0000
 21
124.5000
 31
0.0000
  0
LINE
  8
20
 10
0.7500
 20
98.5000
 30
0.0000
 11
2.7500
 21
98.5000
 31
0.0000
  0
ARC
  8
20
 10
2.7500
 20
98.7500
 30
0.0000
 40
0.2500
 50
270.0000
 51
0.0000
  0
ARC
  8
20
 10
0.7500
 20
98.2500
 30
0.0000
 40
0.2500
 50
90.0000
 51
180.0000
  0
LINE
  8
20
 10
0.5000
 20
98.2500
 30
0.0000
 11
0.5000
 21
89.7500
 31
0.0000
  0
ARC
  8
20
 10
0.7500
 20
89.7500
 30
0.0000
 40
0.2500
 50
180.0000
 51
270.0000
  0
LINE
  8
20
 10
4.2500
 20
87.5000
 30
0.0000
 11
4.2500
 21
89.2500
 31
0.0000
  0
ARC
  8
20
 10
4.0000
 20
89.2500
 30
0.0000
 40
0.2500
 50
0.0000
 51
90.0000
  0
LINE
  8
20
 10
4.0000
 20
89.5000
 30
0.0000
 11
0.7500
 21
89.5000
 31
0.0000
  0
LINE
  8
20
 10
49.2500
 20
87.5000
 30
0.0000
 11
49.2500
 21
89.2500
 31
0.0000
  0
ARC
  8
20
 10
49.0000
 20
89.2500
 30
0.0000
 40
0.2500
 50
0.0000
 51
90.0000
  0
LINE
  8
20
 10
49.0000
 20
89.5000
 30
0.0000
 11
9.5000
 21
89.5000
 31
0.0000
  0
ARC
  8
20
 10
9.5000
 20
89.2500
 30
0.0000
 40
0.2500
 50
90.0000
 51
180.0000
  0
LINE
  8
20
 10
9.2500
 20
89.2500
 30
0.0000
 11
9.2500
 21
87.5000
 31
0.0000
  0
LINE
  8
20
 10
95.2500
 20
87.5000
 30
0.0000
 11
95.2500
 21
89.2500
 31
0.0000
  0
ARC
  8
20
 10
95.0000
 20
89.2500
 30
0.0000
 40
0.2500
 50
0.0000
 51
90.0000
  0
LINE
  8
20
 10
95.0000
 20
89.5000
 30
0.0000
 11
54.5000
 21
89.5000
 31
0.0000
  0
ARC
  8
20
 10
54.5000
 20
89.2500
 30
0.0000
 40
0.2500
 50
90.0000
 51
180.0000
  0
LINE
  8
20
 10
54.2500
 20
89.2500
 30
0.0000
 11
54.2500
 21
87.5000
 31
0.0000
  0
LINE
  8
20
 10
100.5000
 20
89.5000
 30
0.0000
 11
103.7500
 21
89.5000
 31
0.0000
  0
ARC
  8
20
 10
103.7500
 20
89.7500
 30
0.0000
 40
0.2500
 50
270.0000
 51
0.0000
  0
LINE
  8
20
 10
101.5000
 20
98.7500
 30
0.0000
 11
101.5000
 21
115.2500
 31
0.0000
  0
ARC
  8
20
 10
101.7500
 20
115.2500
 30
0.0000
 40
0.2500
 50
90.0000
 51
180.0000
  0
LINE
  8
20
 10
101.7500
 20
115.5000
 30
0.0000
 11
103.7500
 21
115.5000
 31
0.0000
  0
ARC
  8
20
 10
101.7500
 20
98.7500
 30
0.0000
 40
0.2500
 50
180.0000
 51
270.0000
  0
LINE
  8
20
 10
101.7500
 20
98.5000
 30
0.0000
 11
103.7500
 21
98.5000
 31
0.0000
  0
ARC
  8
20
 10
103.7500
 20
98.2500
 30
0.0000
 40
0.2500
 50
0.0000
 51
90.0000
  0
LINE
  8
20
 10
104.0000
 20
98.2500
 30
0.0000
 11
104.0000
 21
89.7500
 31
0.0000
  0
ARC
  8
20
 10
100.5000
 20
89.2500
 30
0.0000
 40
0.2500
 50
90.0000
 51
180.0000
  0
LINE
  8
20
 10
100.2500
 20
89.2500
 30
0.0000
 11
100.2500
 21
87.5000
 31
0.0000
  0
ARC
  8
20
 10
103.7500
 20
115.7500
 30
0.0000
 40
0.2500
 50
270.0000
 51
0.0000
  0
LINE
  8
20
 10
104.0000
 20
115.7500
 30
0.0000
 11
104.0000
 21
124.2500
 31
0.0000
  0
ARC
  8
20
 10
103.7500
 20
124.2500
 30
0.0000
 40
0.2500
 50
0.0000
 51
90.0000
  0
LINE
  8
20
 10
100.2500
 20
126.5000
 30
0.0000
 11
100.2500
 21
124.7500
 31
0.0000
  0
ARC
  8
20
 10
100.5000
 20
124.7500
 30
0.0000
 40
0.2500
 50
180.0000
 51
270.0000
  0
LINE
  8
20
 10
100.5000
 20
124.5000
 30
0.0000
 11
103.7500
 21
124.5000
 31
0.0000
  0
LINE
  8
20
 10
54.2500
 20
126.5000
 30
0.0000
 11
54.2500
 21
124.7500
 31
0.0000
  0
ARC
  8
20
 10
54.5000
 20
124.7500
 30
0.0000
 40
0.2500
 50
180.0000
 51
270.0000
  0
LINE
  8
20
 10
54.5000
 20
124.5000
 30
0.0000
 11
95.0000
 21
124.5000
 31
0.0000
  0
ARC
  8
20
 10
95.0000
 20
124.7500
 30
0.0000
 40
0.2500
 50
270.0000
 51
0.0000
  0
LINE
  8
20
 10
95.2500
 20
124.7500
 30
0.0000
 11
95.2500
 21
126.5000
 31
0.0000
  0
LINE
  8
20
 10
9.2500
 20
126.5000
 30
0.0000
 11
9.2500
 21
124.7500
 31
0.0000
  0
ARC
  8
20
 10
9.5000
 20
124.7500
 30
0.0000
 40
0.2500
 50
180.0000
 51
270.0000
  0
LINE
  8
20
 10
9.5000
 20
124.5000
 30
0.0000
 11
49.0000
 21
124.5000
 31
0.0000
  0
ARC
  8
20
 10
49.0000
 20
124.7500
 30
0.0000
 40
0.2500
 50
270.0000
 51
0.0000
  0
LINE
  8
20
 10
49.2500
 20
124.7500
 30
0.0000
 11
49.2500
 21
126.5000
 31
0.0000
  0
ARC
  8
20
 10
4.0000
 20
124.7500
 30
0.0000
 40
0.2500
 50
270.0000
 51
0.0000
  0
LINE
  8
20
 10
4.2500
 20
124.7500
 30
0.0000
 11
4.2500
 21
126.5000
 31
0.0000
  0
ARC
  8
20
 10
5.1250
 20
126.3750
 30
0.0000
 40
0.8839
 50
81.8699
 51
171.8699
  0
LINE
  8
20
 10
5.2500
 20
127.2500
 30
0.0000
 11
8.2500
 21
127.2500
 31
0.0000
  0
ARC
  8
20
 10
8.3750
 20
126.3750
 30
0.0000
 40
0.8839
 50
8.1301
 51
98.1301
  0
ARC
  8
20
 10
50.1250
 20
126.3750
 30
0.0000
 40
0.8839
 50
81.8699
 51
171.8699
  0
LINE
  8
20
 10
50.2500
 20
127.2500
 30
0.0000
 11
53.2500
 21
127.2500
 31
0.0000
  0
ARC
  8
20
 10
53.3750
 20
126.3750
 30
0.0000
 40
0.8839
 50
8.1301
 51
98.1301
  0
ARC
  8
20
 10
96.1250
 20
126.3750
 30
0.0000
 40
0.8839
 50
81.8699
 51
171.8699
  0
LINE
  8
20
 10
96.2500
 20
127.2500
 30
0.0000
 11
99.2500
 21
127.2500
 31
0.0000
  0
ARC
  8
20
 10
99.3750
 20
126.3750
 30
0.0000
 40
0.8839
 50
8.1301
 51
98.1301
  0
ARC
  8
20
 10
99.3750
 20
87.6250
 30
0.0000
 40
0.8839
 50
261.8699
 51
351.8699
  0
LINE
  8
20
 10
99.2500
 20
86.7500
 30
0.0000
 11
96.2500
 21
86.7500
 31
0.0000
  0
ARC
  8
20
 10
96.1250
 20
87.6250
 30
0.0000
 40
0.8839
 50
188.1301
 51
278.1301
  0
ARC
  8
20
 10
53.3750
 20
87.6250
 30
0.0000
 40
0.8839
 50
261.8699
 51
351.8699
  0
LINE
  8
20
 10
53.2500
 20
86.7500
 30
0.0000
 11
50.2500
 21
86.7500
 31
0.0000
  0
ARC
  8
20
 10
50.1250
 20
87.6250
 30
0.0000
 40
0.8839
 50
188.1301
 51
278.1301
  0
ARC
  8
20
 10
8.3750
 20
87.6250
 30
0.0000
 40
0.8839
 50
261.8699
 51
351.8699
  0
LINE
  8
20
 10
8.2500
 20
86.7500
 30
0.0000
 11
5.2500
 21
86.7500
 31
0.0000
  0
ARC
  8
20
 10
5.1250
 20
87.6250
 30
0.0000
 40
0.8839
 50
188.1301
 51
278.1301
  0
LINE
  8
20
 10
186.2500
 20
124.5000
 30
0.0000
 11
185.2500
 21
124.5000
 31
0.0000
  0
ARC
  8
20
 10
185.2500
 20
124.7500
 30
0.0000
 40
0.2500
 50
180.0000
 51
270.0000
  0
LINE
  8
20
 10
185.0000
 20
124.7500
 30
0.0000
 11
185.0000
 21
126.5000
 31
0.0000
  0
ARC
  8
20
 10
186.2500
 20
124.2500
 30
0.0000
 40
0.2500
 50
0.0000
 51
90.0000
  0
LINE
  8
20
 10
186.5000
 20
124.2500
 30
0.0000
 11
186.5000
 21
115.2500
 31
0.0000
  0
ARC
  8
20
 10
186.7500
 20
115.2500
 30
0.0000
 40
0.2500
 50
180.0000
 51
270.0000
  0
LINE
  8
20
 10
186.7500
 20
115.0000
 30
0.0000
 11
188.5000
 21
115.0000
 31
0.0000
  0
ARC
  8
20
 10
188.3750
 20
114.6250
 30
0.0000
 40
0.3953
 50
341.5651
 51
71.5651
  0
LINE
  8
20
 10
186.5000
 20
89.7500
 30
0.0000
 11
186.5000
 21
98.7500
 31
0.0000
  0
ARC
  8
20
 10
186.7500
 20
98.7500
 30
0.0000
 40
0.2500
 50
90.0000
 51
180.0000
  0
LINE
  8
20
 10
186.7500
 20
99.0000
 30
0.0000
 11
188.5000
 21
99.0000
 31
0.0000
  0
ARC
  8
20
 10
188.3750
 20
99.3750
 30
0.0000
 40
0.3953
 50
288.4349
 51
18.4349
  0
LINE
  8
20
 10
188.7500
 20
99.5000
 30
0.0000
 11
188.7500
 21
114.5000
 31
0.0000
  0
LINE
  8
20
 10
185.0000
 20
87.5000
 30
0.0000
 11
185.0000
 21
89.2500
 31
0.0000
  0
ARC
  8
20
 10
185.2500
 20
89.2500
 30
0.0000
 40
0.2500
 50
90.0000
 51
180.0000
  0
LINE
  8
20
 10
185.2500
 20
89.5000
 30
0.0000
 11
186.2500
 21
89.5000
 31
0.0000
  0
ARC
  8
20
 10
186.2500
 20
89.7500
 30
0.0000
 40
0.2500
 50
270.0000
 51
0.0000
  0
LINE
  8
20
 10
148.0000
 20
87.5000
 30
0.0000
 11
148.0000
 21
89.2500
 31
0.0000
  0
ARC
  8
20
 10
148.2500
 20
89.2500
 30
0.0000
 40
0.2500
 50
90.0000
 51
180.0000
  0
LINE
  8
20
 10
148.2500
 20
89.5000
 30
0.0000
 11
180.0000
 21
89.5000
 31
0.0000
  0
LINE
  8
20
 10
114.0000
 20
87.5000
 30
0.0000
 11
114.0000
 21
89.2500
 31
0.0000
  0
ARC
  8
20
 10
114.2500
 20
89.2500
 30
0.0000
 40
0.2500
 50
90.0000
 51
180.0000
  0
LINE
  8
20
 10
114.2500
 20
89.5000
 30
0.0000
 11
142.7500
 21
89.5000
 31
0.0000
  0
ARC
  8
20
 10
142.7500
 20
89.2500
 30
0.0000
 40
0.2500
 50
0.0000
 51
90.0000
  0
LINE
  8
20
 10
143.0000
 20
89.2500
 30
0.0000
 11
143.0000
 21
87.5000
 31
0.0000
  0
LINE
  8
20
 10
107.7500
 20
89.5000
 30
0.0000
 11
108.7500
 21
89.5000
 31
0.0000
  0
ARC
  8
20
 10
108.7500
 20
89.2500
 30
0.0000
 40
0.2500
 50
0.0000
 51
90.0000
  0
LINE
  8
20
 10
109.0000
 20
89.2500
 30
0.0000
 11
109.0000
 21
87.5000
 31
0.0000
  0
ARC
  8
20
 10
107.7500
 20
89.7500
 30
0.0000
 40
0.2500
 50
180.0000
 51
270.0000
  0
LINE
  8
20
 10
107.5000
 20
89.7500
 30
0.0000
 11
107.5000
 21
98.7500
 31
0.0000
  0
LINE
  8
20
 10
107.5000
 20
124.2500
 30
0.0000
 11
107.5000
 21
115.2500
 31
0.0000
  0
ARC
  8
20
 10
107.2500
 20
115.2500
 30
0.0000
 40
0.2500
 50
270.0000
 51
0.0000
  0
LINE
  8
20
 10
107.2500
 20
115.0000
 30
0.0000
 11
105.5000
 21
115.0000
 31
0.0000
  0
ARC
  8
20
 10
105.6250
 20
114.6250
 30
0.0000
 40
0.3953
 50
108.4349
 51
198.4349
  0
ARC
  8
20
 10
107.2500
 20
98.7500
 30
0.0000
 40
0.2500
 50
0.0000
 51
90.0000
  0
LINE
  8
20
 10
107.2500
 20
99.0000
 30
0.0000
 11
105.5000
 21
99.0000
 31
0.0000
  0
ARC
  8
20
 10
105.6250
 20
99.3750
 30
0.0000
 40
0.3953
 50
161.5651
 51
251.5651
  0
LINE
  8
20
 10
105.2500
 20
99.5000
 30
0.0000
 11
105.2500
 21
114.5000
 31
0.0000
  0
LINE
  8
20
 10
109.0000
 20
126.5000
 30
0.0000
 11
109.0000
 21
124.7500
 31
0.0000
  0
ARC
  8
20
 10
108.7500
 20
124.7500
 30
0.0000
 40
0.2500
 50
270.0000
 51
0.0000
  0
LINE
  8
20
 10
108.7500
 20
124.5000
 30
0.0000
 11
107.7500
 21
124.5000
 31
0.0000
  0
ARC
  8
20
 10
107.7500
 20
124.2500
 30
0.0000
 40
0.2500
 50
90.0000
 51
180.0000
  0
LINE
  8
20
 10
143.0000
 20
126.5000
 30
0.0000
 11
143.0000
 21
124.7500
 31
0.0000
  0
ARC
  8
20
 10
142.7500
 20
124.7500
 30
0.0000
 40
0.2500
 50
270.0000
 51
0.0000
  0
LINE
  8
20
 10
114.0000
 20
126.5000
 30
0.0000
 11
114.0000
 21
124.7500
 31
0.0000
  0
ARC
  8
20
 10
114.2500
 20
124.7500
 30
0.0000
 40
0.2500
 50
180.0000
 51
270.0000
  0
LINE
  8
20
 10
114.2500
 20
124.5000
 30
0.0000
 11
142.7500
 21
124.5000
 31
0.0000
  0
LINE
  8
20
 10
180.0000
 20
126.5000
 30
0.0000
 11
180.0000
 21
124.7500
 31
0.0000
  0
ARC
  8
20
 10
179.7500
 20
124.7500
 30
0.0000
 40
0.2500
 50
270.0000
 51
0.0000
  0
LINE
  8
20
 10
179.7500
 20
124.5000
 30
0.0000
 11
148.2500
 21
124.5000
 31
0.0000
  0
ARC
  8
20
 10
148.2500
 20
124.7500
 30
0.0000
 40
0.2500
 50
180.0000
 51
270.0000
  0
LINE
  8
20
 10
148.0000
 20
124.7500
 30
0.0000
 11
148.0000
 21
126.5000
 31
0.0000
  0
ARC
  8
20
 10
109.8750
 20
87.6250
 30
0.0000
 40
0.8839
 50
188.1301
 51
278.1301
  0
LINE
  8
20
 10
110.0000
 20
86.7500
 30
0.0000
 11
113.0000
 21
86.7500
 31
0.0000
  0
ARC
  8
20
 10
113.1250
 20
87.6250
 30
0.0000
 40
0.8839
 50
261.8699
 51
351.8699
  0
ARC
  8
20
 10
143.8750
 20
87.6250
 30
0.0000
 40
0.8839
 50
188.1301
 51
278.1301
  0
LINE
  8
20
 10
144.0000
 20
86.7500
 30
0.0000
 11
147.0000
 21
86.7500
 31
0.0000
  0
ARC
  8
20
 10
147.1250
 20
87.6250
 30
0.0000
 40
0.8839
 50
261.8699
 51
351.8699
  0
LINE
  8
20
 10
184.0000
 20
86.7500
 30
0.0000
 11
181.0000
 21
86.7500
 31
0.0000
  0
ARC
  8
20
 10
180.8750
 20
87.6250
 30
0.0000
 40
0.8839
 50
188.1301
 51
278.1301
  0
LINE
  8
20
 10
180.0000
 20
87.5000
 30
0.0000
 11
180.0000
 21
89.5000
 31
0.0000
  0
ARC
  8
20
 10
184.1250
 20
87.6250
 30
0.0000
 40
0.8839
 50
261.8699
 51
351.8699
  0
ARC
  8
20
 10
184.1250
 20
126.3750
 30
0.0000
 40
0.8839
 50
8.1301
 51
98.1301
  0
LINE
  8
20
 10
184.0000
 20
127.2500
 30
0.0000
 11
181.0000
 21
127.2500
 31
0.0000
  0
ARC
  8
20
 10
180.8750
 20
126.3750
 30
0.0000
 40
0.8839
 50
81.8699
 51
171.8699
  0
ARC
  8
20
 10
147.1250
 20
126.3750
 30
0.0000
 40
0.8839
 50
8.1301
 51
98.1301
  0
LINE
  8
20
 10
147.0000
 20
127.2500
 30
0.0000
 11
144.0000
 21
127.2500
 31
0.0000
  0
ARC
  8
20
 10
143.8750
 20
126.3750
 30
0.0000
 40
0.8839
 50
81.8699
 51
171.8699
  0
LINE
  8
20
 10
110.0000
 20
127.2500
 30
0.0000
 11
113.0000
 21
127.2500
 31
0.0000
  0
ARC
  8
20
 10
113.1250
 20
126.3750
 30
0.0000
 40
0.8839
 50
8.1301
 51
98.1301
  0
ARC
  8
20
 10
109.8750
 20
126.3750
 30
0.0000
 40
0.8839
 50
81.8699
 51
171.8699
  0
LINE
  8
20
 10
3.0000
 20
157.2500
 30
0.0000
 11
3.0000
 21
140.7500
 31
0.0000
  0
ARC
  8
20
 10
2.7500
 20
140.7500
 30
0.0000
 40
0.2500
 50
270.0000
 51
0.0000
  0
ARC
  8
20
 10
2.7500
 20
157.2500
 30
0.0000
 40
0.2500
 50
0.0000
 51
90.0000
  0
LINE
  8
20
 10
111.5000
 20
93.5000
 30
0.0000
 11
111.5000
 21
120.5000
 31
0.0000
  0
ARC
  8
20
 10
111.0000
 20
120.5000
 30
0.0000
 40
0.5000
 50
0.0000
 51
90.0000
  0
LINE
  8
20
 10
111.0000
 20
121.0000
 30
0.0000
 11
110.0000
 21
121.0000
 31
0.0000
  0
ARC
  8
20
 10
110.0000
 20
120.5000
 30
0.0000
 40
0.5000
 50
90.0000
 51
180.0000
  0
LINE
  8
20
 10
109.5000
 20
120.5000
 30
0.0000
 11
109.5000
 21
93.5000
 31
0.0000
  0
ARC
  8
20
 10
110.0000
 20
93.5000
 30
0.0000
 40
0.5000
 50
180.0000
 51
270.0000
  0
LINE
  8
20
 10
110.0000
 20
93.0000
 30
0.0000
 11
111.0000
 21
93.0000
 31
0.0000
  0
ARC
  8
20
 10
111.0000
 20
93.5000
 30
0.0000
 40
0.5000
 50
270.0000
 51
0.0000
  0
LINE
  8
20
 10
115.5000
 20
93.5000
 30
0.0000
 11
115.5000
 21
120.5000
 31
0.0000
  0
ARC
  8
20
 10
115.0000
 20
120.5000
 30
0.0000
 40
0.5000
 50
0.0000
 51
90.0000
  0
LINE
  8
20
 10
115.0000
 20
121.0000
 30
0.0000
 11
114.0000
 21
121.0000
 31
0.0000
  0
ARC
  8
20
 10
114.0000
 20
120.5000
 30
0.0000
 40
0.5000
 50
90.0000
 51
180.0000
  0
LINE
  8
20
 10
113.5000
 20
120.5000
 30
0.0000
 11
113.5000
 21
93.5000
 31
0.0000
  0
ARC
  8
20
 10
114.0000
 20
93.5000
 30
0.0000
 40
0.5000
 50
180.0000
 51
270.0000
  0
LINE
  8
20
 10
114.0000
 20
93.0000
 30
0.0000
 11
115.0000
 21
93.0000
 31
0.0000
  0
ARC
  8
20
 10
115.0000
 20
93.5000
 30
0.0000
 40
0.5000
 50
270.0000
 51
0.0000
  0
LINE
  8
20
 10
117.5000
 20
120.5000
 30
0.0000
 11
117.5000
 21
93.5000
 31
0.0000
  0
ARC
  8
20
 10
118.0000
 20
93.5000
 30
0.0000
 40
0.5000
 50
180.0000
 51
270.0000
  0
LINE
  8
20
 10
118.0000
 20
93.0000
 30
0.0000
 11
119.0000
 21
93.0000
 31
0.0000
  0
ARC
  8
20
 10
119.0000
 20
93.5000
 30
0.0000
 40
0.5000
 50
270.0000
 51
0.0000
  0
LINE
  8
20
 10
119.5000
 20
93.5000
 30
0.0000
 11
119.5000
 21
120.5000
 31
0.0000
  0
ARC
  8
20
 10
119.0000
 20
120.5000
 30
0.0000
 40
0.5000
 50
0.0000
 51
90.0000
  0
LINE
  8
20
 10
119.0000
 20
121.0000
 30
0.0000
 11
118.0000
 21
121.0000
 31
0.0000
  0
ARC
  8
20
 10
118.0000
 20
120.5000
 30
0.0000
 40
0.5000
 50
90.0000
 51
180.0000
  0
LINE
  8
20
 10
123.5000
 20
93.5000
 30
0.0000
 11
123.5000
 21
120.5000
 31
0.0000
  0
ARC
  8
20
 10
123.0000
 20
120.5000
 30
0.0000
 40
0.5000
 50
0.0000
 51
90.0000
  0
LINE
  8
20
 10
123.0000
 20
121.0000
 30
0.0000
 11
122.0000
 21
121.0000
 31
0.0000
  0
ARC
  8
20
 10
122.0000
 20
120.5000
 30
0.0000
 40
0.5000
 50
90.0000
 51
180.0000
  0
LINE
  8
20
 10
121.5000
 20
120.5000
 30
0.0000
 11
121.5000
 21
93.5000
 31
0.0000
  0
ARC
  8
20
 10
122.0000
 20
93.5000
 30
0.0000
 40
0.5000
 50
180.0000
 51
270.0000
  0
LINE
  8
20
 10
122.0000
 20
93.0000
 30
0.0000
 11
123.0000
 21
93.0000
 31
0.0000
  0
ARC
  8
20
 10
123.0000
 20
93.5000
 30
0.0000
 40
0.5000
 50
270.0000
 51
0.0000
  0
LINE
  8
20
 10
176.5000
 20
93.5000
 30
0.0000
 11
176.5000
 21
120.5000
 31
0.0000
  0
ARC
  8
20
 10
176.0000
 20
120.5000
 30
0.0000
 40
0.5000
 50
0.0000
 51
90.0000
  0
LINE
  8
20
 10
176.0000
 20
121.0000
 30
0.0000
 11
175.0000
 21
121.0000
 31
0.0000
  0
ARC
  8
20
 10
175.0000
 20
120.5000
 30
0.0000
 40
0.5000
 50
90.0000
 51
180.0000
  0
LINE
  8
20
 10
174.5000
 20
120.5000
 30
0.0000
 11
174.5000
 21
93.5000
 31
0.0000
  0
ARC
  8
20
 10
175.0000
 20
93.5000
 30
0.0000
 40
0.5000
 50
180.0000
 51
270.0000
  0
LINE
  8
20
 10
175.0000
 20
93.0000
 30
0.0000
 11
176.0000
 21
93.0000
 31
0.0000
  0
ARC
  8
20
 10
176.0000
 20
93.5000
 30
0.0000
 40
0.5000
 50
270.0000
 51
0.0000
  0
LINE
  8
20
 10
180.0000
 20
121.0000
 30
0.0000
 11
179.0000
 21
121.0000
 31
0.0000
  0
ARC
  8
20
 10
179.0000
 20
120.5000
 30
0.0000
 40
0.5000
 50
90.0000
 51
180.0000
  0
LINE
  8
20
 10
178.5000
 20
120.5000
 30
0.0000
 11
178.5000
 21
93.5000
 31
0.0000
  0
ARC
  8
20
 10
179.0000
 20
93.5000
 30
0.0000
 40
0.5000
 50
180.0000
 51
270.0000
  0
LINE
  8
20
 10
179.0000
 20
93.0000
 30
0.0000
 11
180.0000
 21
93.0000
 31
0.0000
  0
ARC
  8
20
 10
180.0000
 20
93.5000
 30
0.0000
 40
0.5000
 50
270.0000
 51
0.0000
  0
LINE
  8
20
 10
180.5000
 20
93.5000
 30
0.0000
 11
180.5000
 21
120.5000
 31
0.0000
  0
ARC
  8
20
 10
180.0000
 20
120.5000
 30
0.0000
 40
0.5000
 50
0.0000
 51
90.0000
  0
LINE
  8
20
 10
184.0000
 20
121.0000
 30
0.0000
 11
183.0000
 21
121.0000
 31
0.0000
  0
ARC
  8
20
 10
183.0000
 20
120.5000
 30
0.0000
 40
0.5000
 50
90.0000
 51
180.0000
  0
LINE
  8
20
 10
182.5000
 20
120.5000
 30
0.0000
 11
182.5000
 21
93.5000
 31
0.0000
  0
ARC
  8
20
 10
183.0000
 20
93.5000
 30
0.0000
 40
0.5000
 50
180.0000
 51
270.0000
  0
LINE
  8
20
 10
183.0000
 20
93.0000
 30
0.0000
 11
184.0000
 21
93.0000
 31
0.0000
  0
ARC
  8
20
 10
184.0000
 20
93.5000
 30
0.0000
 40
0.5000
 50
270.0000
 51
0.0000
  0
LINE
  8
20
 10
184.5000
 20
93.5000
 30
0.0000
 11
184.5000
 21
120.5000
 31
0.0000
  0
ARC
  8
20
 10
184.0000
 20
120.5000
 30
0.0000
 40
0.5000
 50
0.0000
 51
90.0000
  0
LINE
  8
20
 10
186.5000
 20
131.7500
 30
0.0000
 11
186.5000
 21
140.7500
 31
0.0000
  0
ARC
  8
20
 10
186.7500
 20
140.7500
 30
0.0000
 40
0.2500
 50
90.0000
 51
180.0000
  0
LINE
  8
20
 10
186.7500
 20
141.0000
 30
0.0000
 11
188.5000
 21
141.0000
 31
0.0000
  0
ARC
  8
20
 10
188.3750
 20
141.3750
 30
0.0000
 40
0.3953
 50
288.4349
 51
18.4349
  0
LINE
  8
20
 10
186.2500
 20
166.5000
 30
0.0000
 11
185.2500
 21
166.5000
 31
0.0000
  0
ARC
  8
20
 10
185.2500
 20
166.7500
 30
0.0000
 40
0.2500
 50
180.0000
 51
270.0000
  0
LINE
  8
20
 10
185.0000
 20
166.7500
 30
0.0000
 11
185.0000
 21
168.5000
 31
0.0000
  0
ARC
  8
20
 10
186.2500
 20
166.2500
 30
0.0000
 40
0.2500
 50
0.0000
 51
90.0000
  0
LINE
  8
20
 10
186.5000
 20
166.2500
 30
0.0000
 11
186.5000
 21
157.2500
 31
0.0000
  0
ARC
  8
20
 10
186.7500
 20
157.2500
 30
0.0000
 40
0.2500
 50
180.0000
 51
270.0000
  0
LINE
  8
20
 10
186.7500
 20
157.0000
 30
0.0000
 11
188.5000
 21
157.0000
 31
0.0000
  0
ARC
  8
20
 10
188.3750
 20
156.6250
 30
0.0000
 40
0.3953
 50
341.5651
 51
71.5651
  0
LINE
  8
20
 10
188.7500
 20
156.5000
 30
0.0000
 11
188.7500
 21
141.5000
 31
0.0000
  0
LINE
  8
20
 10
185.0000
 20
129.5000
 30
0.0000
 11
185.0000
 21
131.2500
 31
0.0000
  0
ARC
  8
20
 10
185.2500
 20
131.2500
 30
0.0000
 40
0.2500
 50
90.0000
 51
180.0000
  0
LINE
  8
20
 10
185.2500
 20
131.5000
 30
0.0000
 11
186.2500
 21
131.5000
 31
0.0000
  0
ARC
  8
20
 10
186.2500
 20
131.7500
 30
0.0000
 40
0.2500
 50
270.0000
 51
0.0000
  0
LINE
  8
20
 10
180.0000
 20
129.5000
 30
0.0000
 11
180.0000
 21
131.2500
 31
0.0000
  0
ARC
  8
20
 10
179.7500
 20
131.2500
 30
0.0000
 40
0.2500
 50
0.0000
 51
90.0000
  0
LINE
  8
20
 10
148.0000
 20
129.5000
 30
0.0000
 11
148.0000
 21
131.2500
 31
0.0000
  0
ARC
  8
20
 10
148.2500
 20
131.2500
 30
0.0000
 40
0.2500
 50
90.0000
 51
180.0000
  0
LINE
  8
20
 10
148.2500
 20
131.5000
 30
0.0000
 11
179.7500
 21
131.5000
 31
0.0000
  0
LINE
  8
20
 10
114.0000
 20
129.5000
 30
0.0000
 11
114.0000
 21
131.2500
 31
0.0000
  0
ARC
  8
20
 10
114.2500
 20
131.2500
 30
0.0000
 40
0.2500
 50
90.0000
 51
180.0000
  0
LINE
  8
20
 10
114.2500
 20
131.5000
 30
0.0000
 11
142.7500
 21
131.5000
 31
0.0000
  0
ARC
  8
20
 10
142.7500
 20
131.2500
 30
0.0000
 40
0.2500
 50
0.0000
 51
90.0000
  0
LINE
  8
20
 10
143.0000
 20
131.2500
 30
0.0000
 11
143.0000
 21
129.5000
 31
0.0000
  0
LINE
  8
20
 10
108.7500
 20
131.5000
 30
0.0000
 11
107.7500
 21
131.5000
 31
0.0000
  0
ARC
  8
20
 10
107.7500
 20
131.7500
 30
0.0000
 40
0.2500
 50
180.0000
 51
270.0000
  0
LINE
  8
20
 10
107.5000
 20
131.7500
 30
0.0000
 11
107.5000
 21
140.7500
 31
0.0000
  0
ARC
  8
20
 10
107.2500
 20
140.7500
 30
0.0000
 40
0.2500
 50
0.0000
 51
90.0000
  0
LINE
  8
20
 10
107.2500
 20
141.0000
 30
0.0000
 11
105.5000
 21
141.0000
 31
0.0000
  0
ARC
  8
20
 10
108.7500
 20
131.2500
 30
0.0000
 40
0.2500
 50
0.0000
 51
90.0000
  0
LINE
  8
20
 10
109.0000
 20
131.2500
 30
0.0000
 11
109.0000
 21
129.5000
 31
0.0000
  0
LINE
  8
20
 10
107.5000
 20
157.2500
 30
0.0000
 11
107.5000
 21
166.2500
 31
0.0000
  0
ARC
  8
20
 10
107.7500
 20
166.2500
 30
0.0000
 40
0.2500
 50
90.0000
 51
180.0000
  0
LINE
  8
20
 10
109.0000
 20
168.5000
 30
0.0000
 11
109.0000
 21
166.7500
 31
0.0000
  0
ARC
  8
20
 10
108.7500
 20
166.7500
 30
0.0000
 40
0.2500
 50
270.0000
 51
0.0000
  0
LINE
  8
20
 10
108.7500
 20
166.5000
 30
0.0000
 11
107.7500
 21
166.5000
 31
0.0000
  0
ARC
  8
20
 10
107.2500
 20
157.2500
 30
0.0000
 40
0.2500
 50
270.0000
 51
0.0000
  0
LINE
  8
20
 10
107.2500
 20
157.0000
 30
0.0000
 11
105.5000
 21
157.0000
 31
0.0000
  0
ARC
  8
20
 10
105.6250
 20
156.6250
 30
0.0000
 40
0.3953
 50
108.4349
 51
198.4349
  0
ARC
  8
20
 10
105.6250
 20
141.3750
 30
0.0000
 40
0.3953
 50
161.5651
 51
251.5651
  0
LINE
  8
20
 10
105.2500
 20
141.5000
 30
0.0000
 11
105.2500
 21
156.5000
 31
0.0000
  0
LINE
  8
20
 10
114.0000
 20
168.5000
 30
0.0000
 11
114.0000
 21
166.7500
 31
0.0000
  0
ARC
  8
20
 10
114.2500
 20
166.7500
 30
0.0000
 40
0.2500
 50
180.0000
 51
270.0000
  0
LINE
  8
20
 10
143.0000
 20
168.5000
 30
0.0000
 11
143.0000
 21
166.7500
 31
0.0000
  0
ARC
  8
20
 10
142.7500
 20
166.7500
 30
0.0000
 40
0.2500
 50
270.0000
 51
0.0000
  0
LINE
  8
20
 10
142.7500
 20
166.5000
 30
0.0000
 11
114.2500
 21
166.5000
 31
0.0000
  0
LINE
  8
20
 10
180.0000
 20
168.5000
 30
0.0000
 11
180.0000
 21
166.7500
 31
0.0000
  0
ARC
  8
20
 10
179.7500
 20
166.7500
 30
0.0000
 40
0.2500
 50
270.0000
 51
0.0000
  0
LINE
  8
20
 10
179.7500
 20
166.5000
 30
0.0000
 11
148.2500
 21
166.5000
 31
0.0000
  0
ARC
  8
20
 10
148.2500
 20
166.7500
 30
0.0000
 40
0.2500
 50
180.0000
 51
270.0000
  0
LINE
  8
20
 10
148.0000
 20
166.7500
 30
0.0000
 11
148.0000
 21
168.5000
 31
0.0000
  0
ARC
  8
20
 10
109.8750
 20
129.6250
 30
0.0000
 40
0.8839
 50
188.1301
 51
278.1301
  0
LINE
  8
20
 10
110.0000
 20
128.7500
 30
0.0000
 11
113.0000
 21
128.7500
 31
0.0000
  0
ARC
  8
20
 10
113.1250
 20
129.6250
 30
0.0000
 40
0.8839
 50
261.8699
 51
351.8699
  0
ARC
  8
20
 10
143.8750
 20
129.6250
 30
0.0000
 40
0.8839
 50
188.1301
 51
278.1301
  0
LINE
  8
20
 10
144.0000
 20
128.7500
 30
0.0000
 11
147.0000
 21
128.7500
 31
0.0000
  0
ARC
  8
20
 10
147.1250
 20
129.6250
 30
0.0000
 40
0.8839
 50
261.8699
 51
351.8699
  0
LINE
  8
20
 10
184.0000
 20
128.7500
 30
0.0000
 11
181.0000
 21
128.7500
 31
0.0000
  0
ARC
  8
20
 10
180.8750
 20
129.6250
 30
0.0000
 40
0.8839
 50
188.1301
 51
278.1301
  0
ARC
  8
20
 10
184.1250
 20
129.6250
 30
0.0000
 40
0.8839
 50
261.8699
 51
351.8699
  0
ARC
  8
20
 10
184.1250
 20
168.3750
 30
0.0000
 40
0.8839
 50
8.1301
 51
98.1301
  0
LINE
  8
20
 10
184.0000
 20
169.2500
 30
0.0000
 11
181.0000
 21
169.2500
 31
0.0000
  0
ARC
  8
20
 10
180.8750
 20
168.3750
 30
0.0000
 40
0.8839
 50
81.8699
 51
171.8699
  0
ARC
  8
20
 10
147.1250
 20
168.3750
 30
0.0000
 40
0.8839
 50
8.1301
 51
98.1301
  0
LINE
  8
20
 10
147.0000
 20
169.2500
 30
0.0000
 11
144.0000
 21
169.2500
 31
0.0000
  0
ARC
  8
20
 10
143.8750
 20
168.3750
 30
0.0000
 40
0.8839
 50
81.8699
 51
171.8699
  0
LINE
  8
20
 10
110.0000
 20
169.2500
 30
0.0000
 11
113.0000
 21
169.2500
 31
0.0000
  0
ARC
  8
20
 10
113.1250
 20
168.3750
 30
0.0000
 40
0.8839
 50
8.1301
 51
98.1301
  0
ARC
  8
20
 10
109.8750
 20
168.3750
 30
0.0000
 40
0.8839
 50
81.8699
 51
171.8699
  0
LINE
  8
20
 10
111.5000
 20
135.5000
 30
0.0000
 11
111.5000
 21
162.5000
 31
0.0000
  0
ARC
  8
20
 10
111.0000
 20
162.5000
 30
0.0000
 40
0.5000
 50
0.0000
 51
90.0000
  0
LINE
  8
20
 10
111.0000
 20
163.0000
 30
0.0000
 11
110.0000
 21
163.0000
 31
0.0000
  0
ARC
  8
20
 10
110.0000
 20
162.5000
 30
0.0000
 40
0.5000
 50
90.0000
 51
180.0000
  0
LINE
  8
20
 10
109.5000
 20
162.5000
 30
0.0000
 11
109.5000
 21
135.5000
 31
0.0000
  0
ARC
  8
20
 10
110.0000
 20
135.5000
 30
0.0000
 40
0.5000
 50
180.0000
 51
270.0000
  0
LINE
  8
20
 10
110.0000
 20
135.0000
 30
0.0000
 11
111.0000
 21
135.0000
 31
0.0000
  0
ARC
  8
20
 10
111.0000
 20
135.5000
 30
0.0000
 40
0.5000
 50
270.0000
 51
0.0000
  0
LINE
  8
20
 10
115.0000
 20
163.0000
 30
0.0000
 11
114.0000
 21
163.0000
 31
0.0000
  0
ARC
  8
20
 10
114.0000
 20
162.5000
 30
0.0000
 40
0.5000
 50
90.0000
 51
180.0000
  0
LINE
  8
20
 10
113.5000
 20
162.5000
 30
0.0000
 11
113.5000
 21
135.5000
 31
0.0000
  0
ARC
  8
20
 10
114.0000
 20
135.5000
 30
0.0000
 40
0.5000
 50
180.0000
 51
270.0000
  0
LINE
  8
20
 10
114.0000
 20
135.0000
 30
0.0000
 11
115.0000
 21
135.0000
 31
0.0000
  0
ARC
  8
20
 10
115.0000
 20
135.5000
 30
0.0000
 40
0.5000
 50
270.0000
 51
0.0000
  0
LINE
  8
20
 10
115.5000
 20
135.5000
 30
0.0000
 11
115.5000
 21
162.5000
 31
0.0000
  0
ARC
  8
20
 10
115.0000
 20
162.5000
 30
0.0000
 40
0.5000
 50
0.0000
 51
90.0000
  0
LINE
  8
20
 10
119.0000
 20
163.0000
 30
0.0000
 11
118.0000
 21
163.0000
 31
0.0000
  0
ARC
  8
20
 10
118.0000
 20
162.5000
 30
0.0000
 40
0.5000
 50
90.0000
 51
180.0000
  0
LINE
  8
20
 10
117.5000
 20
162.5000
 30
0.0000
 11
117.5000
 21
135.5000
 31
0.0000
  0
ARC
  8
20
 10
118.0000
 20
135.5000
 30
0.0000
 40
0.5000
 50
180.0000
 51
270.0000
  0
LINE
  8
20
 10
118.0000
 20
135.0000
 30
0.0000
 11
119.0000
 21
135.0000
 31
0.0000
  0
ARC
  8
20
 10
119.0000
 20
135.5000
 30
0.0000
 40
0.5000
 50
270.0000
 51
0.0000
  0
LINE
  8
20
 10
119.5000
 20
135.5000
 30
0.0000
 11
119.5000
 21
162.5000
 31
0.0000
  0
ARC
  8
20
 10
119.0000
 20
162.5000
 30
0.0000
 40
0.5000
 50
0.0000
 51
90.0000
  0
LINE
  8
20
 10
123.0000
 20
163.0000
 30
0.0000
 11
122.0000
 21
163.0000
 31
0.0000
  0
ARC
  8
20
 10
122.0000
 20
162.5000
 30
0.0000
 40
0.5000
 50
90.0000
 51
180.0000
  0
LINE
  8
20
 10
121.5000
 20
162.5000
 30
0.0000
 11
121.5000
 21
135.5000
 31
0.0000
  0
ARC
  8
20
 10
122.0000
 20
135.5000
 30
0.0000
 40
0.5000
 50
180.0000
 51
270.0000
  0
LINE
  8
20
 10
122.0000
 20
135.0000
 30
0.0000
 11
123.0000
 21
135.0000
 31
0.0000
  0
ARC
  8
20
 10
123.0000
 20
135.5000
 30
0.0000
 40
0.5000
 50
270.0000
 51
0.0000
  0
LINE
  8
20
 10
123.5000
 20
135.5000
 30
0.0000
 11
123.5000
 21
162.5000
 31
0.0000
  0
ARC
  8
20
 10
123.0000
 20
162.5000
 30
0.0000
 40
0.5000
 50
0.0000
 51
90.0000
  0
LINE
  8
20
 10
174.5000
 20
162.5000
 30
0.0000
 11
174.5000
 21
135.5000
 31
0.0000
  0
ARC
  8
20
 10
175.0000
 20
135.5000
 30
0.0000
 40
0.5000
 50
180.0000
 51
270.0000
  0
LINE
  8
20
 10
175.0000
 20
135.0000
 30
0.0000
 11
176.0000
 21
135.0000
 31
0.0000
  0
ARC
  8
20
 10
176.0000
 20
135.5000
 30
0.0000
 40
0.5000
 50
270.0000
 51
0.0000
  0
LINE
  8
20
 10
176.5000
 20
135.5000
 30
0.0000
 11
176.5000
 21
162.5000
 31
0.0000
  0
ARC
  8
20
 10
176.0000
 20
162.5000
 30
0.0000
 40
0.5000
 50
0.0000
 51
90.0000
  0
LINE
  8
20
 10
176.0000
 20
163.0000
 30
0.0000
 11
175.0000
 21
163.0000
 31
0.0000
  0
ARC
  8
20
 10
175.0000
 20
162.5000
 30
0.0000
 40
0.5000
 50
90.0000
 51
180.0000
  0
LINE
  8
20
 10
178.5000
 20
162.5000
 30
0.0000
 11
178.5000
 21
135.5000
 31
0.0000
  0
ARC
  8
20
 10
179.0000
 20
135.5000
 30
0.0000
 40
0.5000
 50
180.0000
 51
270.0000
  0
LINE
  8
20
 10
179.0000
 20
135.0000
 30
0.0000
 11
180.0000
 21
135.0000
 31
0.0000
  0
ARC
  8
20
 10
180.0000
 20
135.5000
 30
0.0000
 40
0.5000
 50
270.0000
 51
0.0000
  0
LINE
  8
20
 10
180.5000
 20
135.5000
 30
0.0000
 11
180.5000
 21
162.5000
 31
0.0000
  0
ARC
  8
20
 10
180.0000
 20
162.5000
 30
0.0000
 40
0.5000
 50
0.0000
 51
90.0000
  0
LINE
  8
20
 10
180.0000
 20
163.0000
 30
0.0000
 11
179.0000
 21
163.0000
 31
0.0000
  0
ARC
  8
20
 10
179.0000
 20
162.5000
 30
0.0000
 40
0.5000
 50
90.0000
 51
180.0000
  0
LINE
  8
20
 10
182.5000
 20
162.5000
 30
0.0000
 11
182.5000
 21
135.5000
 31
0.0000
  0
ARC
  8
20
 10
183.0000
 20
135.5000
 30
0.0000
 40
0.5000
 50
180.0000
 51
270.0000
  0
LINE
  8
20
 10
183.0000
 20
135.0000
 30
0.0000
 11
184.0000
 21
135.0000
 31
0.0000
  0
ARC
  8
20
 10
184.0000
 20
135.5000
 30
0.0000
 40
0.5000
 50
270.0000
 51
0.0000
  0
LINE
  8
20
 10
184.5000
 20
135.5000
 30
0.0000
 11
184.5000
 21
162.5000
 31
0.0000
  0
ARC
  8
20
 10
184.0000
 20
162.5000
 30
0.0000
 40
0.5000
 50
0.0000
 51
90.0000
  0
LINE
  8
20
 10
184.0000
 20
163.0000
 30
0.0000
 11
183.0000
 21
163.0000
 31
0.0000
  0
ARC
  8
20
 10
183.0000
 20
162.5000
 30
0.0000
 40
0.5000
 50
90.0000
 51
180.0000
  0
LINE
  8
20
 10
0.0000
 20
1.0000
 30
0.0000
 11
0.0000
 21
85.0000
 31
0.0000
  0
ARC
  8
20
 10
1.0000
 20
85.0000
 30
0.0000
 40
1.0000
 50
90.0000
 51
180.0000
  0
LINE
  8
20
 10
1.0000
 20
86.0000
 30
0.0000
 11
105.0000
 21
86.0000
 31
0.0000
  0
ARC
  8
20
 10
105.0000
 20
85.0000
 30
0.0000
 40
1.0000
 50
0.0000
 51
90.0000
  0
LINE
  8
20
 10
106.0000
 20
85.0000
 30
0.0000
 11
106.0000
 21
1.0000
 31
0.0000
  0
ARC
  8
20
 10
105.0000
 20
1.0000
 30
0.0000
 40
1.0000
 50
270.0000
 51
0.0000
  0
LINE
  8
20
 10
105.0000
 20
0.0000
 30
0.0000
 11
1.0000
 21
0.0000
 31
0.0000
  0
ARC
  8
20
 10
1.0000
 20
1.0000
 30
0.0000
 40
1.0000
 50
180.0000
 51
270.0000
  0
LINE
  8
20
 10
5.0000
 20
81.7500
 30
0.0000
 11
10.0000
 21
81.7500
 31
0.0000
  0
ARC
  8
20
 10
9.8750
 20
82.3750
 30
0.0000
 40
0.6374
 50
281.3099
 51
11.3099
  0
LINE
  8
20
 10
10.5000
 20
82.5000
 30
0.0000
 11
10.5000
 21
84.5000
 31
0.0000
  0
ARC
  8
20
 10
10.0000
 20
84.5000
 30
0.0000
 40
0.5000
 50
0.0000
 51
90.0000
  0
LINE
  8
20
 10
10.0000
 20
85.0000
 30
0.0000
 11
5.0000
 21
85.0000
 31
0.0000
  0
ARC
  8
20
 10
5.0000
 20
84.5000
 30
0.0000
 40
0.5000
 50
90.0000
 51
180.0000
  0
LINE
  8
20
 10
4.5000
 20
84.5000
 30
0.0000
 11
4.5000
 21
82.5000
 31
0.0000
  0
ARC
  8
20
 10
5.1250
 20
82.3750
 30
0.0000
 40
0.6374
 50
168.6901
 51
258.6901
  0
LINE
  8
20
 10
101.5000
 20
82.5000
 30
0.0000
 11
101.5000
 21
84.5000
 31
0.0000
  0
ARC
  8
20
 10
101.0000
 20
84.5000
 30
0.0000
 40
0.5000
 50
0.0000
 51
90.0000
  0
LINE
  8
20
 10
101.0000
 20
85.0000
 30
0.0000
 11
96.0000
 21
85.0000
 31
0.0000
  0
ARC
  8
20
 10
96.0000
 20
84.5000
 30
0.0000
 40
0.5000
 50
90.0000
 51
180.0000
  0
LINE
  8
20
 10
95.5000
 20
84.5000
 30
0.0000
 11
95.5000
 21
82.5000
 31
0.0000
  0
ARC
  8
20
 10
96.1250
 20
82.3750
 30
0.0000
 40
0.6374
 50
168.6901
 51
258.6901
  0
LINE
  8
20
 10
96.0000
 20
81.7500
 30
0.0000
 11
101.0000
 21
81.7500
 31
0.0000
  0
ARC
  8
20
 10
100.8750
 20
82.3750
 30
0.0000
 40
0.6374
 50
281.3099
 51
11.3099
  0
LINE
  8
20
 10
101.7500
 20
81.0000
 30
0.0000
 11
101.7500
 21
76.0000
 31
0.0000
  0
ARC
  8
20
 10
102.3750
 20
76.1250
 30
0.0000
 40
0.6374
 50
191.3099
 51
281.3099
  0
LINE
  8
20
 10
102.5000
 20
75.5000
 30
0.0000
 11
104.5000
 21
75.5000
 31
0.0000
  0
ARC
  8
20
 10
104.5000
 20
76.0000
 30
0.0000
 40
0.5000
 50
270.0000
 51
0.0000
  0
LINE
  8
20
 10
105.0000
 20
76.0000
 30
0.0000
 11
105.0000
 21
81.0000
 31
0.0000
  0
ARC
  8
20
 10
104.5000
 20
81.0000
 30
0.0000
 40
0.5000
 50
0.0000
 51
90.0000
  0
LINE
  8
20
 10
104.5000
 20
81.5000
 30
0.0000
 11
102.5000
 21
81.5000
 31
0.0000
  0
ARC
  8
20
 10
102.3750
 20
80.8750
 30
0.0000
 40
0.6374
 50
78.6901
 51
168.6901
  0
LINE
  8
20
 10
104.5000
 20
10.5000
 30
0.0000
 11
102.5000
 21
10.5000
 31
0.0000
  0
ARC
  8
20
 10
102.3750
 20
9.8750
 30
0.0000
 40
0.6374
 50
78.6901
 51
168.6901
  0
LINE
  8
20
 10
101.7500
 20
10.0000
 30
0.0000
 11
101.7500
 21
5.0000
 31
0.0000
  0
ARC
  8
20
 10
102.3750
 20
5.1250
 30
0.0000
 40
0.6374
 50
191.3099
 51
281.3099
  0
LINE
  8
20
 10
102.5000
 20
4.5000
 30
0.0000
 11
104.5000
 21
4.5000
 31
0.0000
  0
ARC
  8
20
 10
104.5000
 20
5.0000
 30
0.0000
 40
0.5000
 50
270.0000
 51
0.0000
  0
LINE
  8
20
 10
105.0000
 20
5.0000
 30
0.0000
 11
105.0000
 21
10.0000
 31
0.0000
  0
ARC
  8
20
 10
104.5000
 20
10.0000
 30
0.0000
 40
0.5000
 50
0.0000
 51
90.0000
  0
LINE
  8
20
 10
101.0000
 20
4.2500
 30
0.0000
 11
96.0000
 21
4.2500
 31
0.0000
  0
ARC
  8
20
 10
96.1250
 20
3.6250
 30
0.0000
 40
0.6374
 50
101.3099
 51
191.3099
  0
LINE
  8
20
 10
95.5000
 20
3.5000
 30
0.0000
 11
95.5000
 21
1.5000
 31
0.0000
  0
ARC
  8
20
 10
96.0000
 20
1.5000
 30
0.0000
 40
0.5000
 50
180.0000
 51
270.0000
  0
LINE
  8
20
 10
96.0000
 20
1.0000
 30
0.0000
 11
101.0000
 21
1.0000
 31
0.0000
  0
ARC
  8
20
 10
101.0000
 20
1.5000
 30
0.0000
 40
0.5000
 50
270.0000
 51
0.0000
  0
LINE
  8
20
 10
101.5000
 20
1.5000
 30
0.0000
 11
101.5000
 21
3.5000
 31
0.0000
  0
ARC
  8
20
 10
100.8750
 20
3.6250
 30
0.0000
 40
0.6374
 50
348.6901
 51
78.6901
  0
LINE
  8
20
 10
1.0000
 20
81.0000
 30
0.0000
 11
1.0000
 21
76.0000
 31
0.0000
  0
ARC
  8
20
 10
1.5000
 20
76.0000
 30
0.0000
 40
0.5000
 50
180.0000
 51
270.0000
  0
LINE
  8
20
 10
1.5000
 20
75.5000
 30
0.0000
 11
3.5000
 21
75.5000
 31
0.0000
  0
ARC
  8
20
 10
3.6250
 20
76.1250
 30
0.0000
 40
0.6374
 50
258.6901
 51
348.6901
  0
LINE
  8
20
 10
4.2500
 20
76.0000
 30
0.0000
 11
4.2500
 21
81.0000
 31
0.0000
  0
ARC
  8
20
 10
3.6250
 20
80.8750
 30
0.0000
 40
0.6374
 50
11.3099
 51
101.3099
  0
LINE
  8
20
 10
3.5000
 20
81.5000
 30
0.0000
 11
1.5000
 21
81.5000
 31
0.0000
  0
ARC
  8
20
 10
1.5000
 20
81.0000
 30
0.0000
 40
0.5000
 50
90.0000
 51
180.0000
  0
LINE
  8
20
 10
5.0000
 20
1.0000
 30
0.0000
 11
10.0000
 21
1.0000
 31
0.0000
  0
ARC
  8
20
 10
10.0000
 20
1.5000
 30
0.0000
 40
0.5000
 50
270.0000
 51
0.0000
  0
LINE
  8
20
 10
10.5000
 20
1.5000
 30
0.0000
 11
10.5000
 21
3.5000
 31
0.0000
  0
ARC
  8
20
 10
9.8750
 20
3.6250
 30
0.0000
 40
0.6374
 50
348.6901
 51
78.6901
  0
LINE
  8
20
 10
10.0000
 20
4.2500
 30
0.0000
 11
5.0000
 21
4.2500
 31
0.0000
  0
ARC
  8
20
 10
5.1250
 20
3.6250
 30
0.0000
 40
0.6374
 50
101.3099
 51
191.3099
  0
LINE
  8
20
 10
4.5000
 20
3.5000
 30
0.0000
 11
4.5000
 21
1.5000
 31
0.0000
  0
ARC
  8
20
 10
5.0000
 20
1.5000
 30
0.0000
 40
0.5000
 50
180.0000
 51
270.0000
  0
LINE
  8
20
 10
1.0000
 20
10.0000
 30
0.0000
 11
1.0000
 21
5.0000
 31
0.0000
  0
ARC
  8
20
 10
1.5000
 20
5.0000
 30
0.0000
 40
0.5000
 50
180.0000
 51
270.0000
  0
LINE
  8
20
 10
1.5000
 20
4.5000
 30
0.0000
 11
3.5000
 21
4.5000
 31
0.0000
  0
ARC
  8
20
 10
3.6250
 20
5.1250
 30
0.0000
 40
0.6374
 50
258.6901
 51
348.6901
  0
LINE
  8
20
 10
4.2500
 20
5.0000
 30
0.0000
 11
4.2500
 21
10.0000
 31
0.0000
  0
ARC
  8
20
 10
3.6250
 20
9.8750
 30
0.0000
 40
0.6374
 50
11.3099
 51
101.3099
  0
LINE
  8
20
 10
3.5000
 20
10.5000
 30
0.0000
 11
1.5000
 21
10.5000
 31
0.0000
  0
ARC
  8
20
 10
1.5000
 20
10.0000
 30
0.0000
 40
0.5000
 50
90.0000
 51
180.0000
  0
LINE
  8
20
 10
1.0000
 20
47.0000
 30
0.0000
 11
1.0000
 21
42.0000
 31
0.0000
  0
ARC
  8
20
 10
1.5000
 20
42.0000
 30
0.0000
 40
0.5000
 50
180.0000
 51
270.0000
  0
LINE
  8
20
 10
1.5000
 20
41.5000
 30
0.0000
 11
3.5000
 21
41.5000
 31
0.0000
  0
ARC
  8
20
 10
3.6250
 20
42.1250
 30
0.0000
 40
0.6374
 50
258.6901
 51
348.6901
  0
LINE
  8
20
 10
4.2500
 20
42.0000
 30
0.0000
 11
4.2500
 21
47.0000
 31
0.0000
  0
ARC
  8
20
 10
3.6250
 20
46.8750
 30
0.0000
 40
0.6374
 50
11.3099
 51
101.3099
  0
LINE
  8
20
 10
3.5000
 20
47.5000
 30
0.0000
 11
1.5000
 21
47.5000
 31
0.0000
  0
ARC
  8
20
 10
1.5000
 20
47.0000
 30
0.0000
 40
0.5000
 50
90.0000
 51
180.0000
  0
LINE
  8
20
 10
50.0000
 20
1.0000
 30
0.0000
 11
55.0000
 21
1.0000
 31
0.0000
  0
ARC
  8
20
 10
55.0000
 20
1.5000
 30
0.0000
 40
0.5000
 50
270.0000
 51
0.0000
  0
LINE
  8
20
 10
55.5000
 20
1.5000
 30
0.0000
 11
55.5000
 21
3.5000
 31
0.0000
  0
ARC
  8
20
 10
54.8750
 20
3.6250
 30
0.0000
 40
0.6374
 50
348.6901
 51
78.6901
  0
LINE
  8
20
 10
55.0000
 20
4.2500
 30
0.0000
 11
50.0000
 21
4.2500
 31
0.0000
  0
ARC
  8
20
 10
50.1250
 20
3.6250
 30
0.0000
 40
0.6374
 50
101.3099
 51
191.3099
  0
LINE
  8
20
 10
49.5000
 20
3.5000
 30
0.0000
 11
49.5000
 21
1.5000
 31
0.0000
  0
ARC
  8
20
 10
50.0000
 20
1.5000
 30
0.0000
 40
0.5000
 50
180.0000
 51
270.0000
  0
LINE
  8
20
 10
55.0000
 20
85.0000
 30
0.0000
 11
50.0000
 21
85.0000
 31
0.0000
  0
ARC
  8
20
 10
50.0000
 20
84.5000
 30
0.0000
 40
0.5000
 50
90.0000
 51
180.0000
  0
LINE
  8
20
 10
49.5000
 20
84.5000
 30
0.0000
 11
49.5000
 21
82.5000
 31
0.0000
  0
ARC
  8
20
 10
50.1250
 20
82.3750
 30
0.0000
 40
0.6374
 50
168.6901
 51
258.6901
  0
LINE
  8
20
 10
50.0000
 20
81.7500
 30
0.0000
 11
55.0000
 21
81.7500
 31
0.0000
  0
ARC
  8
20
 10
54.8750
 20
82.3750
 30
0.0000
 40
0.6374
 50
281.3099
 51
11.3099
  0
LINE
  8
20
 10
55.5000
 20
82.5000
 30
0.0000
 11
55.5000
 21
84.5000
 31
0.0000
  0
ARC
  8
20
 10
55.0000
 20
84.5000
 30
0.0000
 40
0.5000
 50
0.0000
 51
90.0000
  0
LINE
  8
20
 10
105.0000
 20
42.0000
 30
0.0000
 11
105.0000
 21
47.0000
 31
0.0000
  0
ARC
  8
20
 10
104.5000
 20
47.0000
 30
0.0000
 40
0.5000
 50
0.0000
 51
90.0000
  0
LINE
  8
20
 10
104.5000
 20
47.5000
 30
0.0000
 11
102.5000
 21
47.5000
 31
0.0000
  0
ARC
  8
20
 10
102.3750
 20
46.8750
 30
0.0000
 40
0.6374
 50
78.6901
 51
168.6901
  0
LINE
  8
20
 10
101.7500
 20
47.0000
 30
0.0000
 11
101.7500
 21
42.0000
 31
0.0000
  0
ARC
  8
20
 10
102.3750
 20
42.1250
 30
0.0000
 40
0.6374
 50
191.3099
 51
281.3099
  0
LINE
  8
20
 10
102.5000
 20
41.5000
 30
0.0000
 11
104.5000
 21
41.5000
 31
0.0000
  0
ARC
  8
20
 10
104.5000
 20
42.0000
 30
0.0000
 40
0.5000
 50
270.0000
 51
0.0000
  0
LINE
  8
20
 10
171.0000
 20
135.5000
 30
0.0000
 11
166.0000
 21
135.5000
 31
0.0000
  0
ARC
  8
20
 10
166.0000
 20
136.5000
 30
0.0000
 40
1.0000
 50
180.0000
 51
270.0000
  0
LINE
  8
20
 10
165.0000
 20
136.5000
 30
0.0000
 11
165.0000
 21
137.5000
 31
0.0000
  0
ARC
  8
20
 10
166.0000
 20
137.5000
 30
0.0000
 40
1.0000
 50
90.0000
 51
180.0000
  0
LINE
  8
20
 10
166.0000
 20
138.5000
 30
0.0000
 11
171.0000
 21
138.5000
 31
0.0000
  0
ARC
  8
20
 10
171.0000
 20
137.5000
 30
0.0000
 40
1.0000
 50
0.0000
 51
90.0000
  0
LINE
  8
20
 10
172.0000
 20
137.5000
 30
0.0000
 11
172.0000
 21
136.5000
 31
0.0000
  0
ARC
  8
20
 10
171.0000
 20
136.5000
 30
0.0000
 40
1.0000
 50
270.0000
 51
0.0000
  0
ARC
  8
20
 10
6.0000
 20
59.5000
 30
0.0000
 40
0.5000
 50
270.0000
 51
0.0000
  0
ARC
  8
20
 10
6.0000
 20
62.0000
 30
0.0000
 40
0.5000
 50
0.0000
 51
90.0000
  0
ARC
  8
20
 10
7.7500
 20
60.7500
 30
0.0000
 40
2.8504
 50
142.1250
 51
217.8750
  0
ARC
  8
20
 10
97.5000
 20
79.0000
 30
0.0000
 40
0.5000
 50
180.0000
 51
270.0000
  0
ARC
  8
20
 10
100.0000
 20
79.0000
 30
0.0000
 40
0.5000
 50
270.0000
 51
0.0000
  0
ARC
  8
20
 10
98.7500
 20
77.2500
 30
0.0000
 40
2.8504
 50
52.1250
 51
127.8750
  0
ARC
  8
20
 10
61.5000
 20
80.0000
 30
0.0000
 40
0.5000
 50
180.0000
 51
270.0000
  0
ARC
  8
20
 10
64.0000
 20
80.0000
 30
0.0000
 40
0.5000
 50
270.0000
 51
0.0000
  0
ARC
  8
20
 10
62.7500
 20
78.2500
 30
0.0000
 40
2.8504
 50
52.1250
 51
127.8750
  0
ARC
  8
20
 10
66.0000
 20
62.5000
 30
0.0000
 40
0.5000
 50
90.0000
 51
180.0000
  0
ARC
  8
20
 10
66.0000
 20
60.0000
 30
0.0000
 40
0.5000
 50
180.0000
 51
270.0000
  0
ARC
  8
20
 10
64.2500
 20
61.2500
 30
0.0000
 40
2.8504
 50
322.1250
 51
37.8750
  0
LINE
  8
20
 10
112.5000
 20
59.0000
 30
0.0000
 11
113.0000
 21
59.0000
 31
0.0000
  0
ARC
  8
20
 10
113.0000
 20
59.5000
 30
0.0000
 40
0.5000
 50
270.0000
 51
0.0000
  0
LINE
  8
20
 10
113.5000
 20
59.5000
 30
0.0000
 11
113.5000
 21
62.0000
 31
0.0000
  0
ARC
  8
20
 10
113.0000
 20
62.0000
 30
0.0000
 40
0.5000
 50
0.0000
 51
90.0000
  0
LINE
  8
20
 10
113.0000
 20
62.5000
 30
0.0000
 11
112.5000
 21
62.5000
 31
0.0000
  0
ARC
  8
20
 10
114.7500
 20
60.7500
 30
0.0000
 40
2.8504
 50
142.1250
 51
217.8750
  0
LINE
  8
20
 10
118.0000
 20
62.5000
 30
0.0000
 11
117.5000
 21
62.5000
 31
0.0000
  0
ARC
  8
20
 10
117.5000
 20
62.0000
 30
0.0000
 40
0.5000
 50
90.0000
 51
180.0000
  0
LINE
  8
20
 10
117.0000
 20
62.0000
 30
0.0000
 11
117.0000
 21
59.5000
 31
0.0000
  0
ARC
  8
20
 10
117.5000
 20
59.5000
 30
0.0000
 40
0.5000
 50
180.0000
 51
270.0000
  0
LINE
  8
20
 10
117.5000
 20
59.0000
 30
0.0000
 11
118.0000
 21
59.0000
 31
0.0000
  0
ARC
  8
20
 10
115.7500
 20
60.7500
 30
0.0000
 40
2.8504
 50
322.1250
 51
37.8750
  0
LINE
  8
20
 10
5.5000
 20
59.0000
 30
0.0000
 11
6.0000
 21
59.0000
 31
0.0000
  0
ARC
  8
20
 10
6.0000
 20
59.5000
 30
0.0000
 40
0.5000
 50
270.0000
 51
0.0000
  0
LINE
  8
20
 10
6.5000
 20
59.5000
 30
0.0000
 11
6.5000
 21
62.0000
 31
0.0000
  0
ARC
  8
20
 10
6.0000
 20
62.0000
 30
0.0000
 40
0.5000
 50
0.0000
 51
90.0000
  0
LINE
  8
20
 10
6.0000
 20
62.5000
 30
0.0000
 11
5.5000
 21
62.5000
 31
0.0000
  0
ARC
  8
20
 10
7.7500
 20
60.7500
 30
0.0000
 40
2.8504
 50
142.1250
 51
217.8750
  0
LINE
  8
20
 10
11.0000
 20
62.5000
 30
0.0000
 11
10.5000
 21
62.5000
 31
0.0000
  0
ARC
  8
20
 10
10.5000
 20
62.0000
 30
0.0000
 40
0.5000
 50
90.0000
 51
180.0000
  0
LINE
  8
20
 10
10.0000
 20
62.0000
 30
0.0000
 11
10.0000
 21
59.5000
 31
0.0000
  0
ARC
  8
20
 10
10.5000
 20
59.5000
 30
0.0000
 40
0.5000
 50
180.0000
 51
270.0000
  0
LINE
  8
20
 10
10.5000
 20
59.0000
 30
0.0000
 11
11.0000
 21
59.0000
 31
0.0000
  0
ARC
  8
20
 10
8.7500
 20
60.7500
 30
0.0000
 40
2.8504
 50
322.1250
 51
37.8750
  0
LINE
  8
20
 10
61.0000
 20
59.5000
 30
0.0000
 11
61.5000
 21
59.5000
 31
0.0000
  0
ARC
  8
20
 10
61.5000
 20
60.0000
 30
0.0000
 40
0.5000
 50
270.0000
 51
0.0000
  0
LINE
  8
20
 10
62.0000
 20
60.0000
 30
0.0000
 11
62.0000
 21
62.5000
 31
0.0000
  0
ARC
  8
20
 10
61.5000
 20
62.5000
 30
0.0000
 40
0.5000
 50
0.0000
 51
90.0000
  0
LINE
  8
20
 10
61.5000
 20
63.0000
 30
0.0000
 11
61.0000
 21
63.0000
 31
0.0000
  0
ARC
  8
20
 10
63.2500
 20
61.2500
 30
0.0000
 40
2.8504
 50
142.1250
 51
217.8750
  0
LINE
  8
20
 10
66.5000
 20
63.0000
 30
0.0000
 11
66.0000
 21
63.0000
 31
0.0000
  0
ARC
  8
20
 10
66.0000
 20
62.5000
 30
0.0000
 40
0.5000
 50
90.0000
 51
180.0000
  0
LINE
  8
20
 10
65.5000
 20
62.5000
 30
0.0000
 11
65.5000
 21
60.0000
 31
0.0000
  0
ARC
  8
20
 10
66.0000
 20
60.0000
 30
0.0000
 40
0.5000
 50
180.0000
 51
270.0000
  0
LINE
  8
20
 10
66.0000
 20
59.5000
 30
0.0000
 11
66.5000
 21
59.5000
 31
0.0000
  0
ARC
  8
20
 10
64.2500
 20
61.2500
 30
0.0000
 40
2.8504
 50
322.1250
 51
37.8750
  0
LINE
  8
20
 10
64.5000
 20
75.0000
 30
0.0000
 11
64.5000
 21
75.5000
 31
0.0000
  0
ARC
  8
20
 10
64.0000
 20
75.5000
 30
0.0000
 40
0.5000
 50
0.0000
 51
90.0000
  0
LINE
  8
20
 10
64.0000
 20
76.0000
 30
0.0000
 11
61.5000
 21
76.0000
 31
0.0000
  0
ARC
  8
20
 10
61.5000
 20
75.5000
 30
0.0000
 40
0.5000
 50
90.0000
 51
180.0000
  0
LINE
  8
20
 10
61.0000
 20
75.5000
 30
0.0000
 11
61.0000
 21
75.0000
 31
0.0000
  0
ARC
  8
20
 10
62.7500
 20
77.2500
 30
0.0000
 40
2.8504
 50
232.1250
 51
307.8750
  0
LINE
  8
20
 10
61.0000
 20
80.5000
 30
0.0000
 11
61.0000
 21
80.0000
 31
0.0000
  0
ARC
  8
20
 10
61.5000
 20
80.0000
 30
0.0000
 40
0.5000
 50
180.0000
 51
270.0000
  0
LINE
  8
20
 10
61.5000
 20
79.5000
 30
0.0000
 11
64.0000
 21
79.5000
 31
0.0000
  0
ARC
  8
20
 10
64.0000
 20
80.0000
 30
0.0000
 40
0.5000
 50
270.0000
 51
0.0000
  0
LINE
  8
20
 10
64.5000
 20
80.0000
 30
0.0000
 11
64.5000
 21
80.5000
 31
0.0000
  0
ARC
  8
20
 10
62.7500
 20
78.2500
 30
0.0000
 40
2.8504
 50
52.1250
 51
127.8750
  0
LINE
  8
20
 10
171.5000
 20
74.0000
 30
0.0000
 11
171.5000
 21
74.5000
 31
0.0000
  0
ARC
  8
20
 10
171.0000
 20
74.5000
 30
0.0000
 40
0.5000
 50
0.0000
 51
90.0000
  0
LINE
  8
20
 10
171.0000
 20
75.0000
 30
0.0000
 11
168.5000
 21
75.0000
 31
0.0000
  0
ARC
  8
20
 10
168.5000
 20
74.5000
 30
0.0000
 40
0.5000
 50
90.0000
 51
180.0000
  0
LINE
  8
20
 10
168.0000
 20
74.5000
 30
0.0000
 11
168.0000
 21
74.0000
 31
0.0000
  0
ARC
  8
20
 10
169.7500
 20
76.2500
 30
0.0000
 40
2.8504
 50
232.1250
 51
307.8750
  0
LINE
  8
20
 10
168.0000
 20
79.5000
 30
0.0000
 11
168.0000
 21
79.0000
 31
0.0000
  0
ARC
  8
20
 10
168.5000
 20
79.0000
 30
0.0000
 40
0.5000
 50
180.0000
 51
270.0000
  0
LINE
  8
20
 10
168.5000
 20
78.5000
 30
0.0000
 11
171.0000
 21
78.5000
 31
0.0000
  0
ARC
  8
20
 10
171.0000
 20
79.0000
 30
0.0000
 40
0.5000
 50
270.0000
 51
0.0000
  0
LINE
  8
20
 10
171.5000
 20
79.0000
 30
0.0000
 11
171.5000
 21
79.5000
 31
0.0000
  0
ARC
  8
20
 10
169.7500
 20
77.2500
 30
0.0000
 40
2.8504
 50
52.1250
 51
127.8750
  0
LINE
  8
20
 10
207.0000
 20
73.5000
 30
0.0000
 11
207.0000
 21
74.0000
 31
0.0000
  0
ARC
  8
20
 10
206.5000
 20
74.0000
 30
0.0000
 40
0.5000
 50
0.0000
 51
90.0000
  0
LINE
  8
20
 10
206.5000
 20
74.5000
 30
0.0000
 11
204.0000
 21
74.5000
 31
0.0000
  0
ARC
  8
20
 10
204.0000
 20
74.0000
 30
0.0000
 40
0.5000
 50
90.0000
 51
180.0000
  0
LINE
  8
20
 10
203.5000
 20
74.0000
 30
0.0000
 11
203.5000
 21
73.5000
 31
0.0000
  0
ARC
  8
20
 10
205.2500
 20
75.7500
 30
0.0000
 40
2.8504
 50
232.1250
 51
307.8750
  0
LINE
  8
20
 10
203.5000
 20
79.0000
 30
0.0000
 11
203.5000
 21
78.5000
 31
0.0000
  0
ARC
  8
20
 10
204.0000
 20
78.5000
 30
0.0000
 40
0.5000
 50
180.0000
 51
270.0000
  0
LINE
  8
20
 10
204.0000
 20
78.0000
 30
0.0000
 11
206.5000
 21
78.0000
 31
0.0000
  0
ARC
  8
20
 10
206.5000
 20
78.5000
 30
0.0000
 40
0.5000
 50
270.0000
 51
0.0000
  0
LINE
  8
20
 10
207.0000
 20
78.5000
 30
0.0000
 11
207.0000
 21
79.0000
 31
0.0000
  0
ARC
  8
20
 10
205.2500
 20
76.7500
 30
0.0000
 40
2.8504
 50
52.1250
 51
127.8750
  0
LINE
  8
20
 10
100.5000
 20
74.0000
 30
0.0000
 11
100.5000
 21
74.5000
 31
0.0000
  0
ARC
  8
20
 10
100.0000
 20
74.5000
 30
0.0000
 40
0.5000
 50
0.0000
 51
90.0000
  0
LINE
  8
20
 10
100.0000
 20
75.0000
 30
0.0000
 11
97.5000
 21
75.0000
 31
0.0000
  0
ARC
  8
20
 10
97.5000
 20
74.5000
 30
0.0000
 40
0.5000
 50
90.0000
 51
180.0000
  0
LINE
  8
20
 10
97.0000
 20
74.5000
 30
0.0000
 11
97.0000
 21
74.0000
 31
0.0000
  0
ARC
  8
20
 10
98.7500
 20
76.2500
 30
0.0000
 40
2.8504
 50
232.1250
 51
307.8750
  0
LINE
  8
20
 10
97.0000
 20
79.5000
 30
0.0000
 11
97.0000
 21
79.0000
 31
0.0000
  0
ARC
  8
20
 10
97.5000
 20
79.0000
 30
0.0000
 40
0.5000
 50
180.0000
 51
270.0000
  0
LINE
  8
20
 10
97.5000
 20
78.5000
 30
0.0000
 11
100.0000
 21
78.5000
 31
0.0000
  0
ARC
  8
20
 10
100.0000
 20
79.0000
 30
0.0000
 40
0.5000
 50
270.0000
 51
0.0000
  0
LINE
  8
20
 10
100.5000
 20
79.0000
 30
0.0000
 11
100.5000
 21
79.5000
 31
0.0000
  0
ARC
  8
20
 10
98.7500
 20
77.2500
 30
0.0000
 40
2.8504
 50
52.1250
 51
127.8750
  0
LINE
  8
20
 10
181.5000
 20
5.0000
 30
0.0000
 11
181.5000
 21
5.5000
 31
0.0000
  0
ARC
  8
20
 10
181.0000
 20
5.5000
 30
0.0000
 40
0.5000
 50
0.0000
 51
90.0000
  0
LINE
  8
20
 10
181.0000
 20
6.0000
 30
0.0000
 11
178.5000
 21
6.0000
 31
0.0000
  0
ARC
  8
20
 10
178.5000
 20
5.5000
 30
0.0000
 40
0.5000
 50
90.0000
 51
180.0000
  0
LINE
  8
20
 10
178.0000
 20
5.5000
 30
0.0000
 11
178.0000
 21
5.0000
 31
0.0000
  0
ARC
  8
20
 10
179.7500
 20
7.2500
 30
0.0000
 40
2.8504
 50
232.1250
 51
307.8750
  0
LINE
  8
20
 10
178.0000
 20
10.5000
 30
0.0000
 11
178.0000
 21
10.0000
 31
0.0000
  0
ARC
  8
20
 10
178.5000
 20
10.0000
 30
0.0000
 40
0.5000
 50
180.0000
 51
270.0000
  0
LINE
  8
20
 10
178.5000
 20
9.5000
 30
0.0000
 11
181.0000
 21
9.5000
 31
0.0000
  0
ARC
  8
20
 10
181.0000
 20
10.0000
 30
0.0000
 40
0.5000
 50
270.0000
 51
0.0000
  0
LINE
  8
20
 10
181.5000
 20
10.0000
 30
0.0000
 11
181.5000
 21
10.5000
 31
0.0000
  0
ARC
  8
20
 10
179.7500
 20
8.2500
 30
0.0000
 40
2.8504
 50
52.1250
 51
127.8750
  0
LINE
  8
20
 10
201.5000
 20
15.0000
 30
0.0000
 11
202.0000
 21
15.0000
 31
0.0000
  0
ARC
  8
20
 10
202.0000
 20
15.5000
 30
0.0000
 40
0.5000
 50
270.0000
 51
0.0000
  0
LINE
  8
20
 10
202.5000
 20
15.5000
 30
0.0000
 11
202.5000
 21
18.0000
 31
0.0000
  0
ARC
  8
20
 10
202.0000
 20
18.0000
 30
0.0000
 40
0.5000
 50
0.0000
 51
90.0000
  0
LINE
  8
20
 10
202.0000
 20
18.5000
 30
0.0000
 11
201.5000
 21
18.5000
 31
0.0000
  0
ARC
  8
20
 10
203.7500
 20
16.7500
 30
0.0000
 40
2.8504
 50
142.1250
 51
217.8750
  0
LINE
  8
20
 10
207.0000
 20
18.5000
 30
0.0000
 11
206.5000
 21
18.5000
 31
0.0000
  0
ARC
  8
20
 10
206.5000
 20
18.0000
 30
0.0000
 40
0.5000
 50
90.0000
 51
180.0000
  0
LINE
  8
20
 10
206.0000
 20
18.0000
 30
0.0000
 11
206.0000
 21
15.5000
 31
0.0000
  0
ARC
  8
20
 10
206.5000
 20
15.5000
 30
0.0000
 40
0.5000
 50
180.0000
 51
270.0000
  0
LINE
  8
20
 10
206.5000
 20
15.0000
 30
0.0000
 11
207.0000
 21
15.0000
 31
0.0000
  0
ARC
  8
20
 10
204.7500
 20
16.7500
 30
0.0000
 40
2.8504
 50
322.1250
 51
37.8750
  0
LINE
  8
20
 10
94.5000
 20
15.0000
 30
0.0000
 11
95.0000
 21
15.0000
 31
0.0000
  0
ARC
  8
20
 10
95.0000
 20
15.5000
 30
0.0000
 40
0.5000
 50
270.0000
 51
0.0000
  0
LINE
  8
20
 10
95.5000
 20
15.5000
 30
0.0000
 11
95.5000
 21
18.0000
 31
0.0000
  0
ARC
  8
20
 10
95.0000
 20
18.0000
 30
0.0000
 40
0.5000
 50
0.0000
 51
90.0000
  0
LINE
  8
20
 10
95.0000
 20
18.5000
 30
0.0000
 11
94.5000
 21
18.5000
 31
0.0000
  0
ARC
  8
20
 10
96.7500
 20
16.7500
 30
0.0000
 40
2.8504
 50
142.1250
 51
217.8750
  0
LINE
  8
20
 10
100.0000
 20
18.5000
 30
0.0000
 11
99.5000
 21
18.5000
 31
0.0000
  0
ARC
  8
20
 10
99.5000
 20
18.0000
 30
0.0000
 40
0.5000
 50
90.0000
 51
180.0000
  0
LINE
  8
20
 10
99.0000
 20
18.0000
 30
0.0000
 11
99.0000
 21
15.5000
 31
0.0000
  0
ARC
  8
20
 10
99.5000
 20
15.5000
 30
0.0000
 40
0.5000
 50
180.0000
 51
270.0000
  0
LINE
  8
20
 10
99.5000
 20
15.0000
 30
0.0000
 11
100.0000
 21
15.0000
 31
0.0000
  0
ARC
  8
20
 10
97.7500
 20
16.7500
 30
0.0000
 40
2.8504
 50
322.1250
 51
37.8750
  0
LINE
  8
20
 10
74.0000
 20
6.0000
 30
0.0000
 11
74.0000
 21
6.5000
 31
0.0000
  0
ARC
  8
20
 10
73.5000
 20
6.5000
 30
0.0000
 40
0.5000
 50
0.0000
 51
90.0000
  0
LINE
  8
20
 10
73.5000
 20
7.0000
 30
0.0000
 11
71.0000
 21
7.0000
 31
0.0000
  0
ARC
  8
20
 10
71.0000
 20
6.5000
 30
0.0000
 40
0.5000
 50
90.0000
 51
180.0000
  0
LINE
  8
20
 10
70.5000
 20
6.5000
 30
0.0000
 11
70.5000
 21
6.0000
 31
0.0000
  0
ARC
  8
20
 10
72.2500
 20
8.2500
 30
0.0000
 40
2.8504
 50
232.1250
 51
307.8750
  0
LINE
  8
20
 10
70.5000
 20
11.5000
 30
0.0000
 11
70.5000
 21
11.0000
 31
0.0000
  0
ARC
  8
20
 10
71.0000
 20
11.0000
 30
0.0000
 40
0.5000
 50
180.0000
 51
270.0000
  0
LINE
  8
20
 10
71.0000
 20
10.5000
 30
0.0000
 11
73.5000
 21
10.5000
 31
0.0000
  0
ARC
  8
20
 10
73.5000
 20
11.0000
 30
0.0000
 40
0.5000
 50
270.0000
 51
0.0000
  0
LINE
  8
20
 10
74.0000
 20
11.0000
 30
0.0000
 11
74.0000
 21
11.5000
 31
0.0000
  0
ARC
  8
20
 10
72.2500
 20
9.2500
 30
0.0000
 40
2.8504
 50
52.1250
 51
127.8750
  0
CIRCLE
  8
20
 10
88.7500
 20
146.0000
 30
0.0000
 40
1.0000
  0
CIRCLE
  8
20
 10
91.7500
 20
146.0000
 30
0.0000
 40
1.0000
  0
CIRCLE
  8
20
 10
94.7500
 20
146.0000
 30
0.0000
 40
1.0000
  0
CIRCLE
  8
20
 10
133.5000
 20
112.0000
 30
0.0000
 40
4.0000
  0
CIRCLE
  8
20
 10
8.5000
 20
78.5000
 30
0.0000
 40
1.0000
  0
CIRCLE
  8
20
 10
80.5000
 20
8.7500
 30
0.0000
 40
2.5000
  0
CIRCLE
  8
20
 10
125.5000
 20
78.5000
 30
0.0000
 40
1.6500
  0
CIRCLE
  8
20
 10
114.5000
 20
20.5000
 30
0.0000
 40
1.6500
  0
CIRCLE
  8
20
 10
143.5000
 20
50.5000
 30
0.0000
 40
1.6500
  0
CIRCLE
  8
20
 10
205.5000
 20
35.5000
 30
0.0000
 40
1.6500
  0
CIRCLE
  8
20
 10
195.6000
 20
59.2000
 30
0.0000
 40
1.6500
  0
CIRCLE
  8
20
 10
179.0000
 20
57.6000
 30
0.0000
 40
1.6500
  0
CIRCLE
  8
20
 10
190.5000
 20
25.5000
 30
0.0000
 40
1.6500
  0
CIRCLE
  8
20
 10
190.5000
 20
44.5000
 30
0.0000
 40
1.6500
  0
CIRCLE
  8
20
 10
146.5000
 20
7.5000
 30
0.0000
 40
1.6500
  0
CIRCLE
  8
20
 10
123.0000
 20
50.5000
 30
0.0000
 40
1.6500
  0
CIRCLE
  8
20
 10
36.5000
 20
50.5000
 30
0.0000
 40
1.6500
  0
CIRCLE
  8
20
 10
50.6050
 20
21.5206
 30
0.0000
 40
0.7000
  0
CIRCLE
  8
20
 10
60.6050
 20
21.5206
 30
0.0000
 40
0.7000
  0
ENDSEC
  0
EOF
