  0
SECTION
  2
HEADER
  9
$ACADVER
  1
AC1009
  9
$FILLMODE
 70
0
  9
$EXTMIN
 10
-1.0381
 20
-0.0381
 30
0.0000
  9
$EXTMAX
 10
211.0381
 20
172.0381
 30
0.0000
  0
ENDSEC
  0
SECTION
  2
TABLES
  0
TABLE
  2
LTYPE
 70
1
  0
LTYPE
  2
CONTINUOUS
 70
64
  3
Solid line
 72
65
 73
0
 40
0
  0
ENDTAB
  0
TABLE
  2
LAYER
 70
255
  0
LAYER
  2
20
 70
64
 62
30
  6
CONTINUOUS
  0
ENDTAB
  0
ENDSEC
  0
SECTION
  2
BLOCKS
  0
BLOCK
  8
0
  2
RECT
 70
64
 10
0.0000
 20
0.0000
 30
0.0000
  3
RECT
  0
SOLID
  8
0
 10
-0.5000
 20
-0.5000
 30
0.0000
 11
0.5000
 21
-0.5000
 31
0.0000
 12
-0.5000
 22
0.5000
 32
0.0000
 13
0.5000
 23
0.5000
 33
0.0000
  0
ENDBLK
  8
0
  0
BLOCK
  8
0
  2
PIE
 70
64
 10
0.0000
 20
0.0000
 30
0.0000
  3
PIE
  0
CIRCLE
  8
0
 10
0.0000
 20
0.0000
 30
0.0000
 40
0.5000
  0
ENDBLK
  8
0
  0
BLOCK
  8
0
  2
OCTAGONP
 70
64
 10
0.0000
 20
0.0000
 30
0.0000
  3
OCTAGONP
  0
POLYLINE
  8
0
 66
1
 10
0.0000
 20
0.0000
 30
0.0000
 40
0.0000
 41
0.0000
 70
1
  0
VERTEX
  8
0
 10
-0.5000
 20
-0.2071
 30
0.0000
  0
VERTEX
  8
0
 10
-0.5000
 20
0.2071
 30
0.0000
  0
VERTEX
  8
0
 10
-0.2071
 20
0.5000
 30
0.0000
  0
VERTEX
  8
0
 10
0.2071
 20
0.5000
 30
0.0000
  0
VERTEX
  8
0
 10
0.5000
 20
0.2071
 30
0.0000
  0
VERTEX
  8
0
 10
0.5000
 20
-0.2071
 30
0.0000
  0
VERTEX
  8
0
 10
0.2071
 20
-0.5000
 30
0.0000
  0
VERTEX
  8
0
 10
-0.2071
 20
-0.5000
 30
0.0000
  0
SEQEND
  8
0
  0
ENDBLK
  8
0
  0
BLOCK
  8
0
  2
SQUAREP
 70
64
 10
0.0000
 20
0.0000
 30
0.0000
  3
SQUAREP
  0
SOLID
  8
0
 10
-0.5000
 20
-0.5000
 30
0.0000
 11
0.5000
 21
-0.5000
 31
0.0000
 12
-0.5000
 22
0.5000
 32
0.0000
 13
0.5000
 23
0.5000
 33
0.0000
  0
ENDBLK
  8
0
  0
BLOCK
  8
0
  2
ROUNDP
 70
64
 10
0.0000
 20
0.0000
 30
0.0000
  3
ROUNDP
  0
CIRCLE
  8
0
 10
0.0000
 20
0.0000
 30
0.0000
 40
0.5000
  0
ENDBLK
  8
0
  0
BLOCK
  8
0
  2
ANNULUSP
 70
64
 10
0.0000
 20
0.0000
 30
0.0000
  3
ANNULUSP
  0
CIRCLE
  8
0
 10
0.0000
 20
0.0000
 30
0.0000
 40
0.5000
  0
ENDBLK
  8
0
  0
BLOCK
  8
0
  2
THERMALP
 70
64
 10
0.0000
 20
0.0000
 30
0.0000
  3
THERMALP
  0
LINE
  8
0
 10
-0.2379
 20
0.4500
 30
0.0000
 11
0.2379
 21
0.4500
 31
0.0000
  0
LINE
  8
0
 10
0.4500
 20
0.2379
 30
0.0000
 11
0.4500
 21
-0.2379
 31
0.0000
  0
LINE
  8
0
 10
0.2379
 20
-0.4500
 30
0.0000
 11
-0.2379
 21
-0.4500
 31
0.0000
  0
LINE
  8
0
 10
-0.4500
 20
-0.2379
 30
0.0000
 11
-0.4500
 21
0.2379
 31
0.0000
  0
ENDBLK
  8
0
  0
BLOCK
  8
0
  2
OCTAGONV
 70
64
 10
0.0000
 20
0.0000
 30
0.0000
  3
OCTAGONV
  0
POLYLINE
  8
0
 66
1
 10
0.0000
 20
0.0000
 30
0.0000
 40
0.0000
 41
0.0000
 70
1
  0
VERTEX
  8
0
 10
-0.5000
 20
-0.2071
 30
0.0000
  0
VERTEX
  8
0
 10
-0.5000
 20
0.2071
 30
0.0000
  0
VERTEX
  8
0
 10
-0.2071
 20
0.5000
 30
0.0000
  0
VERTEX
  8
0
 10
0.2071
 20
0.5000
 30
0.0000
  0
VERTEX
  8
0
 10
0.5000
 20
0.2071
 30
0.0000
  0
VERTEX
  8
0
 10
0.5000
 20
-0.2071
 30
0.0000
  0
VERTEX
  8
0
 10
0.2071
 20
-0.5000
 30
0.0000
  0
VERTEX
  8
0
 10
-0.2071
 20
-0.5000
 30
0.0000
  0
SEQEND
  8
0
  0
ENDBLK
  8
0
  0
BLOCK
  8
0
  2
SQUAREV
 70
64
 10
0.0000
 20
0.0000
 30
0.0000
  3
SQUAREV
  0
SOLID
  8
0
 10
-0.5000
 20
-0.5000
 30
0.0000
 11
0.5000
 21
-0.5000
 31
0.0000
 12
-0.5000
 22
0.5000
 32
0.0000
 13
0.5000
 23
0.5000
 33
0.0000
  0
ENDBLK
  8
0
  0
BLOCK
  8
0
  2
ROUNDV
 70
64
 10
0.0000
 20
0.0000
 30
0.0000
  3
ROUNDV
  0
CIRCLE
  8
0
 10
0.0000
 20
0.0000
 30
0.0000
 40
0.5000
  0
ENDBLK
  8
0
  0
BLOCK
  8
0
  2
ANNULUSV
 70
64
 10
0.0000
 20
0.0000
 30
0.0000
  3
ANNULUSV
  0
CIRCLE
  8
0
 10
0.0000
 20
0.0000
 30
0.0000
 40
0.5000
  0
ENDBLK
  8
0
  0
BLOCK
  8
0
  2
THERMALV
 70
64
 10
0.0000
 20
0.0000
 30
0.0000
  3
THERMALV
  0
LINE
  8
0
 10
-0.2379
 20
0.4500
 30
0.0000
 11
0.2379
 21
0.4500
 31
0.0000
  0
LINE
  8
0
 10
0.4500
 20
0.2379
 30
0.0000
 11
0.4500
 21
-0.2379
 31
0.0000
  0
LINE
  8
0
 10
0.2379
 20
-0.4500
 30
0.0000
 11
-0.2379
 21
-0.4500
 31
0.0000
  0
LINE
  8
0
 10
-0.4500
 20
-0.2379
 30
0.0000
 11
-0.4500
 21
0.2379
 31
0.0000
  0
ENDBLK
  8
0
  0
ENDSEC
  0
SECTION
  2
ENTITIES
  0
LINE
  8
20
 10
-1.0000
 20
87.0000
 30
0.0000
 11
-1.0000
 21
171.0000
 31
0.0000
  0
ARC
  8
20
 10
0.0000
 20
171.0000
 30
0.0000
 40
1.0000
 50
90.0000
 51
180.0000
  0
LINE
  8
20
 10
0.0000
 20
172.0000
 30
0.0000
 11
104.0000
 21
172.0000
 31
0.0000
  0
ARC
  8
20
 10
104.0000
 20
171.0000
 30
0.0000
 40
1.0000
 50
0.0000
 51
90.0000
  0
LINE
  8
20
 10
105.0000
 20
171.0000
 30
0.0000
 11
105.0000
 21
87.0000
 31
0.0000
  0
ARC
  8
20
 10
104.0000
 20
87.0000
 30
0.0000
 40
1.0000
 50
270.0000
 51
0.0000
  0
LINE
  8
20
 10
104.0000
 20
86.0000
 30
0.0000
 11
0.0000
 21
86.0000
 31
0.0000
  0
ARC
  8
20
 10
0.0000
 20
87.0000
 30
0.0000
 40
1.0000
 50
180.0000
 51
270.0000
  0
LINE
  8
20
 10
9.5000
 20
168.5000
 30
0.0000
 11
9.5000
 21
170.5000
 31
0.0000
  0
ARC
  8
20
 10
9.0000
 20
170.5000
 30
0.0000
 40
0.5000
 50
0.0000
 51
90.0000
  0
LINE
  8
20
 10
9.0000
 20
171.0000
 30
0.0000
 11
4.0000
 21
171.0000
 31
0.0000
  0
ARC
  8
20
 10
4.0000
 20
170.5000
 30
0.0000
 40
0.5000
 50
90.0000
 51
180.0000
  0
LINE
  8
20
 10
3.5000
 20
170.5000
 30
0.0000
 11
3.5000
 21
168.5000
 31
0.0000
  0
ARC
  8
20
 10
4.0000
 20
168.5000
 30
0.0000
 40
0.5000
 50
180.0000
 51
270.0000
  0
LINE
  8
20
 10
4.0000
 20
168.0000
 30
0.0000
 11
9.0000
 21
168.0000
 31
0.0000
  0
ARC
  8
20
 10
9.0000
 20
168.5000
 30
0.0000
 40
0.5000
 50
270.0000
 51
0.0000
  0
LINE
  8
20
 10
100.0000
 20
171.0000
 30
0.0000
 11
95.0000
 21
171.0000
 31
0.0000
  0
ARC
  8
20
 10
95.0000
 20
170.5000
 30
0.0000
 40
0.5000
 50
90.0000
 51
180.0000
  0
LINE
  8
20
 10
94.5000
 20
170.5000
 30
0.0000
 11
94.5000
 21
168.5000
 31
0.0000
  0
ARC
  8
20
 10
95.0000
 20
168.5000
 30
0.0000
 40
0.5000
 50
180.0000
 51
270.0000
  0
LINE
  8
20
 10
95.0000
 20
168.0000
 30
0.0000
 11
100.0000
 21
168.0000
 31
0.0000
  0
ARC
  8
20
 10
100.0000
 20
168.5000
 30
0.0000
 40
0.5000
 50
270.0000
 51
0.0000
  0
LINE
  8
20
 10
100.5000
 20
168.5000
 30
0.0000
 11
100.5000
 21
170.5000
 31
0.0000
  0
ARC
  8
20
 10
100.0000
 20
170.5000
 30
0.0000
 40
0.5000
 50
0.0000
 51
90.0000
  0
LINE
  8
20
 10
101.0000
 20
167.0000
 30
0.0000
 11
101.0000
 21
162.0000
 31
0.0000
  0
ARC
  8
20
 10
101.5000
 20
162.0000
 30
0.0000
 40
0.5000
 50
180.0000
 51
270.0000
  0
LINE
  8
20
 10
101.5000
 20
161.5000
 30
0.0000
 11
103.5000
 21
161.5000
 31
0.0000
  0
ARC
  8
20
 10
103.5000
 20
162.0000
 30
0.0000
 40
0.5000
 50
270.0000
 51
0.0000
  0
LINE
  8
20
 10
104.0000
 20
162.0000
 30
0.0000
 11
104.0000
 21
167.0000
 31
0.0000
  0
ARC
  8
20
 10
103.5000
 20
167.0000
 30
0.0000
 40
0.5000
 50
0.0000
 51
90.0000
  0
LINE
  8
20
 10
103.5000
 20
167.5000
 30
0.0000
 11
101.5000
 21
167.5000
 31
0.0000
  0
ARC
  8
20
 10
101.5000
 20
167.0000
 30
0.0000
 40
0.5000
 50
90.0000
 51
180.0000
  0
LINE
  8
20
 10
103.5000
 20
96.5000
 30
0.0000
 11
101.5000
 21
96.5000
 31
0.0000
  0
ARC
  8
20
 10
101.5000
 20
96.0000
 30
0.0000
 40
0.5000
 50
90.0000
 51
180.0000
  0
LINE
  8
20
 10
101.0000
 20
96.0000
 30
0.0000
 11
101.0000
 21
91.0000
 31
0.0000
  0
ARC
  8
20
 10
101.5000
 20
91.0000
 30
0.0000
 40
0.5000
 50
180.0000
 51
270.0000
  0
LINE
  8
20
 10
101.5000
 20
90.5000
 30
0.0000
 11
103.5000
 21
90.5000
 31
0.0000
  0
ARC
  8
20
 10
103.5000
 20
91.0000
 30
0.0000
 40
0.5000
 50
270.0000
 51
0.0000
  0
LINE
  8
20
 10
104.0000
 20
91.0000
 30
0.0000
 11
104.0000
 21
96.0000
 31
0.0000
  0
ARC
  8
20
 10
103.5000
 20
96.0000
 30
0.0000
 40
0.5000
 50
0.0000
 51
90.0000
  0
LINE
  8
20
 10
100.0000
 20
90.0000
 30
0.0000
 11
95.0000
 21
90.0000
 31
0.0000
  0
ARC
  8
20
 10
95.0000
 20
89.5000
 30
0.0000
 40
0.5000
 50
90.0000
 51
180.0000
  0
LINE
  8
20
 10
94.5000
 20
89.5000
 30
0.0000
 11
94.5000
 21
87.5000
 31
0.0000
  0
ARC
  8
20
 10
95.0000
 20
87.5000
 30
0.0000
 40
0.5000
 50
180.0000
 51
270.0000
  0
LINE
  8
20
 10
95.0000
 20
87.0000
 30
0.0000
 11
100.0000
 21
87.0000
 31
0.0000
  0
ARC
  8
20
 10
100.0000
 20
87.5000
 30
0.0000
 40
0.5000
 50
270.0000
 51
0.0000
  0
LINE
  8
20
 10
100.5000
 20
87.5000
 30
0.0000
 11
100.5000
 21
89.5000
 31
0.0000
  0
ARC
  8
20
 10
100.0000
 20
89.5000
 30
0.0000
 40
0.5000
 50
0.0000
 51
90.0000
  0
LINE
  8
20
 10
0.0000
 20
167.0000
 30
0.0000
 11
0.0000
 21
162.0000
 31
0.0000
  0
ARC
  8
20
 10
0.5000
 20
162.0000
 30
0.0000
 40
0.5000
 50
180.0000
 51
270.0000
  0
LINE
  8
20
 10
0.5000
 20
161.5000
 30
0.0000
 11
2.5000
 21
161.5000
 31
0.0000
  0
ARC
  8
20
 10
2.5000
 20
162.0000
 30
0.0000
 40
0.5000
 50
270.0000
 51
0.0000
  0
LINE
  8
20
 10
3.0000
 20
162.0000
 30
0.0000
 11
3.0000
 21
167.0000
 31
0.0000
  0
ARC
  8
20
 10
2.5000
 20
167.0000
 30
0.0000
 40
0.5000
 50
0.0000
 51
90.0000
  0
LINE
  8
20
 10
2.5000
 20
167.5000
 30
0.0000
 11
0.5000
 21
167.5000
 31
0.0000
  0
ARC
  8
20
 10
0.5000
 20
167.0000
 30
0.0000
 40
0.5000
 50
90.0000
 51
180.0000
  0
LINE
  8
20
 10
9.5000
 20
87.5000
 30
0.0000
 11
9.5000
 21
89.5000
 31
0.0000
  0
ARC
  8
20
 10
9.0000
 20
89.5000
 30
0.0000
 40
0.5000
 50
0.0000
 51
90.0000
  0
LINE
  8
20
 10
9.0000
 20
90.0000
 30
0.0000
 11
4.0000
 21
90.0000
 31
0.0000
  0
ARC
  8
20
 10
4.0000
 20
89.5000
 30
0.0000
 40
0.5000
 50
90.0000
 51
180.0000
  0
LINE
  8
20
 10
3.5000
 20
89.5000
 30
0.0000
 11
3.5000
 21
87.5000
 31
0.0000
  0
ARC
  8
20
 10
4.0000
 20
87.5000
 30
0.0000
 40
0.5000
 50
180.0000
 51
270.0000
  0
LINE
  8
20
 10
4.0000
 20
87.0000
 30
0.0000
 11
9.0000
 21
87.0000
 31
0.0000
  0
ARC
  8
20
 10
9.0000
 20
87.5000
 30
0.0000
 40
0.5000
 50
270.0000
 51
0.0000
  0
LINE
  8
20
 10
3.0000
 20
94.0000
 30
0.0000
 11
3.0000
 21
99.0000
 31
0.0000
  0
ARC
  8
20
 10
2.5000
 20
99.0000
 30
0.0000
 40
0.5000
 50
0.0000
 51
90.0000
  0
LINE
  8
20
 10
2.5000
 20
99.5000
 30
0.0000
 11
0.5000
 21
99.5000
 31
0.0000
  0
ARC
  8
20
 10
0.5000
 20
99.0000
 30
0.0000
 40
0.5000
 50
90.0000
 51
180.0000
  0
LINE
  8
20
 10
0.0000
 20
99.0000
 30
0.0000
 11
0.0000
 21
94.0000
 31
0.0000
  0
ARC
  8
20
 10
0.5000
 20
94.0000
 30
0.0000
 40
0.5000
 50
180.0000
 51
270.0000
  0
LINE
  8
20
 10
0.5000
 20
93.5000
 30
0.0000
 11
2.5000
 21
93.5000
 31
0.0000
  0
ARC
  8
20
 10
2.5000
 20
94.0000
 30
0.0000
 40
0.5000
 50
270.0000
 51
0.0000
  0
LINE
  8
20
 10
0.0000
 20
133.0000
 30
0.0000
 11
0.0000
 21
128.0000
 31
0.0000
  0
ARC
  8
20
 10
0.5000
 20
128.0000
 30
0.0000
 40
0.5000
 50
180.0000
 51
270.0000
  0
LINE
  8
20
 10
0.5000
 20
127.5000
 30
0.0000
 11
2.5000
 21
127.5000
 31
0.0000
  0
ARC
  8
20
 10
2.5000
 20
128.0000
 30
0.0000
 40
0.5000
 50
270.0000
 51
0.0000
  0
LINE
  8
20
 10
3.0000
 20
128.0000
 30
0.0000
 11
3.0000
 21
133.0000
 31
0.0000
  0
ARC
  8
20
 10
2.5000
 20
133.0000
 30
0.0000
 40
0.5000
 50
0.0000
 51
90.0000
  0
LINE
  8
20
 10
2.5000
 20
133.5000
 30
0.0000
 11
0.5000
 21
133.5000
 31
0.0000
  0
ARC
  8
20
 10
0.5000
 20
133.0000
 30
0.0000
 40
0.5000
 50
90.0000
 51
180.0000
  0
LINE
  8
20
 10
54.5000
 20
87.5000
 30
0.0000
 11
54.5000
 21
89.5000
 31
0.0000
  0
ARC
  8
20
 10
54.0000
 20
89.5000
 30
0.0000
 40
0.5000
 50
0.0000
 51
90.0000
  0
LINE
  8
20
 10
54.0000
 20
90.0000
 30
0.0000
 11
49.0000
 21
90.0000
 31
0.0000
  0
ARC
  8
20
 10
49.0000
 20
89.5000
 30
0.0000
 40
0.5000
 50
90.0000
 51
180.0000
  0
LINE
  8
20
 10
48.5000
 20
89.5000
 30
0.0000
 11
48.5000
 21
87.5000
 31
0.0000
  0
ARC
  8
20
 10
49.0000
 20
87.5000
 30
0.0000
 40
0.5000
 50
180.0000
 51
270.0000
  0
LINE
  8
20
 10
49.0000
 20
87.0000
 30
0.0000
 11
54.0000
 21
87.0000
 31
0.0000
  0
ARC
  8
20
 10
54.0000
 20
87.5000
 30
0.0000
 40
0.5000
 50
270.0000
 51
0.0000
  0
LINE
  8
20
 10
49.0000
 20
168.0000
 30
0.0000
 11
54.0000
 21
168.0000
 31
0.0000
  0
ARC
  8
20
 10
54.0000
 20
168.5000
 30
0.0000
 40
0.5000
 50
270.0000
 51
0.0000
  0
LINE
  8
20
 10
54.5000
 20
168.5000
 30
0.0000
 11
54.5000
 21
170.5000
 31
0.0000
  0
ARC
  8
20
 10
54.0000
 20
170.5000
 30
0.0000
 40
0.5000
 50
0.0000
 51
90.0000
  0
LINE
  8
20
 10
54.0000
 20
171.0000
 30
0.0000
 11
49.0000
 21
171.0000
 31
0.0000
  0
ARC
  8
20
 10
49.0000
 20
170.5000
 30
0.0000
 40
0.5000
 50
90.0000
 51
180.0000
  0
LINE
  8
20
 10
48.5000
 20
170.5000
 30
0.0000
 11
48.5000
 21
168.5000
 31
0.0000
  0
ARC
  8
20
 10
49.0000
 20
168.5000
 30
0.0000
 40
0.5000
 50
180.0000
 51
270.0000
  0
LINE
  8
20
 10
104.0000
 20
128.0000
 30
0.0000
 11
104.0000
 21
133.0000
 31
0.0000
  0
ARC
  8
20
 10
103.5000
 20
133.0000
 30
0.0000
 40
0.5000
 50
0.0000
 51
90.0000
  0
LINE
  8
20
 10
103.5000
 20
133.5000
 30
0.0000
 11
101.5000
 21
133.5000
 31
0.0000
  0
ARC
  8
20
 10
101.5000
 20
133.0000
 30
0.0000
 40
0.5000
 50
90.0000
 51
180.0000
  0
LINE
  8
20
 10
101.0000
 20
133.0000
 30
0.0000
 11
101.0000
 21
128.0000
 31
0.0000
  0
ARC
  8
20
 10
101.5000
 20
128.0000
 30
0.0000
 40
0.5000
 50
180.0000
 51
270.0000
  0
LINE
  8
20
 10
101.5000
 20
127.5000
 30
0.0000
 11
103.5000
 21
127.5000
 31
0.0000
  0
ARC
  8
20
 10
103.5000
 20
128.0000
 30
0.0000
 40
0.5000
 50
270.0000
 51
0.0000
  0
LINE
  8
20
 10
0.0000
 20
82.0000
 30
0.0000
 11
0.0000
 21
73.0000
 31
0.0000
  0
LINE
  8
20
 10
0.0000
 20
56.0000
 30
0.0000
 11
0.0000
 21
47.0000
 31
0.0000
  0
LINE
  8
20
 10
0.0000
 20
47.0000
 30
0.0000
 11
4.0000
 21
47.0000
 31
0.0000
  0
LINE
  8
20
 10
9.0000
 20
47.0000
 30
0.0000
 11
49.0000
 21
47.0000
 31
0.0000
  0
LINE
  8
20
 10
54.0000
 20
47.0000
 30
0.0000
 11
95.0000
 21
47.0000
 31
0.0000
  0
LINE
  8
20
 10
100.0000
 20
47.0000
 30
0.0000
 11
104.0000
 21
47.0000
 31
0.0000
  0
LINE
  8
20
 10
104.0000
 20
47.0000
 30
0.0000
 11
104.0000
 21
56.0000
 31
0.0000
  0
LINE
  8
20
 10
104.0000
 20
73.0000
 30
0.0000
 11
104.0000
 21
82.0000
 31
0.0000
  0
LINE
  8
20
 10
104.0000
 20
82.0000
 30
0.0000
 11
100.0000
 21
82.0000
 31
0.0000
  0
LINE
  8
20
 10
95.0000
 20
82.0000
 30
0.0000
 11
54.0000
 21
82.0000
 31
0.0000
  0
LINE
  8
20
 10
49.0000
 20
82.0000
 30
0.0000
 11
9.0000
 21
82.0000
 31
0.0000
  0
LINE
  8
20
 10
4.0000
 20
82.0000
 30
0.0000
 11
0.0000
 21
82.0000
 31
0.0000
  0
LINE
  8
20
 10
4.0000
 20
82.0000
 30
0.0000
 11
4.0000
 21
84.0000
 31
0.0000
  0
ARC
  8
20
 10
5.0000
 20
84.0000
 30
0.0000
 40
1.0000
 50
90.0000
 51
180.0000
  0
LINE
  8
20
 10
5.0000
 20
85.0000
 30
0.0000
 11
8.0000
 21
85.0000
 31
0.0000
  0
ARC
  8
20
 10
8.0000
 20
84.0000
 30
0.0000
 40
1.0000
 50
0.0000
 51
90.0000
  0
LINE
  8
20
 10
9.0000
 20
84.0000
 30
0.0000
 11
9.0000
 21
82.0000
 31
0.0000
  0
LINE
  8
20
 10
49.0000
 20
82.0000
 30
0.0000
 11
49.0000
 21
84.0000
 31
0.0000
  0
ARC
  8
20
 10
50.0000
 20
84.0000
 30
0.0000
 40
1.0000
 50
90.0000
 51
180.0000
  0
LINE
  8
20
 10
50.0000
 20
85.0000
 30
0.0000
 11
53.0000
 21
85.0000
 31
0.0000
  0
ARC
  8
20
 10
53.0000
 20
84.0000
 30
0.0000
 40
1.0000
 50
0.0000
 51
90.0000
  0
LINE
  8
20
 10
54.0000
 20
84.0000
 30
0.0000
 11
54.0000
 21
82.0000
 31
0.0000
  0
LINE
  8
20
 10
95.0000
 20
82.0000
 30
0.0000
 11
95.0000
 21
84.0000
 31
0.0000
  0
ARC
  8
20
 10
96.0000
 20
84.0000
 30
0.0000
 40
1.0000
 50
90.0000
 51
180.0000
  0
LINE
  8
20
 10
96.0000
 20
85.0000
 30
0.0000
 11
99.0000
 21
85.0000
 31
0.0000
  0
ARC
  8
20
 10
99.0000
 20
84.0000
 30
0.0000
 40
1.0000
 50
0.0000
 51
90.0000
  0
LINE
  8
20
 10
100.0000
 20
84.0000
 30
0.0000
 11
100.0000
 21
82.0000
 31
0.0000
  0
LINE
  8
20
 10
100.0000
 20
47.0000
 30
0.0000
 11
100.0000
 21
45.0000
 31
0.0000
  0
ARC
  8
20
 10
99.0000
 20
45.0000
 30
0.0000
 40
1.0000
 50
270.0000
 51
0.0000
  0
LINE
  8
20
 10
99.0000
 20
44.0000
 30
0.0000
 11
96.0000
 21
44.0000
 31
0.0000
  0
ARC
  8
20
 10
96.0000
 20
45.0000
 30
0.0000
 40
1.0000
 50
180.0000
 51
270.0000
  0
LINE
  8
20
 10
95.0000
 20
45.0000
 30
0.0000
 11
95.0000
 21
47.0000
 31
0.0000
  0
LINE
  8
20
 10
54.0000
 20
47.0000
 30
0.0000
 11
54.0000
 21
45.0000
 31
0.0000
  0
ARC
  8
20
 10
53.0000
 20
45.0000
 30
0.0000
 40
1.0000
 50
270.0000
 51
0.0000
  0
LINE
  8
20
 10
53.0000
 20
44.0000
 30
0.0000
 11
50.0000
 21
44.0000
 31
0.0000
  0
ARC
  8
20
 10
50.0000
 20
45.0000
 30
0.0000
 40
1.0000
 50
180.0000
 51
270.0000
  0
LINE
  8
20
 10
49.0000
 20
45.0000
 30
0.0000
 11
49.0000
 21
47.0000
 31
0.0000
  0
LINE
  8
20
 10
9.0000
 20
47.0000
 30
0.0000
 11
9.0000
 21
45.0000
 31
0.0000
  0
ARC
  8
20
 10
8.0000
 20
45.0000
 30
0.0000
 40
1.0000
 50
270.0000
 51
0.0000
  0
LINE
  8
20
 10
8.0000
 20
44.0000
 30
0.0000
 11
5.0000
 21
44.0000
 31
0.0000
  0
ARC
  8
20
 10
5.0000
 20
45.0000
 30
0.0000
 40
1.0000
 50
180.0000
 51
270.0000
  0
LINE
  8
20
 10
4.0000
 20
45.0000
 30
0.0000
 11
4.0000
 21
47.0000
 31
0.0000
  0
LINE
  8
20
 10
4.5000
 20
71.5000
 30
0.0000
 11
4.5000
 21
58.5000
 31
0.0000
  0
LINE
  8
20
 10
4.5000
 20
58.5000
 30
0.0000
 11
37.5000
 21
58.5000
 31
0.0000
  0
LINE
  8
20
 10
37.5000
 20
58.5000
 30
0.0000
 11
37.5000
 21
71.5000
 31
0.0000
  0
LINE
  8
20
 10
37.5000
 20
71.5000
 30
0.0000
 11
4.5000
 21
71.5000
 31
0.0000
  0
LINE
  8
20
 10
47.5000
 20
59.5000
 30
0.0000
 11
61.5000
 21
59.5000
 31
0.0000
  0
LINE
  8
20
 10
47.5000
 20
63.5000
 30
0.0000
 11
47.5000
 21
59.5000
 31
0.0000
  0
LINE
  8
20
 10
61.5000
 20
63.5000
 30
0.0000
 11
61.5000
 21
59.5000
 31
0.0000
  0
LINE
  8
20
 10
47.5000
 20
63.5000
 30
0.0000
 11
61.5000
 21
63.5000
 31
0.0000
  0
LINE
  8
20
 10
0.0000
 20
40.0000
 30
0.0000
 11
0.0000
 21
31.0000
 31
0.0000
  0
LINE
  8
20
 10
0.0000
 20
14.0000
 30
0.0000
 11
0.0000
 21
5.0000
 31
0.0000
  0
LINE
  8
20
 10
0.0000
 20
5.0000
 30
0.0000
 11
4.0000
 21
5.0000
 31
0.0000
  0
LINE
  8
20
 10
9.0000
 20
5.0000
 30
0.0000
 11
49.0000
 21
5.0000
 31
0.0000
  0
LINE
  8
20
 10
54.0000
 20
5.0000
 30
0.0000
 11
95.0000
 21
5.0000
 31
0.0000
  0
LINE
  8
20
 10
100.0000
 20
5.0000
 30
0.0000
 11
104.0000
 21
5.0000
 31
0.0000
  0
LINE
  8
20
 10
104.0000
 20
5.0000
 30
0.0000
 11
104.0000
 21
14.0000
 31
0.0000
  0
LINE
  8
20
 10
104.0000
 20
31.0000
 30
0.0000
 11
104.0000
 21
40.0000
 31
0.0000
  0
LINE
  8
20
 10
104.0000
 20
40.0000
 30
0.0000
 11
100.0000
 21
40.0000
 31
0.0000
  0
LINE
  8
20
 10
95.0000
 20
40.0000
 30
0.0000
 11
54.0000
 21
40.0000
 31
0.0000
  0
LINE
  8
20
 10
49.0000
 20
40.0000
 30
0.0000
 11
9.0000
 21
40.0000
 31
0.0000
  0
LINE
  8
20
 10
4.0000
 20
40.0000
 30
0.0000
 11
0.0000
 21
40.0000
 31
0.0000
  0
LINE
  8
20
 10
4.0000
 20
40.0000
 30
0.0000
 11
4.0000
 21
42.0000
 31
0.0000
  0
ARC
  8
20
 10
5.0000
 20
42.0000
 30
0.0000
 40
1.0000
 50
90.0000
 51
180.0000
  0
LINE
  8
20
 10
5.0000
 20
43.0000
 30
0.0000
 11
8.0000
 21
43.0000
 31
0.0000
  0
ARC
  8
20
 10
8.0000
 20
42.0000
 30
0.0000
 40
1.0000
 50
0.0000
 51
90.0000
  0
LINE
  8
20
 10
9.0000
 20
42.0000
 30
0.0000
 11
9.0000
 21
40.0000
 31
0.0000
  0
LINE
  8
20
 10
49.0000
 20
40.0000
 30
0.0000
 11
49.0000
 21
42.0000
 31
0.0000
  0
ARC
  8
20
 10
50.0000
 20
42.0000
 30
0.0000
 40
1.0000
 50
90.0000
 51
180.0000
  0
LINE
  8
20
 10
50.0000
 20
43.0000
 30
0.0000
 11
53.0000
 21
43.0000
 31
0.0000
  0
ARC
  8
20
 10
53.0000
 20
42.0000
 30
0.0000
 40
1.0000
 50
0.0000
 51
90.0000
  0
LINE
  8
20
 10
54.0000
 20
42.0000
 30
0.0000
 11
54.0000
 21
40.0000
 31
0.0000
  0
LINE
  8
20
 10
95.0000
 20
40.0000
 30
0.0000
 11
95.0000
 21
42.0000
 31
0.0000
  0
ARC
  8
20
 10
96.0000
 20
42.0000
 30
0.0000
 40
1.0000
 50
90.0000
 51
180.0000
  0
LINE
  8
20
 10
96.0000
 20
43.0000
 30
0.0000
 11
99.0000
 21
43.0000
 31
0.0000
  0
ARC
  8
20
 10
99.0000
 20
42.0000
 30
0.0000
 40
1.0000
 50
0.0000
 51
90.0000
  0
LINE
  8
20
 10
100.0000
 20
42.0000
 30
0.0000
 11
100.0000
 21
40.0000
 31
0.0000
  0
LINE
  8
20
 10
100.0000
 20
5.0000
 30
0.0000
 11
100.0000
 21
3.0000
 31
0.0000
  0
ARC
  8
20
 10
99.0000
 20
3.0000
 30
0.0000
 40
1.0000
 50
270.0000
 51
0.0000
  0
LINE
  8
20
 10
99.0000
 20
2.0000
 30
0.0000
 11
96.0000
 21
2.0000
 31
0.0000
  0
ARC
  8
20
 10
96.0000
 20
3.0000
 30
0.0000
 40
1.0000
 50
180.0000
 51
270.0000
  0
LINE
  8
20
 10
95.0000
 20
3.0000
 30
0.0000
 11
95.0000
 21
5.0000
 31
0.0000
  0
LINE
  8
20
 10
54.0000
 20
5.0000
 30
0.0000
 11
54.0000
 21
3.0000
 31
0.0000
  0
ARC
  8
20
 10
53.0000
 20
3.0000
 30
0.0000
 40
1.0000
 50
270.0000
 51
0.0000
  0
LINE
  8
20
 10
53.0000
 20
2.0000
 30
0.0000
 11
50.0000
 21
2.0000
 31
0.0000
  0
ARC
  8
20
 10
50.0000
 20
3.0000
 30
0.0000
 40
1.0000
 50
180.0000
 51
270.0000
  0
LINE
  8
20
 10
49.0000
 20
3.0000
 30
0.0000
 11
49.0000
 21
5.0000
 31
0.0000
  0
LINE
  8
20
 10
9.0000
 20
5.0000
 30
0.0000
 11
9.0000
 21
3.0000
 31
0.0000
  0
ARC
  8
20
 10
8.0000
 20
3.0000
 30
0.0000
 40
1.0000
 50
270.0000
 51
0.0000
  0
LINE
  8
20
 10
8.0000
 20
2.0000
 30
0.0000
 11
5.0000
 21
2.0000
 31
0.0000
  0
ARC
  8
20
 10
5.0000
 20
3.0000
 30
0.0000
 40
1.0000
 50
180.0000
 51
270.0000
  0
LINE
  8
20
 10
4.0000
 20
3.0000
 30
0.0000
 11
4.0000
 21
5.0000
 31
0.0000
  0
LINE
  8
20
 10
134.5000
 20
89.5000
 30
0.0000
 11
134.5000
 21
87.5000
 31
0.0000
  0
ARC
  8
20
 10
134.0000
 20
87.5000
 30
0.0000
 40
0.5000
 50
270.0000
 51
0.0000
  0
LINE
  8
20
 10
118.5000
 20
89.5000
 30
0.0000
 11
118.5000
 21
87.5000
 31
0.0000
  0
ARC
  8
20
 10
119.0000
 20
87.5000
 30
0.0000
 40
0.5000
 50
180.0000
 51
270.0000
  0
LINE
  8
20
 10
119.0000
 20
87.0000
 30
0.0000
 11
134.0000
 21
87.0000
 31
0.0000
  0
LINE
  8
20
 10
109.0000
 20
89.5000
 30
0.0000
 11
109.0000
 21
91.0000
 31
0.0000
  0
LINE
  8
20
 10
109.0000
 20
96.0000
 30
0.0000
 11
109.0000
 21
128.0000
 31
0.0000
  0
LINE
  8
20
 10
109.0000
 20
133.0000
 30
0.0000
 11
109.0000
 21
162.0000
 31
0.0000
  0
LINE
  8
20
 10
109.0000
 20
167.0000
 30
0.0000
 11
109.0000
 21
168.5000
 31
0.0000
  0
LINE
  8
20
 10
134.5000
 20
168.5000
 30
0.0000
 11
134.5000
 21
170.5000
 31
0.0000
  0
ARC
  8
20
 10
134.0000
 20
170.5000
 30
0.0000
 40
0.5000
 50
0.0000
 51
90.0000
  0
LINE
  8
20
 10
118.5000
 20
168.5000
 30
0.0000
 11
118.5000
 21
170.5000
 31
0.0000
  0
ARC
  8
20
 10
119.0000
 20
170.5000
 30
0.0000
 40
0.5000
 50
90.0000
 51
180.0000
  0
LINE
  8
20
 10
119.0000
 20
171.0000
 30
0.0000
 11
134.0000
 21
171.0000
 31
0.0000
  0
LINE
  8
20
 10
144.0000
 20
168.5000
 30
0.0000
 11
144.0000
 21
167.0000
 31
0.0000
  0
LINE
  8
20
 10
144.0000
 20
162.0000
 30
0.0000
 11
144.0000
 21
133.0000
 31
0.0000
  0
LINE
  8
20
 10
144.0000
 20
128.0000
 30
0.0000
 11
144.0000
 21
96.0000
 31
0.0000
  0
LINE
  8
20
 10
144.0000
 20
91.0000
 30
0.0000
 11
144.0000
 21
89.5000
 31
0.0000
  0
LINE
  8
20
 10
109.0000
 20
167.0000
 30
0.0000
 11
107.0000
 21
167.0000
 31
0.0000
  0
ARC
  8
20
 10
107.0000
 20
166.0000
 30
0.0000
 40
1.0000
 50
90.0000
 51
180.0000
  0
LINE
  8
20
 10
106.0000
 20
166.0000
 30
0.0000
 11
106.0000
 21
163.0000
 31
0.0000
  0
ARC
  8
20
 10
107.0000
 20
163.0000
 30
0.0000
 40
1.0000
 50
180.0000
 51
270.0000
  0
LINE
  8
20
 10
107.0000
 20
162.0000
 30
0.0000
 11
109.0000
 21
162.0000
 31
0.0000
  0
LINE
  8
20
 10
109.0000
 20
133.0000
 30
0.0000
 11
107.0000
 21
133.0000
 31
0.0000
  0
ARC
  8
20
 10
107.0000
 20
132.0000
 30
0.0000
 40
1.0000
 50
90.0000
 51
180.0000
  0
LINE
  8
20
 10
106.0000
 20
132.0000
 30
0.0000
 11
106.0000
 21
129.0000
 31
0.0000
  0
ARC
  8
20
 10
107.0000
 20
129.0000
 30
0.0000
 40
1.0000
 50
180.0000
 51
270.0000
  0
LINE
  8
20
 10
107.0000
 20
128.0000
 30
0.0000
 11
109.0000
 21
128.0000
 31
0.0000
  0
LINE
  8
20
 10
106.0000
 20
92.0000
 30
0.0000
 11
106.0000
 21
95.0000
 31
0.0000
  0
ARC
  8
20
 10
107.0000
 20
95.0000
 30
0.0000
 40
1.0000
 50
90.0000
 51
180.0000
  0
LINE
  8
20
 10
107.0000
 20
96.0000
 30
0.0000
 11
109.0000
 21
96.0000
 31
0.0000
  0
ARC
  8
20
 10
107.0000
 20
92.0000
 30
0.0000
 40
1.0000
 50
180.0000
 51
270.0000
  0
LINE
  8
20
 10
107.0000
 20
91.0000
 30
0.0000
 11
109.0000
 21
91.0000
 31
0.0000
  0
LINE
  8
20
 10
144.0000
 20
91.0000
 30
0.0000
 11
146.0000
 21
91.0000
 31
0.0000
  0
ARC
  8
20
 10
146.0000
 20
92.0000
 30
0.0000
 40
1.0000
 50
270.0000
 51
0.0000
  0
LINE
  8
20
 10
147.0000
 20
92.0000
 30
0.0000
 11
147.0000
 21
95.0000
 31
0.0000
  0
ARC
  8
20
 10
146.0000
 20
95.0000
 30
0.0000
 40
1.0000
 50
0.0000
 51
90.0000
  0
LINE
  8
20
 10
146.0000
 20
96.0000
 30
0.0000
 11
144.0000
 21
96.0000
 31
0.0000
  0
LINE
  8
20
 10
144.0000
 20
128.0000
 30
0.0000
 11
146.0000
 21
128.0000
 31
0.0000
  0
ARC
  8
20
 10
146.0000
 20
129.0000
 30
0.0000
 40
1.0000
 50
270.0000
 51
0.0000
  0
LINE
  8
20
 10
147.0000
 20
129.0000
 30
0.0000
 11
147.0000
 21
132.0000
 31
0.0000
  0
ARC
  8
20
 10
146.0000
 20
132.0000
 30
0.0000
 40
1.0000
 50
0.0000
 51
90.0000
  0
LINE
  8
20
 10
146.0000
 20
133.0000
 30
0.0000
 11
144.0000
 21
133.0000
 31
0.0000
  0
LINE
  8
20
 10
147.0000
 20
166.0000
 30
0.0000
 11
147.0000
 21
163.0000
 31
0.0000
  0
ARC
  8
20
 10
146.0000
 20
163.0000
 30
0.0000
 40
1.0000
 50
270.0000
 51
0.0000
  0
LINE
  8
20
 10
146.0000
 20
162.0000
 30
0.0000
 11
144.0000
 21
162.0000
 31
0.0000
  0
ARC
  8
20
 10
146.0000
 20
166.0000
 30
0.0000
 40
1.0000
 50
0.0000
 51
90.0000
  0
LINE
  8
20
 10
146.0000
 20
167.0000
 30
0.0000
 11
144.0000
 21
167.0000
 31
0.0000
  0
LINE
  8
20
 10
109.0000
 20
89.5000
 30
0.0000
 11
118.5000
 21
89.5000
 31
0.0000
  0
LINE
  8
20
 10
144.0000
 20
89.5000
 30
0.0000
 11
134.5000
 21
89.5000
 31
0.0000
  0
LINE
  8
20
 10
144.0000
 20
168.5000
 30
0.0000
 11
134.5000
 21
168.5000
 31
0.0000
  0
LINE
  8
20
 10
109.0000
 20
168.5000
 30
0.0000
 11
118.5000
 21
168.5000
 31
0.0000
  0
LINE
  8
20
 10
101.5000
 20
56.0000
 30
0.0000
 11
104.0000
 21
56.0000
 31
0.0000
  0
LINE
  8
20
 10
101.5000
 20
73.0000
 30
0.0000
 11
104.0000
 21
73.0000
 31
0.0000
  0
LINE
  8
20
 10
101.5000
 20
73.0000
 30
0.0000
 11
101.5000
 21
56.0000
 31
0.0000
  0
LINE
  8
20
 10
101.5000
 20
14.0000
 30
0.0000
 11
104.0000
 21
14.0000
 31
0.0000
  0
LINE
  8
20
 10
101.5000
 20
31.0000
 30
0.0000
 11
104.0000
 21
31.0000
 31
0.0000
  0
LINE
  8
20
 10
101.5000
 20
31.0000
 30
0.0000
 11
101.5000
 21
14.0000
 31
0.0000
  0
LINE
  8
20
 10
2.5000
 20
73.0000
 30
0.0000
 11
0.0000
 21
73.0000
 31
0.0000
  0
LINE
  8
20
 10
2.5000
 20
56.0000
 30
0.0000
 11
0.0000
 21
56.0000
 31
0.0000
  0
LINE
  8
20
 10
2.5000
 20
56.0000
 30
0.0000
 11
2.5000
 21
73.0000
 31
0.0000
  0
LINE
  8
20
 10
2.5000
 20
14.0000
 30
0.0000
 11
0.0000
 21
14.0000
 31
0.0000
  0
LINE
  8
20
 10
2.5000
 20
14.0000
 30
0.0000
 11
2.5000
 21
31.0000
 31
0.0000
  0
LINE
  8
20
 10
2.5000
 20
31.0000
 30
0.0000
 11
0.0000
 21
31.0000
 31
0.0000
  0
LINE
  8
20
 10
113.0000
 20
164.5000
 30
0.0000
 11
140.0000
 21
164.5000
 31
0.0000
  0
ARC
  8
20
 10
140.0000
 20
165.0000
 30
0.0000
 40
0.5000
 50
270.0000
 51
0.0000
  0
LINE
  8
20
 10
140.5000
 20
165.0000
 30
0.0000
 11
140.5000
 21
166.0000
 31
0.0000
  0
ARC
  8
20
 10
140.0000
 20
166.0000
 30
0.0000
 40
0.5000
 50
0.0000
 51
90.0000
  0
LINE
  8
20
 10
140.0000
 20
166.5000
 30
0.0000
 11
113.0000
 21
166.5000
 31
0.0000
  0
ARC
  8
20
 10
113.0000
 20
166.0000
 30
0.0000
 40
0.5000
 50
90.0000
 51
180.0000
  0
LINE
  8
20
 10
112.5000
 20
166.0000
 30
0.0000
 11
112.5000
 21
165.0000
 31
0.0000
  0
ARC
  8
20
 10
113.0000
 20
165.0000
 30
0.0000
 40
0.5000
 50
180.0000
 51
270.0000
  0
LINE
  8
20
 10
113.0000
 20
160.5000
 30
0.0000
 11
140.0000
 21
160.5000
 31
0.0000
  0
ARC
  8
20
 10
140.0000
 20
161.0000
 30
0.0000
 40
0.5000
 50
270.0000
 51
0.0000
  0
LINE
  8
20
 10
140.5000
 20
161.0000
 30
0.0000
 11
140.5000
 21
162.0000
 31
0.0000
  0
ARC
  8
20
 10
140.0000
 20
162.0000
 30
0.0000
 40
0.5000
 50
0.0000
 51
90.0000
  0
LINE
  8
20
 10
140.0000
 20
162.5000
 30
0.0000
 11
113.0000
 21
162.5000
 31
0.0000
  0
ARC
  8
20
 10
113.0000
 20
162.0000
 30
0.0000
 40
0.5000
 50
90.0000
 51
180.0000
  0
LINE
  8
20
 10
112.5000
 20
162.0000
 30
0.0000
 11
112.5000
 21
161.0000
 31
0.0000
  0
ARC
  8
20
 10
113.0000
 20
161.0000
 30
0.0000
 40
0.5000
 50
180.0000
 51
270.0000
  0
LINE
  8
20
 10
140.0000
 20
158.5000
 30
0.0000
 11
113.0000
 21
158.5000
 31
0.0000
  0
ARC
  8
20
 10
113.0000
 20
158.0000
 30
0.0000
 40
0.5000
 50
90.0000
 51
180.0000
  0
LINE
  8
20
 10
112.5000
 20
158.0000
 30
0.0000
 11
112.5000
 21
157.0000
 31
0.0000
  0
ARC
  8
20
 10
113.0000
 20
157.0000
 30
0.0000
 40
0.5000
 50
180.0000
 51
270.0000
  0
LINE
  8
20
 10
113.0000
 20
156.5000
 30
0.0000
 11
140.0000
 21
156.5000
 31
0.0000
  0
ARC
  8
20
 10
140.0000
 20
157.0000
 30
0.0000
 40
0.5000
 50
270.0000
 51
0.0000
  0
LINE
  8
20
 10
140.5000
 20
157.0000
 30
0.0000
 11
140.5000
 21
158.0000
 31
0.0000
  0
ARC
  8
20
 10
140.0000
 20
158.0000
 30
0.0000
 40
0.5000
 50
0.0000
 51
90.0000
  0
LINE
  8
20
 10
113.0000
 20
152.5000
 30
0.0000
 11
140.0000
 21
152.5000
 31
0.0000
  0
ARC
  8
20
 10
140.0000
 20
153.0000
 30
0.0000
 40
0.5000
 50
270.0000
 51
0.0000
  0
LINE
  8
20
 10
140.5000
 20
153.0000
 30
0.0000
 11
140.5000
 21
154.0000
 31
0.0000
  0
ARC
  8
20
 10
140.0000
 20
154.0000
 30
0.0000
 40
0.5000
 50
0.0000
 51
90.0000
  0
LINE
  8
20
 10
140.0000
 20
154.5000
 30
0.0000
 11
113.0000
 21
154.5000
 31
0.0000
  0
ARC
  8
20
 10
113.0000
 20
154.0000
 30
0.0000
 40
0.5000
 50
90.0000
 51
180.0000
  0
LINE
  8
20
 10
112.5000
 20
154.0000
 30
0.0000
 11
112.5000
 21
153.0000
 31
0.0000
  0
ARC
  8
20
 10
113.0000
 20
153.0000
 30
0.0000
 40
0.5000
 50
180.0000
 51
270.0000
  0
LINE
  8
20
 10
112.5000
 20
101.5000
 30
0.0000
 11
112.5000
 21
99.5000
 31
0.0000
  0
LINE
  8
20
 10
112.5000
 20
99.5000
 30
0.0000
 11
140.5000
 21
99.5000
 31
0.0000
  0
LINE
  8
20
 10
140.5000
 20
99.5000
 30
0.0000
 11
140.5000
 21
101.5000
 31
0.0000
  0
LINE
  8
20
 10
140.5000
 20
101.5000
 30
0.0000
 11
112.5000
 21
101.5000
 31
0.0000
  0
LINE
  8
20
 10
112.5000
 20
97.5000
 30
0.0000
 11
112.5000
 21
95.5000
 31
0.0000
  0
LINE
  8
20
 10
112.5000
 20
95.5000
 30
0.0000
 11
140.5000
 21
95.5000
 31
0.0000
  0
LINE
  8
20
 10
140.5000
 20
95.5000
 30
0.0000
 11
140.5000
 21
97.5000
 31
0.0000
  0
LINE
  8
20
 10
140.5000
 20
97.5000
 30
0.0000
 11
112.5000
 21
97.5000
 31
0.0000
  0
LINE
  8
20
 10
112.5000
 20
93.5000
 30
0.0000
 11
112.5000
 21
91.5000
 31
0.0000
  0
LINE
  8
20
 10
112.5000
 20
91.5000
 30
0.0000
 11
140.5000
 21
91.5000
 31
0.0000
  0
LINE
  8
20
 10
140.5000
 20
91.5000
 30
0.0000
 11
140.5000
 21
93.5000
 31
0.0000
  0
LINE
  8
20
 10
140.5000
 20
93.5000
 30
0.0000
 11
112.5000
 21
93.5000
 31
0.0000
  0
LINE
  8
20
 10
160.5000
 20
89.5000
 30
0.0000
 11
160.5000
 21
87.5000
 31
0.0000
  0
ARC
  8
20
 10
161.0000
 20
87.5000
 30
0.0000
 40
0.5000
 50
180.0000
 51
270.0000
  0
LINE
  8
20
 10
176.5000
 20
89.5000
 30
0.0000
 11
176.5000
 21
87.5000
 31
0.0000
  0
ARC
  8
20
 10
176.0000
 20
87.5000
 30
0.0000
 40
0.5000
 50
270.0000
 51
0.0000
  0
LINE
  8
20
 10
176.0000
 20
87.0000
 30
0.0000
 11
161.0000
 21
87.0000
 31
0.0000
  0
LINE
  8
20
 10
151.0000
 20
89.5000
 30
0.0000
 11
151.0000
 21
91.0000
 31
0.0000
  0
LINE
  8
20
 10
151.0000
 20
96.0000
 30
0.0000
 11
151.0000
 21
128.0000
 31
0.0000
  0
LINE
  8
20
 10
151.0000
 20
133.0000
 30
0.0000
 11
151.0000
 21
162.0000
 31
0.0000
  0
LINE
  8
20
 10
151.0000
 20
167.0000
 30
0.0000
 11
151.0000
 21
168.5000
 31
0.0000
  0
LINE
  8
20
 10
176.5000
 20
168.5000
 30
0.0000
 11
176.5000
 21
170.5000
 31
0.0000
  0
ARC
  8
20
 10
176.0000
 20
170.5000
 30
0.0000
 40
0.5000
 50
0.0000
 51
90.0000
  0
LINE
  8
20
 10
160.5000
 20
168.5000
 30
0.0000
 11
160.5000
 21
170.5000
 31
0.0000
  0
ARC
  8
20
 10
161.0000
 20
170.5000
 30
0.0000
 40
0.5000
 50
90.0000
 51
180.0000
  0
LINE
  8
20
 10
161.0000
 20
171.0000
 30
0.0000
 11
176.0000
 21
171.0000
 31
0.0000
  0
LINE
  8
20
 10
186.0000
 20
168.5000
 30
0.0000
 11
186.0000
 21
167.0000
 31
0.0000
  0
LINE
  8
20
 10
186.0000
 20
162.0000
 30
0.0000
 11
186.0000
 21
133.0000
 31
0.0000
  0
LINE
  8
20
 10
186.0000
 20
128.0000
 30
0.0000
 11
186.0000
 21
96.0000
 31
0.0000
  0
LINE
  8
20
 10
186.0000
 20
91.0000
 30
0.0000
 11
186.0000
 21
89.5000
 31
0.0000
  0
LINE
  8
20
 10
151.0000
 20
167.0000
 30
0.0000
 11
149.0000
 21
167.0000
 31
0.0000
  0
ARC
  8
20
 10
149.0000
 20
166.0000
 30
0.0000
 40
1.0000
 50
90.0000
 51
180.0000
  0
LINE
  8
20
 10
148.0000
 20
166.0000
 30
0.0000
 11
148.0000
 21
163.0000
 31
0.0000
  0
ARC
  8
20
 10
149.0000
 20
163.0000
 30
0.0000
 40
1.0000
 50
180.0000
 51
270.0000
  0
LINE
  8
20
 10
149.0000
 20
162.0000
 30
0.0000
 11
151.0000
 21
162.0000
 31
0.0000
  0
LINE
  8
20
 10
151.0000
 20
133.0000
 30
0.0000
 11
149.0000
 21
133.0000
 31
0.0000
  0
ARC
  8
20
 10
149.0000
 20
132.0000
 30
0.0000
 40
1.0000
 50
90.0000
 51
180.0000
  0
LINE
  8
20
 10
148.0000
 20
132.0000
 30
0.0000
 11
148.0000
 21
129.0000
 31
0.0000
  0
ARC
  8
20
 10
149.0000
 20
129.0000
 30
0.0000
 40
1.0000
 50
180.0000
 51
270.0000
  0
LINE
  8
20
 10
149.0000
 20
128.0000
 30
0.0000
 11
151.0000
 21
128.0000
 31
0.0000
  0
LINE
  8
20
 10
148.0000
 20
92.0000
 30
0.0000
 11
148.0000
 21
95.0000
 31
0.0000
  0
ARC
  8
20
 10
149.0000
 20
95.0000
 30
0.0000
 40
1.0000
 50
90.0000
 51
180.0000
  0
LINE
  8
20
 10
149.0000
 20
96.0000
 30
0.0000
 11
151.0000
 21
96.0000
 31
0.0000
  0
ARC
  8
20
 10
149.0000
 20
92.0000
 30
0.0000
 40
1.0000
 50
180.0000
 51
270.0000
  0
LINE
  8
20
 10
149.0000
 20
91.0000
 30
0.0000
 11
151.0000
 21
91.0000
 31
0.0000
  0
LINE
  8
20
 10
186.0000
 20
91.0000
 30
0.0000
 11
188.0000
 21
91.0000
 31
0.0000
  0
ARC
  8
20
 10
188.0000
 20
92.0000
 30
0.0000
 40
1.0000
 50
270.0000
 51
0.0000
  0
LINE
  8
20
 10
189.0000
 20
92.0000
 30
0.0000
 11
189.0000
 21
95.0000
 31
0.0000
  0
ARC
  8
20
 10
188.0000
 20
95.0000
 30
0.0000
 40
1.0000
 50
0.0000
 51
90.0000
  0
LINE
  8
20
 10
188.0000
 20
96.0000
 30
0.0000
 11
186.0000
 21
96.0000
 31
0.0000
  0
LINE
  8
20
 10
186.0000
 20
128.0000
 30
0.0000
 11
188.0000
 21
128.0000
 31
0.0000
  0
ARC
  8
20
 10
188.0000
 20
129.0000
 30
0.0000
 40
1.0000
 50
270.0000
 51
0.0000
  0
LINE
  8
20
 10
189.0000
 20
129.0000
 30
0.0000
 11
189.0000
 21
132.0000
 31
0.0000
  0
ARC
  8
20
 10
188.0000
 20
132.0000
 30
0.0000
 40
1.0000
 50
0.0000
 51
90.0000
  0
LINE
  8
20
 10
188.0000
 20
133.0000
 30
0.0000
 11
186.0000
 21
133.0000
 31
0.0000
  0
LINE
  8
20
 10
189.0000
 20
166.0000
 30
0.0000
 11
189.0000
 21
163.0000
 31
0.0000
  0
ARC
  8
20
 10
188.0000
 20
163.0000
 30
0.0000
 40
1.0000
 50
270.0000
 51
0.0000
  0
LINE
  8
20
 10
188.0000
 20
162.0000
 30
0.0000
 11
186.0000
 21
162.0000
 31
0.0000
  0
ARC
  8
20
 10
188.0000
 20
166.0000
 30
0.0000
 40
1.0000
 50
0.0000
 51
90.0000
  0
LINE
  8
20
 10
188.0000
 20
167.0000
 30
0.0000
 11
186.0000
 21
167.0000
 31
0.0000
  0
LINE
  8
20
 10
151.0000
 20
89.5000
 30
0.0000
 11
160.5000
 21
89.5000
 31
0.0000
  0
LINE
  8
20
 10
186.0000
 20
89.5000
 30
0.0000
 11
176.5000
 21
89.5000
 31
0.0000
  0
LINE
  8
20
 10
186.0000
 20
168.5000
 30
0.0000
 11
176.5000
 21
168.5000
 31
0.0000
  0
LINE
  8
20
 10
151.0000
 20
168.5000
 30
0.0000
 11
160.5000
 21
168.5000
 31
0.0000
  0
LINE
  8
20
 10
155.0000
 20
164.5000
 30
0.0000
 11
182.0000
 21
164.5000
 31
0.0000
  0
ARC
  8
20
 10
182.0000
 20
165.0000
 30
0.0000
 40
0.5000
 50
270.0000
 51
0.0000
  0
LINE
  8
20
 10
182.5000
 20
165.0000
 30
0.0000
 11
182.5000
 21
166.0000
 31
0.0000
  0
ARC
  8
20
 10
182.0000
 20
166.0000
 30
0.0000
 40
0.5000
 50
0.0000
 51
90.0000
  0
LINE
  8
20
 10
182.0000
 20
166.5000
 30
0.0000
 11
155.0000
 21
166.5000
 31
0.0000
  0
ARC
  8
20
 10
155.0000
 20
166.0000
 30
0.0000
 40
0.5000
 50
90.0000
 51
180.0000
  0
LINE
  8
20
 10
154.5000
 20
166.0000
 30
0.0000
 11
154.5000
 21
165.0000
 31
0.0000
  0
ARC
  8
20
 10
155.0000
 20
165.0000
 30
0.0000
 40
0.5000
 50
180.0000
 51
270.0000
  0
LINE
  8
20
 10
182.5000
 20
161.0000
 30
0.0000
 11
182.5000
 21
162.0000
 31
0.0000
  0
ARC
  8
20
 10
182.0000
 20
162.0000
 30
0.0000
 40
0.5000
 50
0.0000
 51
90.0000
  0
LINE
  8
20
 10
182.0000
 20
162.5000
 30
0.0000
 11
155.0000
 21
162.5000
 31
0.0000
  0
ARC
  8
20
 10
155.0000
 20
162.0000
 30
0.0000
 40
0.5000
 50
90.0000
 51
180.0000
  0
LINE
  8
20
 10
154.5000
 20
162.0000
 30
0.0000
 11
154.5000
 21
161.0000
 31
0.0000
  0
ARC
  8
20
 10
155.0000
 20
161.0000
 30
0.0000
 40
0.5000
 50
180.0000
 51
270.0000
  0
LINE
  8
20
 10
155.0000
 20
160.5000
 30
0.0000
 11
182.0000
 21
160.5000
 31
0.0000
  0
ARC
  8
20
 10
182.0000
 20
161.0000
 30
0.0000
 40
0.5000
 50
270.0000
 51
0.0000
  0
LINE
  8
20
 10
182.5000
 20
157.0000
 30
0.0000
 11
182.5000
 21
158.0000
 31
0.0000
  0
ARC
  8
20
 10
182.0000
 20
158.0000
 30
0.0000
 40
0.5000
 50
0.0000
 51
90.0000
  0
LINE
  8
20
 10
182.0000
 20
158.5000
 30
0.0000
 11
155.0000
 21
158.5000
 31
0.0000
  0
ARC
  8
20
 10
155.0000
 20
158.0000
 30
0.0000
 40
0.5000
 50
90.0000
 51
180.0000
  0
LINE
  8
20
 10
154.5000
 20
158.0000
 30
0.0000
 11
154.5000
 21
157.0000
 31
0.0000
  0
ARC
  8
20
 10
155.0000
 20
157.0000
 30
0.0000
 40
0.5000
 50
180.0000
 51
270.0000
  0
LINE
  8
20
 10
155.0000
 20
156.5000
 30
0.0000
 11
182.0000
 21
156.5000
 31
0.0000
  0
ARC
  8
20
 10
182.0000
 20
157.0000
 30
0.0000
 40
0.5000
 50
270.0000
 51
0.0000
  0
LINE
  8
20
 10
182.5000
 20
153.0000
 30
0.0000
 11
182.5000
 21
154.0000
 31
0.0000
  0
ARC
  8
20
 10
182.0000
 20
154.0000
 30
0.0000
 40
0.5000
 50
0.0000
 51
90.0000
  0
LINE
  8
20
 10
182.0000
 20
154.5000
 30
0.0000
 11
155.0000
 21
154.5000
 31
0.0000
  0
ARC
  8
20
 10
155.0000
 20
154.0000
 30
0.0000
 40
0.5000
 50
90.0000
 51
180.0000
  0
LINE
  8
20
 10
154.5000
 20
154.0000
 30
0.0000
 11
154.5000
 21
153.0000
 31
0.0000
  0
ARC
  8
20
 10
155.0000
 20
153.0000
 30
0.0000
 40
0.5000
 50
180.0000
 51
270.0000
  0
LINE
  8
20
 10
155.0000
 20
152.5000
 30
0.0000
 11
182.0000
 21
152.5000
 31
0.0000
  0
ARC
  8
20
 10
182.0000
 20
153.0000
 30
0.0000
 40
0.5000
 50
270.0000
 51
0.0000
  0
LINE
  8
20
 10
182.0000
 20
101.5000
 30
0.0000
 11
155.0000
 21
101.5000
 31
0.0000
  0
ARC
  8
20
 10
155.0000
 20
101.0000
 30
0.0000
 40
0.5000
 50
90.0000
 51
180.0000
  0
LINE
  8
20
 10
154.5000
 20
101.0000
 30
0.0000
 11
154.5000
 21
100.0000
 31
0.0000
  0
ARC
  8
20
 10
155.0000
 20
100.0000
 30
0.0000
 40
0.5000
 50
180.0000
 51
270.0000
  0
LINE
  8
20
 10
155.0000
 20
99.5000
 30
0.0000
 11
182.0000
 21
99.5000
 31
0.0000
  0
ARC
  8
20
 10
182.0000
 20
100.0000
 30
0.0000
 40
0.5000
 50
270.0000
 51
0.0000
  0
LINE
  8
20
 10
182.5000
 20
100.0000
 30
0.0000
 11
182.5000
 21
101.0000
 31
0.0000
  0
ARC
  8
20
 10
182.0000
 20
101.0000
 30
0.0000
 40
0.5000
 50
0.0000
 51
90.0000
  0
LINE
  8
20
 10
182.0000
 20
97.5000
 30
0.0000
 11
155.0000
 21
97.5000
 31
0.0000
  0
ARC
  8
20
 10
155.0000
 20
97.0000
 30
0.0000
 40
0.5000
 50
90.0000
 51
180.0000
  0
LINE
  8
20
 10
154.5000
 20
97.0000
 30
0.0000
 11
154.5000
 21
96.0000
 31
0.0000
  0
ARC
  8
20
 10
155.0000
 20
96.0000
 30
0.0000
 40
0.5000
 50
180.0000
 51
270.0000
  0
LINE
  8
20
 10
155.0000
 20
95.5000
 30
0.0000
 11
182.0000
 21
95.5000
 31
0.0000
  0
ARC
  8
20
 10
182.0000
 20
96.0000
 30
0.0000
 40
0.5000
 50
270.0000
 51
0.0000
  0
LINE
  8
20
 10
182.5000
 20
96.0000
 30
0.0000
 11
182.5000
 21
97.0000
 31
0.0000
  0
ARC
  8
20
 10
182.0000
 20
97.0000
 30
0.0000
 40
0.5000
 50
0.0000
 51
90.0000
  0
LINE
  8
20
 10
182.0000
 20
93.5000
 30
0.0000
 11
155.0000
 21
93.5000
 31
0.0000
  0
ARC
  8
20
 10
155.0000
 20
93.0000
 30
0.0000
 40
0.5000
 50
90.0000
 51
180.0000
  0
LINE
  8
20
 10
154.5000
 20
93.0000
 30
0.0000
 11
154.5000
 21
92.0000
 31
0.0000
  0
ARC
  8
20
 10
155.0000
 20
92.0000
 30
0.0000
 40
0.5000
 50
180.0000
 51
270.0000
  0
LINE
  8
20
 10
155.0000
 20
91.5000
 30
0.0000
 11
182.0000
 21
91.5000
 31
0.0000
  0
ARC
  8
20
 10
182.0000
 20
92.0000
 30
0.0000
 40
0.5000
 50
270.0000
 51
0.0000
  0
LINE
  8
20
 10
182.5000
 20
92.0000
 30
0.0000
 11
182.5000
 21
93.0000
 31
0.0000
  0
ARC
  8
20
 10
182.0000
 20
93.0000
 30
0.0000
 40
0.5000
 50
0.0000
 51
90.0000
  0
LINE
  8
20
 10
4.0000
 20
143.5000
 30
0.0000
 11
5.0000
 21
143.5000
 31
0.0000
  0
ARC
  8
20
 10
5.0000
 20
144.0000
 30
0.0000
 40
0.5000
 50
270.0000
 51
0.0000
  0
LINE
  8
20
 10
5.5000
 20
144.0000
 30
0.0000
 11
5.5000
 21
149.0000
 31
0.0000
  0
ARC
  8
20
 10
5.0000
 20
149.0000
 30
0.0000
 40
0.5000
 50
0.0000
 51
90.0000
  0
LINE
  8
20
 10
5.0000
 20
149.5000
 30
0.0000
 11
4.0000
 21
149.5000
 31
0.0000
  0
ARC
  8
20
 10
4.0000
 20
149.0000
 30
0.0000
 40
0.5000
 50
90.0000
 51
180.0000
  0
LINE
  8
20
 10
3.5000
 20
149.0000
 30
0.0000
 11
3.5000
 21
144.0000
 31
0.0000
  0
ARC
  8
20
 10
4.0000
 20
144.0000
 30
0.0000
 40
0.5000
 50
180.0000
 51
270.0000
  0
LINE
  8
20
 10
73.5000
 20
91.0000
 30
0.0000
 11
73.5000
 21
93.0000
 31
0.0000
  0
ARC
  8
20
 10
73.0000
 20
93.0000
 30
0.0000
 40
0.5000
 50
0.0000
 51
90.0000
  0
LINE
  8
20
 10
73.0000
 20
93.5000
 30
0.0000
 11
70.5000
 21
93.5000
 31
0.0000
  0
ARC
  8
20
 10
70.5000
 20
93.0000
 30
0.0000
 40
0.5000
 50
90.0000
 51
180.0000
  0
LINE
  8
20
 10
70.0000
 20
93.0000
 30
0.0000
 11
70.0000
 21
91.0000
 31
0.0000
  0
ARC
  8
20
 10
70.5000
 20
91.0000
 30
0.0000
 40
0.5000
 50
180.0000
 51
270.0000
  0
LINE
  8
20
 10
70.5000
 20
90.5000
 30
0.0000
 11
73.0000
 21
90.5000
 31
0.0000
  0
ARC
  8
20
 10
73.0000
 20
91.0000
 30
0.0000
 40
0.5000
 50
270.0000
 51
0.0000
  0
LINE
  8
20
 10
60.0000
 20
164.5000
 30
0.0000
 11
60.0000
 21
166.0000
 31
0.0000
  0
ARC
  8
20
 10
60.5000
 20
166.0000
 30
0.0000
 40
0.5000
 50
90.0000
 51
180.0000
  0
LINE
  8
20
 10
60.5000
 20
166.5000
 30
0.0000
 11
62.5000
 21
166.5000
 31
0.0000
  0
ARC
  8
20
 10
62.5000
 20
166.0000
 30
0.0000
 40
0.5000
 50
0.0000
 51
90.0000
  0
LINE
  8
20
 10
63.0000
 20
166.0000
 30
0.0000
 11
63.0000
 21
164.5000
 31
0.0000
  0
LINE
  8
20
 10
63.0000
 20
164.5000
 30
0.0000
 11
60.0000
 21
164.5000
 31
0.0000
  0
LINE
  8
20
 10
96.0000
 20
164.0000
 30
0.0000
 11
96.0000
 21
165.0000
 31
0.0000
  0
ARC
  8
20
 10
97.0000
 20
165.0000
 30
0.0000
 40
1.0000
 50
90.0000
 51
180.0000
  0
LINE
  8
20
 10
97.0000
 20
166.0000
 30
0.0000
 11
98.0000
 21
166.0000
 31
0.0000
  0
ARC
  8
20
 10
98.0000
 20
165.0000
 30
0.0000
 40
1.0000
 50
0.0000
 51
90.0000
  0
LINE
  8
20
 10
99.0000
 20
165.0000
 30
0.0000
 11
99.0000
 21
164.0000
 31
0.0000
  0
LINE
  8
20
 10
99.0000
 20
164.0000
 30
0.0000
 11
96.0000
 21
164.0000
 31
0.0000
  0
LINE
  8
20
 10
99.5000
 20
103.5000
 30
0.0000
 11
99.5000
 21
101.5000
 31
0.0000
  0
ARC
  8
20
 10
99.0000
 20
101.5000
 30
0.0000
 40
0.5000
 50
270.0000
 51
0.0000
  0
LINE
  8
20
 10
99.0000
 20
101.0000
 30
0.0000
 11
98.0000
 21
101.0000
 31
0.0000
  0
ARC
  8
20
 10
98.0000
 20
101.5000
 30
0.0000
 40
0.5000
 50
180.0000
 51
270.0000
  0
LINE
  8
20
 10
97.5000
 20
101.5000
 30
0.0000
 11
97.5000
 21
103.5000
 31
0.0000
  0
ARC
  8
20
 10
98.0000
 20
103.5000
 30
0.0000
 40
0.5000
 50
90.0000
 51
180.0000
  0
LINE
  8
20
 10
98.0000
 20
104.0000
 30
0.0000
 11
99.0000
 21
104.0000
 31
0.0000
  0
ARC
  8
20
 10
99.0000
 20
103.5000
 30
0.0000
 40
0.5000
 50
0.0000
 51
90.0000
  0
LINE
  8
20
 10
105.0000
 20
1.0000
 30
0.0000
 11
105.0000
 21
85.0000
 31
0.0000
  0
ARC
  8
20
 10
106.0000
 20
85.0000
 30
0.0000
 40
1.0000
 50
90.0000
 51
180.0000
  0
LINE
  8
20
 10
106.0000
 20
86.0000
 30
0.0000
 11
210.0000
 21
86.0000
 31
0.0000
  0
ARC
  8
20
 10
210.0000
 20
85.0000
 30
0.0000
 40
1.0000
 50
0.0000
 51
90.0000
  0
LINE
  8
20
 10
211.0000
 20
85.0000
 30
0.0000
 11
211.0000
 21
1.0000
 31
0.0000
  0
ARC
  8
20
 10
210.0000
 20
1.0000
 30
0.0000
 40
1.0000
 50
270.0000
 51
0.0000
  0
LINE
  8
20
 10
210.0000
 20
0.0000
 30
0.0000
 11
106.0000
 21
0.0000
 31
0.0000
  0
ARC
  8
20
 10
106.0000
 20
1.0000
 30
0.0000
 40
1.0000
 50
180.0000
 51
270.0000
  0
LINE
  8
20
 10
110.0000
 20
82.0000
 30
0.0000
 11
115.0000
 21
82.0000
 31
0.0000
  0
ARC
  8
20
 10
115.0000
 20
82.5000
 30
0.0000
 40
0.5000
 50
270.0000
 51
0.0000
  0
LINE
  8
20
 10
115.5000
 20
82.5000
 30
0.0000
 11
115.5000
 21
84.5000
 31
0.0000
  0
ARC
  8
20
 10
115.0000
 20
84.5000
 30
0.0000
 40
0.5000
 50
0.0000
 51
90.0000
  0
LINE
  8
20
 10
115.0000
 20
85.0000
 30
0.0000
 11
110.0000
 21
85.0000
 31
0.0000
  0
ARC
  8
20
 10
110.0000
 20
84.5000
 30
0.0000
 40
0.5000
 50
90.0000
 51
180.0000
  0
LINE
  8
20
 10
109.5000
 20
84.5000
 30
0.0000
 11
109.5000
 21
82.5000
 31
0.0000
  0
ARC
  8
20
 10
110.0000
 20
82.5000
 30
0.0000
 40
0.5000
 50
180.0000
 51
270.0000
  0
LINE
  8
20
 10
206.5000
 20
82.5000
 30
0.0000
 11
206.5000
 21
84.5000
 31
0.0000
  0
ARC
  8
20
 10
206.0000
 20
84.5000
 30
0.0000
 40
0.5000
 50
0.0000
 51
90.0000
  0
LINE
  8
20
 10
206.0000
 20
85.0000
 30
0.0000
 11
201.0000
 21
85.0000
 31
0.0000
  0
ARC
  8
20
 10
201.0000
 20
84.5000
 30
0.0000
 40
0.5000
 50
90.0000
 51
180.0000
  0
LINE
  8
20
 10
200.5000
 20
84.5000
 30
0.0000
 11
200.5000
 21
82.5000
 31
0.0000
  0
ARC
  8
20
 10
201.0000
 20
82.5000
 30
0.0000
 40
0.5000
 50
180.0000
 51
270.0000
  0
LINE
  8
20
 10
201.0000
 20
82.0000
 30
0.0000
 11
206.0000
 21
82.0000
 31
0.0000
  0
ARC
  8
20
 10
206.0000
 20
82.5000
 30
0.0000
 40
0.5000
 50
270.0000
 51
0.0000
  0
LINE
  8
20
 10
207.0000
 20
81.0000
 30
0.0000
 11
207.0000
 21
76.0000
 31
0.0000
  0
ARC
  8
20
 10
207.5000
 20
76.0000
 30
0.0000
 40
0.5000
 50
180.0000
 51
270.0000
  0
LINE
  8
20
 10
207.5000
 20
75.5000
 30
0.0000
 11
209.5000
 21
75.5000
 31
0.0000
  0
ARC
  8
20
 10
209.5000
 20
76.0000
 30
0.0000
 40
0.5000
 50
270.0000
 51
0.0000
  0
LINE
  8
20
 10
210.0000
 20
76.0000
 30
0.0000
 11
210.0000
 21
81.0000
 31
0.0000
  0
ARC
  8
20
 10
209.5000
 20
81.0000
 30
0.0000
 40
0.5000
 50
0.0000
 51
90.0000
  0
LINE
  8
20
 10
209.5000
 20
81.5000
 30
0.0000
 11
207.5000
 21
81.5000
 31
0.0000
  0
ARC
  8
20
 10
207.5000
 20
81.0000
 30
0.0000
 40
0.5000
 50
90.0000
 51
180.0000
  0
LINE
  8
20
 10
209.5000
 20
10.5000
 30
0.0000
 11
207.5000
 21
10.5000
 31
0.0000
  0
ARC
  8
20
 10
207.5000
 20
10.0000
 30
0.0000
 40
0.5000
 50
90.0000
 51
180.0000
  0
LINE
  8
20
 10
207.0000
 20
10.0000
 30
0.0000
 11
207.0000
 21
5.0000
 31
0.0000
  0
ARC
  8
20
 10
207.5000
 20
5.0000
 30
0.0000
 40
0.5000
 50
180.0000
 51
270.0000
  0
LINE
  8
20
 10
207.5000
 20
4.5000
 30
0.0000
 11
209.5000
 21
4.5000
 31
0.0000
  0
ARC
  8
20
 10
209.5000
 20
5.0000
 30
0.0000
 40
0.5000
 50
270.0000
 51
0.0000
  0
LINE
  8
20
 10
210.0000
 20
5.0000
 30
0.0000
 11
210.0000
 21
10.0000
 31
0.0000
  0
ARC
  8
20
 10
209.5000
 20
10.0000
 30
0.0000
 40
0.5000
 50
0.0000
 51
90.0000
  0
LINE
  8
20
 10
206.0000
 20
4.0000
 30
0.0000
 11
201.0000
 21
4.0000
 31
0.0000
  0
ARC
  8
20
 10
201.0000
 20
3.5000
 30
0.0000
 40
0.5000
 50
90.0000
 51
180.0000
  0
LINE
  8
20
 10
200.5000
 20
3.5000
 30
0.0000
 11
200.5000
 21
1.5000
 31
0.0000
  0
ARC
  8
20
 10
201.0000
 20
1.5000
 30
0.0000
 40
0.5000
 50
180.0000
 51
270.0000
  0
LINE
  8
20
 10
201.0000
 20
1.0000
 30
0.0000
 11
205.5000
 21
1.0000
 31
0.0000
  0
ARC
  8
20
 10
205.5000
 20
2.0000
 30
0.0000
 40
1.0000
 50
270.0000
 51
0.0000
  0
LINE
  8
20
 10
206.5000
 20
2.0000
 30
0.0000
 11
206.5000
 21
3.5000
 31
0.0000
  0
ARC
  8
20
 10
206.0000
 20
3.5000
 30
0.0000
 40
0.5000
 50
0.0000
 51
90.0000
  0
LINE
  8
20
 10
106.0000
 20
81.0000
 30
0.0000
 11
106.0000
 21
76.0000
 31
0.0000
  0
ARC
  8
20
 10
106.5000
 20
76.0000
 30
0.0000
 40
0.5000
 50
180.0000
 51
270.0000
  0
LINE
  8
20
 10
106.5000
 20
75.5000
 30
0.0000
 11
108.5000
 21
75.5000
 31
0.0000
  0
ARC
  8
20
 10
108.5000
 20
76.0000
 30
0.0000
 40
0.5000
 50
270.0000
 51
0.0000
  0
LINE
  8
20
 10
109.0000
 20
76.0000
 30
0.0000
 11
109.0000
 21
81.0000
 31
0.0000
  0
ARC
  8
20
 10
108.5000
 20
81.0000
 30
0.0000
 40
0.5000
 50
0.0000
 51
90.0000
  0
LINE
  8
20
 10
108.5000
 20
81.5000
 30
0.0000
 11
106.5000
 21
81.5000
 31
0.0000
  0
ARC
  8
20
 10
106.5000
 20
81.0000
 30
0.0000
 40
0.5000
 50
90.0000
 51
180.0000
  0
LINE
  8
20
 10
110.0000
 20
1.0000
 30
0.0000
 11
115.0000
 21
1.0000
 31
0.0000
  0
ARC
  8
20
 10
115.0000
 20
1.5000
 30
0.0000
 40
0.5000
 50
270.0000
 51
0.0000
  0
LINE
  8
20
 10
115.5000
 20
1.5000
 30
0.0000
 11
115.5000
 21
3.5000
 31
0.0000
  0
ARC
  8
20
 10
115.0000
 20
3.5000
 30
0.0000
 40
0.5000
 50
0.0000
 51
90.0000
  0
LINE
  8
20
 10
115.0000
 20
4.0000
 30
0.0000
 11
110.0000
 21
4.0000
 31
0.0000
  0
ARC
  8
20
 10
110.0000
 20
3.5000
 30
0.0000
 40
0.5000
 50
90.0000
 51
180.0000
  0
LINE
  8
20
 10
109.5000
 20
3.5000
 30
0.0000
 11
109.5000
 21
1.5000
 31
0.0000
  0
ARC
  8
20
 10
110.0000
 20
1.5000
 30
0.0000
 40
0.5000
 50
180.0000
 51
270.0000
  0
LINE
  8
20
 10
106.0000
 20
13.0000
 30
0.0000
 11
106.0000
 21
8.0000
 31
0.0000
  0
ARC
  8
20
 10
106.5000
 20
8.0000
 30
0.0000
 40
0.5000
 50
180.0000
 51
270.0000
  0
LINE
  8
20
 10
106.5000
 20
7.5000
 30
0.0000
 11
108.5000
 21
7.5000
 31
0.0000
  0
ARC
  8
20
 10
108.5000
 20
8.0000
 30
0.0000
 40
0.5000
 50
270.0000
 51
0.0000
  0
LINE
  8
20
 10
109.0000
 20
8.0000
 30
0.0000
 11
109.0000
 21
13.0000
 31
0.0000
  0
ARC
  8
20
 10
108.5000
 20
13.0000
 30
0.0000
 40
0.5000
 50
0.0000
 51
90.0000
  0
LINE
  8
20
 10
108.5000
 20
13.5000
 30
0.0000
 11
106.5000
 21
13.5000
 31
0.0000
  0
ARC
  8
20
 10
106.5000
 20
13.0000
 30
0.0000
 40
0.5000
 50
90.0000
 51
180.0000
  0
LINE
  8
20
 10
106.0000
 20
47.0000
 30
0.0000
 11
106.0000
 21
42.0000
 31
0.0000
  0
ARC
  8
20
 10
106.5000
 20
42.0000
 30
0.0000
 40
0.5000
 50
180.0000
 51
270.0000
  0
LINE
  8
20
 10
106.5000
 20
41.5000
 30
0.0000
 11
108.5000
 21
41.5000
 31
0.0000
  0
ARC
  8
20
 10
108.5000
 20
42.0000
 30
0.0000
 40
0.5000
 50
270.0000
 51
0.0000
  0
LINE
  8
20
 10
109.0000
 20
42.0000
 30
0.0000
 11
109.0000
 21
47.0000
 31
0.0000
  0
ARC
  8
20
 10
108.5000
 20
47.0000
 30
0.0000
 40
0.5000
 50
0.0000
 51
90.0000
  0
LINE
  8
20
 10
108.5000
 20
47.5000
 30
0.0000
 11
106.5000
 21
47.5000
 31
0.0000
  0
ARC
  8
20
 10
106.5000
 20
47.0000
 30
0.0000
 40
0.5000
 50
90.0000
 51
180.0000
  0
LINE
  8
20
 10
155.0000
 20
1.0000
 30
0.0000
 11
160.0000
 21
1.0000
 31
0.0000
  0
ARC
  8
20
 10
160.0000
 20
1.5000
 30
0.0000
 40
0.5000
 50
270.0000
 51
0.0000
  0
LINE
  8
20
 10
160.5000
 20
1.5000
 30
0.0000
 11
160.5000
 21
3.5000
 31
0.0000
  0
ARC
  8
20
 10
160.0000
 20
3.5000
 30
0.0000
 40
0.5000
 50
0.0000
 51
90.0000
  0
LINE
  8
20
 10
160.0000
 20
4.0000
 30
0.0000
 11
155.0000
 21
4.0000
 31
0.0000
  0
ARC
  8
20
 10
155.0000
 20
3.5000
 30
0.0000
 40
0.5000
 50
90.0000
 51
180.0000
  0
LINE
  8
20
 10
154.5000
 20
3.5000
 30
0.0000
 11
154.5000
 21
1.5000
 31
0.0000
  0
ARC
  8
20
 10
155.0000
 20
1.5000
 30
0.0000
 40
0.5000
 50
180.0000
 51
270.0000
  0
LINE
  8
20
 10
160.0000
 20
85.0000
 30
0.0000
 11
155.0000
 21
85.0000
 31
0.0000
  0
ARC
  8
20
 10
155.0000
 20
84.5000
 30
0.0000
 40
0.5000
 50
90.0000
 51
180.0000
  0
LINE
  8
20
 10
154.5000
 20
84.5000
 30
0.0000
 11
154.5000
 21
82.5000
 31
0.0000
  0
ARC
  8
20
 10
155.0000
 20
82.5000
 30
0.0000
 40
0.5000
 50
180.0000
 51
270.0000
  0
LINE
  8
20
 10
155.0000
 20
82.0000
 30
0.0000
 11
160.0000
 21
82.0000
 31
0.0000
  0
ARC
  8
20
 10
160.0000
 20
82.5000
 30
0.0000
 40
0.5000
 50
270.0000
 51
0.0000
  0
LINE
  8
20
 10
160.5000
 20
82.5000
 30
0.0000
 11
160.5000
 21
84.5000
 31
0.0000
  0
ARC
  8
20
 10
160.0000
 20
84.5000
 30
0.0000
 40
0.5000
 50
0.0000
 51
90.0000
  0
LINE
  8
20
 10
210.0000
 20
42.0000
 30
0.0000
 11
210.0000
 21
47.0000
 31
0.0000
  0
ARC
  8
20
 10
209.5000
 20
47.0000
 30
0.0000
 40
0.5000
 50
0.0000
 51
90.0000
  0
LINE
  8
20
 10
209.5000
 20
47.5000
 30
0.0000
 11
207.5000
 21
47.5000
 31
0.0000
  0
ARC
  8
20
 10
207.5000
 20
47.0000
 30
0.0000
 40
0.5000
 50
90.0000
 51
180.0000
  0
LINE
  8
20
 10
207.0000
 20
47.0000
 30
0.0000
 11
207.0000
 21
42.0000
 31
0.0000
  0
ARC
  8
20
 10
207.5000
 20
42.0000
 30
0.0000
 40
0.5000
 50
180.0000
 51
270.0000
  0
LINE
  8
20
 10
207.5000
 20
41.5000
 30
0.0000
 11
209.5000
 21
41.5000
 31
0.0000
  0
ARC
  8
20
 10
209.5000
 20
42.0000
 30
0.0000
 40
0.5000
 50
270.0000
 51
0.0000
  0
LINE
  8
20
 10
111.0000
 20
63.5000
 30
0.0000
 11
110.0000
 21
63.5000
 31
0.0000
  0
ARC
  8
20
 10
110.0000
 20
63.0000
 30
0.0000
 40
0.5000
 50
90.0000
 51
180.0000
  0
LINE
  8
20
 10
109.5000
 20
63.0000
 30
0.0000
 11
109.5000
 21
58.0000
 31
0.0000
  0
ARC
  8
20
 10
110.0000
 20
58.0000
 30
0.0000
 40
0.5000
 50
180.0000
 51
270.0000
  0
LINE
  8
20
 10
110.0000
 20
57.5000
 30
0.0000
 11
111.0000
 21
57.5000
 31
0.0000
  0
ARC
  8
20
 10
111.0000
 20
58.0000
 30
0.0000
 40
0.5000
 50
270.0000
 51
0.0000
  0
LINE
  8
20
 10
111.5000
 20
58.0000
 30
0.0000
 11
111.5000
 21
63.0000
 31
0.0000
  0
ARC
  8
20
 10
111.0000
 20
63.0000
 30
0.0000
 40
0.5000
 50
0.0000
 51
90.0000
  0
LINE
  8
20
 10
179.0000
 20
7.5000
 30
0.0000
 11
176.5000
 21
7.5000
 31
0.0000
  0
ARC
  8
20
 10
176.5000
 20
7.0000
 30
0.0000
 40
0.5000
 50
90.0000
 51
180.0000
  0
LINE
  8
20
 10
176.0000
 20
7.0000
 30
0.0000
 11
176.0000
 21
5.0000
 31
0.0000
  0
ARC
  8
20
 10
176.5000
 20
5.0000
 30
0.0000
 40
0.5000
 50
180.0000
 51
270.0000
  0
LINE
  8
20
 10
176.5000
 20
4.5000
 30
0.0000
 11
179.0000
 21
4.5000
 31
0.0000
  0
ARC
  8
20
 10
179.0000
 20
5.0000
 30
0.0000
 40
0.5000
 50
270.0000
 51
0.0000
  0
LINE
  8
20
 10
179.5000
 20
5.0000
 30
0.0000
 11
179.5000
 21
7.0000
 31
0.0000
  0
ARC
  8
20
 10
179.0000
 20
7.0000
 30
0.0000
 40
0.5000
 50
0.0000
 51
90.0000
  0
LINE
  8
20
 10
168.5000
 20
78.5000
 30
0.0000
 11
166.5000
 21
78.5000
 31
0.0000
  0
ARC
  8
20
 10
166.5000
 20
79.0000
 30
0.0000
 40
0.5000
 50
180.0000
 51
270.0000
  0
LINE
  8
20
 10
166.0000
 20
79.0000
 30
0.0000
 11
166.0000
 21
80.0000
 31
0.0000
  0
ARC
  8
20
 10
166.5000
 20
80.0000
 30
0.0000
 40
0.5000
 50
90.0000
 51
180.0000
  0
LINE
  8
20
 10
166.5000
 20
80.5000
 30
0.0000
 11
168.5000
 21
80.5000
 31
0.0000
  0
ARC
  8
20
 10
168.5000
 20
80.0000
 30
0.0000
 40
0.5000
 50
0.0000
 51
90.0000
  0
LINE
  8
20
 10
169.0000
 20
80.0000
 30
0.0000
 11
169.0000
 21
79.0000
 31
0.0000
  0
ARC
  8
20
 10
168.5000
 20
79.0000
 30
0.0000
 40
0.5000
 50
270.0000
 51
0.0000
  0
LINE
  8
20
 10
204.0000
 20
78.0000
 30
0.0000
 11
203.0000
 21
78.0000
 31
0.0000
  0
ARC
  8
20
 10
203.0000
 20
79.0000
 30
0.0000
 40
1.0000
 50
180.0000
 51
270.0000
  0
ARC
  8
20
 10
203.0000
 20
79.0000
 30
0.0000
 40
1.0000
 50
90.0000
 51
180.0000
  0
LINE
  8
20
 10
203.0000
 20
80.0000
 30
0.0000
 11
204.0000
 21
80.0000
 31
0.0000
  0
ARC
  8
20
 10
204.0000
 20
79.0000
 30
0.0000
 40
1.0000
 50
0.0000
 51
90.0000
  0
ARC
  8
20
 10
204.0000
 20
79.0000
 30
0.0000
 40
1.0000
 50
270.0000
 51
0.0000
  0
LINE
  8
20
 10
205.0000
 20
15.0000
 30
0.0000
 11
204.0000
 21
15.0000
 31
0.0000
  0
ARC
  8
20
 10
204.0000
 20
15.5000
 30
0.0000
 40
0.5000
 50
180.0000
 51
270.0000
  0
LINE
  8
20
 10
203.5000
 20
15.5000
 30
0.0000
 11
203.5000
 21
17.5000
 31
0.0000
  0
ARC
  8
20
 10
204.0000
 20
17.5000
 30
0.0000
 40
0.5000
 50
90.0000
 51
180.0000
  0
LINE
  8
20
 10
204.0000
 20
18.0000
 30
0.0000
 11
205.0000
 21
18.0000
 31
0.0000
  0
ARC
  8
20
 10
205.0000
 20
17.5000
 30
0.0000
 40
0.5000
 50
0.0000
 51
90.0000
  0
LINE
  8
20
 10
205.5000
 20
17.5000
 30
0.0000
 11
205.5000
 21
15.5000
 31
0.0000
  0
ARC
  8
20
 10
205.0000
 20
15.5000
 30
0.0000
 40
0.5000
 50
270.0000
 51
0.0000
  0
CIRCLE
  8
20
 10
88.5000
 20
61.5000
 30
0.0000
 40
1.0000
  0
CIRCLE
  8
20
 10
91.5000
 20
61.5000
 30
0.0000
 40
1.0000
  0
CIRCLE
  8
20
 10
94.5000
 20
61.5000
 30
0.0000
 40
1.0000
  0
CIRCLE
  8
20
 10
131.5000
 20
142.5000
 30
0.0000
 40
4.0000
  0
CIRCLE
  8
20
 10
113.5000
 20
78.5000
 30
0.0000
 40
1.0000
  0
CIRCLE
  8
20
 10
185.5000
 20
8.7500
 30
0.0000
 40
2.5000
  0
CIRCLE
  8
20
 10
17.5000
 20
164.5000
 30
0.0000
 40
1.5500
  0
CIRCLE
  8
20
 10
6.5000
 20
106.5000
 30
0.0000
 40
1.5500
  0
CIRCLE
  8
20
 10
35.5000
 20
136.5000
 30
0.0000
 40
2.1000
  0
CIRCLE
  8
20
 10
97.5000
 20
121.5000
 30
0.0000
 40
1.5500
  0
CIRCLE
  8
20
 10
87.6000
 20
145.2000
 30
0.0000
 40
1.5500
  0
CIRCLE
  8
20
 10
71.0000
 20
143.6000
 30
0.0000
 40
1.5500
  0
CIRCLE
  8
20
 10
82.5000
 20
111.5000
 30
0.0000
 40
1.5500
  0
CIRCLE
  8
20
 10
82.5000
 20
130.5000
 30
0.0000
 40
1.5500
  0
CIRCLE
  8
20
 10
38.5000
 20
93.5000
 30
0.0000
 40
1.5500
  0
CIRCLE
  8
20
 10
15.0000
 20
136.5000
 30
0.0000
 40
1.5500
  0
CIRCLE
  8
20
 10
141.5000
 20
50.5000
 30
0.0000
 40
2.1000
  0
ENDSEC
  0
EOF
